<?xml version="1.0" encoding="UTF-8" standalone="no"?>
<!DOCTYPE svg PUBLIC "-//W3C//DTD SVG 1.1//EN" "http://www.w3.org/Graphics/SVG/1.1/DTD/svg11.dtd">
<svg width="48pt" height="48pt" viewBox="0 0 48 48" overflow="visible" version="1.1" xmlns="http://www.w3.org/2000/svg">
  <path d="M19.10201,16.92381 L20.10189,16.2092 L22.25886,15.79979 L23.37958,15.78753 L24.28199,15.90343 L24.77966,16.07503 L25.08219,16.31745 L25.24431,16.63387 L25.24047,16.85733 C25.23053,16.90956 25.22651,16.93998 25.20645,16.913 L25.11287,16.72513 L24.95191,16.50408 L24.59352,16.28451 L24.13218,16.15875 L23.556,16.0956 L21.79348,16.24888 L22.92126,16.51232 L23.38784,16.78341 L23.66901,17.03095 L23.80941,17.25757 L23.86592,17.48529 L23.82663,17.74404 C23.81343,17.80804 23.81257,17.82896 23.80509,17.82181 L23.76125,17.71555 L23.63401,17.45465 L23.33514,17.13785 L22.96544,16.89169 L22.28754,16.69137 L21.37983,16.59865 C20.98821,16.58686 20.46547,16.59259 19.10201,16.92381 z" stroke="Black" stroke-width="0" fill="#CA986C" fill-opacity="1.0" />
  <path d="M24.41848,22.0612 L24.38294,21.51598 L24.45309,21.43914 L24.61099,21.44971 L24.78882,21.64159 L24.95322,21.9978 L25.21595,22.94878 L25.73173,25.06348 L25.97511,26.13695 L26.16531,26.46254 L26.68238,26.83724 L27.54942,27.63898 L28.33318,28.38114 L28.4799,28.68614 L28.50292,28.96609 L28.68164,29.43312 L28.93735,30.03503 L29.08347,30.28287 L29.32457,30.49924 L29.81326,30.83506 L30.37168,31.1654 L30.55809,31.31284 L30.55361,31.44216 L30.42608,31.5921 L30.21313,31.69036 L29.98264,31.67393 L29.53093,31.45712 L29.0279,31.11888 L28.66677,30.72581 L28.26879,29.96916 L28.05997,29.37219 L27.90275,29.08476 L27.51459,28.68678 L26.62037,27.91539 L25.6549,27.09241 L25.25201,26.28908 L24.76067,24.21811 z" stroke="Black" stroke-width="0" fill="#CA986C" fill-opacity="1.0" />
  <path d="M21.04711,15.59429 L21.87345,15.1232 L21.98775,15.06367 C22.65292,14.87078 23.25345,14.88975 23.67219,14.9231 L24.52633,15.05072 L25.03581,15.20697 L25.44763,15.46746 L25.70673,15.81202 C25.75136,15.90149 25.74496,15.93815 25.7013,15.90627 L25.44802,15.68195 L24.93833,15.44046 L24.22752,15.29171 L23.25239,15.24578 z" stroke="Black" stroke-width="0" fill="#CA986C" fill-opacity="1.0" />
  <path d="M31.89175,31.01394 L32.28059,30.4473 L33.0348,29.48444 L33.27801,29.06353 L33.22425,28.69225 L32.86958,27.61603 L32.10346,24.74048 L31.21354,20.98089 L30.7709,18.90564 L30.62342,18.10756 L30.58611,17.70662 L30.64023,17.52968 L30.81005,17.45708 L31.02556,17.50633 L31.25555,18.05536 L31.75051,19.70568 L32.46142,22.27442 L33.54705,26.62827 L33.95023,28.27833 L34.02603,28.82283 L33.83731,29.23203 L33.25584,30.10612 L32.63762,30.93314 L32.2575,31.26408 L31.95068,31.29641 L31.8214,31.20582 z" stroke="Black" stroke-width="0" fill="#CA986C" fill-opacity="1.0" />
  <path d="M16.07432,19.7564 C17.92338,19.19459 18.59749,19.23813 19.09299,19.30577 L20.14014,19.56297 L20.67003,19.87326 L21.04322,20.23668 L21.23852,20.70893 L21.26545,21.10863 L21.22998,21.24537 L21.17502,21.20484 L21.08388,21.01268 L20.94312,20.72288 L20.6495,20.37665 L20.03412,19.97495 L18.81905,19.72747 C18.21493,19.70239 17.34698,19.75104 15.4207,20.49508 L15.80854,20.04826 z" stroke="Black" stroke-width="0" fill="#CA986C" fill-opacity="1.0" />
  <path d="M29.1019,13.80252 L29.06248,13.76827 L29.25774,13.52535 L29.67858,13.07466 L30.17879,12.60442 L30.75718,12.09261 L31.28151,11.64642 L31.54,11.46648 L31.6779,11.47311 L31.91932,11.5969 L32.02424,11.72305 L32.02528,12.12757 L31.89673,12.9917 L31.65453,13.73434 L31.16044,14.59409 L30.59408,15.42009 L30.43676,15.64569 L30.47893,15.70797 L30.70696,15.89474 L31.04079,16.25049 L31.3617,16.77147 L31.44828,17.08535 L31.42342,17.27951 L31.28999,17.39751 L31.11118,17.44971 L30.78227,17.42253 L30.58724,17.3103 L30.32125,17.04757 L30.05569,16.86842 L29.97683,16.84324 L29.99538,16.9326 L30.09098,17.2904 L30.17776,17.76324 L30.22462,18.15387 L30.15164,18.29544 L29.93142,18.39628 L29.81585,18.42622 L29.69119,18.26699 L29.37534,17.69786 L29.29019,17.52037 L29.32707,17.45924 L29.36532,17.42369 L29.39675,17.42448 L29.46365,17.47419 L29.55984,17.55509 L29.61186,17.59489 L29.62768,17.55473 L29.56488,17.3195 L29.45586,16.88969 L29.40196,16.52473 L29.39787,16.38088 L29.44885,16.33035 L29.61319,16.29666 L29.85355,16.3044 L30.12668,16.37496 L30.34883,16.53793 L30.47584,16.5698 L30.47245,16.43858 L30.30805,16.17001 L29.93804,15.81536 L29.44624,15.49946 L29.16901,15.39931 L29.02835,15.38838 L29.00513,15.3465 L29.06977,15.23406 L29.11848,15.16897 L29.20088,15.14848 L29.31878,15.13983 L29.47219,15.16077 L29.68432,15.27139 L29.93606,15.43118 L30.02915,15.48322 L30.14561,15.27936 L30.57846,14.45057 L31.08708,13.43862 L31.38302,12.50229 C31.43323,12.30384 31.43228,12.28923 31.40974,12.29003 L31.2464,12.38057 L30.7875,12.76149 L30.04836,13.33351 L29.41646,13.70429 z" stroke="Black" stroke-width="0" fill="#CA986C" fill-opacity="1.0" />
  <path d="M28.61087,16.48674 L28.70237,16.50768 L28.76382,16.65608 L28.74971,17.00888 L28.60449,17.63027 L28.46292,18.25028 L28.35184,18.77971 L28.24896,18.96726 L28.04912,19.00686 L27.92939,18.975 L27.87795,18.89534 L27.8866,18.7096 L27.969,18.43556 L28.16019,17.93663 L28.30541,17.25152 L28.36596,16.8054 L28.48522,16.5878 z" stroke="Black" stroke-width="0" fill="#CA986C" fill-opacity="1.0" />
  <path d="M27.14314,19.2124 L27.1841,19.15537 L27.30697,19.15848 L27.42757,19.20273 L27.51164,19.28496 L27.53524,19.49255 L27.57138,19.84617 L27.65102,20.05708 L27.69159,20.16106 L27.62521,20.23371 L27.53448,20.28741 L27.4105,20.23454 L27.22906,19.99289 L27.14941,19.74104 L27.12397,19.43684 z" stroke="Black" stroke-width="0" fill="#CA986C" fill-opacity="1.0" />
  <path d="M17.27365,18.51417 C19.35946,18.23891 20.03095,18.29361 20.46777,18.34364 L21.29674,18.51655 L21.79774,18.84592 L22.06802,19.30322 L22.12025,19.63412 L22.0754,19.8034 L22.00013,19.72791 L21.83768,19.46433 L21.51566,19.18238 L20.83902,18.92039 L20.02703,18.78436 L18.89736,18.7871 L16.58134,19.22195 L17.09405,18.69683 z" stroke="Black" stroke-width="0" fill="#CA986C" fill-opacity="1.0" />
  <path d="M23.04714,14.56207 L23.43099,14.39505 L23.82771,14.22676 L24.65531,14.25389 L25.22313,14.38602 L25.54955,14.5527 L25.74597,14.75119 L25.78415,14.90072 C25.78183,14.9317 25.77443,14.93872 25.76825,14.93479 L25.73847,14.88665 L25.6064,14.76242 L25.2912,14.60699 L24.97339,14.50046 L24.37672,14.44751 z" stroke="Black" stroke-width="0" fill="#CA986C" fill-opacity="1.0" />
  <path d="M26.06227,17.07156 L25.96755,16.61277 L25.93431,15.94385 L26.0043,15.01736 L26.2341,14.20495 L26.61682,13.3999 L26.91009,12.94359 L27.33194,12.52626 L27.73392,12.28256 L28.03157,12.2444 L28.23209,12.33182 L28.40139,12.64405 L28.50962,13.33025 L28.5923,14.35394 L28.57354,15.06244 L28.49443,15.24407 L28.33195,15.30082 L28.1862,15.26856 L28.11273,15.13565 L28.08163,14.72089 L28.03121,13.93781 L27.99104,13.06261 L27.95816,12.83943 L27.80586,12.96939 L27.44552,13.41329 L26.997,14.22088 L26.74329,15.26256 L26.62505,16.22162 L26.65155,16.79786 L26.74372,17.26039 L26.77238,17.52341 L26.68639,17.5723 L26.50712,17.55401 L26.25754,17.47678 z" stroke="Black" stroke-width="0" fill="#CA986C" fill-opacity="1.0" />
  <path d="M30.86169,29.42832 L31.05528,29.10881 L31.32511,28.81329 L31.64119,28.65482 L31.97011,28.59486 L32.0849,28.47066 L32.10888,28.23852 L32.1243,28.09462 L32.22795,28.04836 L32.43867,28.06549 L32.57829,28.1443 L32.61427,28.3336 L32.68879,28.54689 L32.88152,28.68395 L33.01686,28.93578 L32.94148,29.16021 L32.66652,29.26642 L32.47636,29.25186 L32.23566,29.30925 L31.98382,29.52083 L31.78595,29.94998 L31.58893,30.17012 L31.38764,30.17012 L31.17178,30.21466 L30.93365,30.20953 L30.78888,30.01936 L30.74862,29.75725 z" stroke="Black" stroke-width="0" fill="#CA986C" fill-opacity="1.0" />
  <path d="M29.26906,28.522 L29.35857,28.40463 L29.47683,28.3788 L29.60103,28.41196 L29.67915,28.4884 L29.73086,28.62552 L29.79605,28.96947 L30.02479,29.54103 L30.61545,30.23623 L31.04876,30.58355 L31.34044,30.6375 L31.48993,30.54421 L31.67877,30.54028 L31.82208,30.59592 L31.8884,30.6819 L31.87716,30.84657 L31.7878,30.95954 L31.59447,31.07194 L31.30841,31.20064 L30.94872,31.20064 L30.59522,31.03147 L30.2316,30.7825 L29.89777,30.4453 L29.51392,29.89903 L29.27114,29.35276 L29.21357,28.87502 z" stroke="Black" stroke-width="0" fill="#CA986C" fill-opacity="1.0" />
  <path d="M22.15325,20.27172 L22.3323,20.12558 L22.37623,20.19988 L22.37623,20.60077 L22.35909,21.5096 L22.35738,21.90963 L22.51842,22.17688 L23.06749,22.78078 L23.73905,23.61338 L24.18876,24.31749 L24.30783,24.6053 L24.25986,24.75778 L24.12109,24.92395 L23.9789,24.94451 L23.63883,24.72865 L22.96539,23.98071 L22.03633,22.96363 L21.65628,22.54521 L21.64463,22.20691 L21.73335,21.47877 L21.82087,20.76921 L21.90184,20.53232 z" stroke="Black" stroke-width="0" fill="#CA986C" fill-opacity="1.0" />
  <path d="M18.44968,34.08354 L18.82311,34.52906 L19.24427,34.95299 L19.71608,35.50875 L20.40159,36.31845 L20.8276,36.85132 L20.9171,37.1233 L20.84487,37.33076 L20.65316,37.45565 L20.43551,37.39321 L20.26698,37.19963 L20.14903,37.124 L20.10948,37.18644 L20.12385,37.494 L20.21785,38.52237 L20.42239,40.5473 L20.62609,42.39755 L20.69184,43.32381 L20.6315,43.58093 L20.42367,43.71482 L20.11523,43.7785 L19.96296,43.64411 L19.88893,43.23517 L19.79242,42.29113 L19.6928,40.91941 L19.57852,39.29964 L19.50241,38.12345 L19.49447,37.28038 L19.51607,36.74479 L19.50861,36.57907 L19.29784,36.34702 L18.44629,35.47506 L17.72412,34.68722 L17.47841,34.35074 L17.75236,34.31836 z" stroke="Black" stroke-width="0" fill="#CA986C" fill-opacity="1.0" />
  <path d="M17.93168,33.44511 L17.19405,33.2209 L16.75291,32.68553 L16.58004,31.9288 L16.57663,31.46208 L17.00256,32.20203 L17.55071,32.96443 z" stroke="Black" stroke-width="0" fill="#CA986C" fill-opacity="1.0" />
  <path d="M15.76256,31.41181 L15.53732,30.77393 L15.32344,29.73723 L15.13958,28.67219 L15.14651,28.36621 L15.39283,28.30862 L15.51147,28.29683 L15.59542,28.46959 L15.72933,29.04825 L15.96105,29.79348 L15.98348,29.85984 L15.77681,31.25834 z" stroke="Black" stroke-width="0" fill="#CA986C" fill-opacity="1.0" />
  <path d="M17.00644,35.25878 L16.96214,34.9037 L17.06578,34.74576 L17.19392,34.66483 L17.29312,34.67414 L17.42389,34.82455 L17.68969,35.41216 L18.18883,36.7478 L18.79585,38.65344 L19.3669,40.19318 L19.51284,40.6458 L19.43776,40.78327 L19.18184,40.96093 L18.99783,41.04977 L18.89631,41.0265 L18.75143,40.72934 L18.34668,39.61211 L17.83122,37.95572 L17.36033,36.47008 z" stroke="Black" stroke-width="0" fill="#CA986C" fill-opacity="1.0" />
  <path d="M26.16526,33.82244 L25.82213,34.97518 L25.22183,37.24516 L24.84861,38.76886 L24.42231,41.0769 L24.07297,43.93781 L23.91179,45.58345 L23.71877,46.28788 L23.476,46.54856 L23.25313,46.47692 L23.15165,46.22221 L23.13573,45.73668 L23.20339,44.67407 L23.32079,43.27119 L23.54565,41.44845 L23.82253,39.74607 L24.09229,38.54208 L24.44903,37.17409 L24.75912,36.02541 L25.20283,34.6069 L25.33881,34.25391 L25.40676,34.23083 L25.87701,34.00595 z" stroke="Black" stroke-width="0" fill="#CA986C" fill-opacity="1.0" />
  <path d="M29.53606,33.76195 L29.57108,33.755 L30.05211,33.69191 L30.29157,33.73075 L30.56132,33.90493 L30.70236,34.04622 L30.69488,34.12605 L30.52613,34.19095 L29.94765,34.33546 L29.10145,34.62236 L28.26336,35.1258 L27.23175,35.86583 L26.52682,36.41821 L25.87039,37.02639 L25.48663,37.52714 L25.37465,37.67554 L25.33959,37.61454 L25.35325,37.34687 L25.41808,37.01086 L25.4857,36.8788 L25.69291,36.64017 L26.12492,36.24432 L26.77212,35.65634 L27.55186,34.96511 L28.24221,34.41211 L28.48233,34.24969 L28.78856,34.16895 L29.40395,33.86306 z" stroke="Black" stroke-width="0" fill="#CA986C" fill-opacity="1.0" />
  <path d="M27.54235,20.49742 L27.57738,20.40782 L27.76617,20.39049 L28.12016,20.43769 L28.61573,20.5767 L29.10541,20.77323 L29.49073,21.00664 L29.69759,21.25959 L29.77171,21.57891 L29.64191,21.97087 L29.33734,22.33297 L28.99221,22.35141 L28.69722,22.15155 L28.38159,21.75775 L28.23151,21.4399 L28.11389,21.11062 L27.80858,20.83997 L27.58328,20.62758 z" stroke="Black" stroke-width="0" fill="#CA986C" fill-opacity="1.0" />
  <path d="M18.34061,17.52074 C19.59194,17.16311 20.1893,17.16594 20.63445,17.18929 L21.58176,17.30294 L22.08325,17.50673 L22.59278,17.93249 L22.81069,18.31866 L22.79423,18.52727 L22.70577,18.45975 L22.56414,18.24173 L22.25117,17.99564 L21.77913,17.79723 L21.09946,17.63714 L20.08474,17.59758 C19.66665,17.6129 19.15481,17.65999 17.649,18.14148 z" stroke="Black" stroke-width="0" fill="#CA986C" fill-opacity="1.0" />
  <path d="M12.78241,24.37646 L12.18471,25.26624 L11.35951,26.75807 L10.27286,29.30611 L9.358983,32.44818 L8.968373,35.30037 L8.953633,37.98796 L9.363229,40.5881 L9.924623,42.24577 L10.29349,43.04676 L10.37851,43.42303 L10.23848,43.52621 L9.965787,43.45988 L9.597287,43.20193 L9.231245,42.65163 L8.65531,41.04102 L8.036386,38.53325 L7.889912,35.46191 L8.250959,32.6783 L8.960158,29.75124 L10.10576,26.81267 L11.77795,23.63348 L12.39143,22.69052 L12.25617,22.01085 L11.94186,19.53861 L11.88418,16.75431 L12.11816,13.73532 L12.73773,10.81884 L13.91068,7.54495 L14.83844,5.71712 L15.6373,4.422682 L16.44817,3.442793 L17.65497,2.423446 L18.87732,1.774154 L19.49406,1.649949 L19.65141,1.764492 L19.51108,1.956221 L19.02405,2.220747 L18.19303,2.833396 L17.12169,3.918196 L16.03793,5.408272 L14.79994,7.868672 L13.83149,10.95166 L13.55075,12.45868 L13.53362,12.81092 C13.54151,12.83492 13.55717,12.8062 13.61984,12.68609 L13.94232,12.13775 L14.46716,11.50977 L15.04683,10.98885 L15.85881,10.4403 L16.95444,9.974915 L17.77772,9.760204 L18.13628,9.755708 L18.24643,9.829893 L18.2543,9.9215 L18.16663,10.01536 L17.9741,10.14844 L17.90481,10.30313 L17.89886,10.62898 L17.93202,10.9853 L17.9871,11.25225 L18.10287,11.3669 L18.31025,11.39275 L18.54236,11.3225 L18.97848,10.91505 L19.49327,10.34292 L19.78439,9.97481 L19.96311,9.860161 L20.07693,9.890478 L20.24097,10.03213 L20.23574,10.17938 L20.06049,10.71969 L19.86074,11.62445 L19.83071,12.24199 L19.90252,12.48613 L20.07485,12.48874 L20.46391,12.22632 L21.1402,11.32156 L22.01624,9.89718 L23.06592,7.856571 L23.82184,6.117549 L24.45426,4.564442 L25.16375,3.073932 L25.46305,2.50262 L25.56183,2.397918 L25.68929,2.422955 L26.01159,2.586381 L26.09627,2.66813 L25.94038,3.001941 L25.30528,4.383406 L24.71663,6.313872 L24.46853,8.363595 L24.41692,9.561558 L24.47162,9.947807 L24.60448,10.10118 L24.91484,10.00296 L25.32019,9.577961 L25.9884,8.764805 L26.90471,7.454666 L27.73296,6.144673 L28.48068,4.903393 L29.30317,3.479686 L29.66626,2.889164 L29.82375,2.858545 L30.15416,3.057927 L30.18696,3.262967 L29.81671,4.034386 L29.29808,5.371903 L28.94058,7.33457 L28.83604,9.048836 L28.96006,9.867897 L29.16637,10.21121 L29.47423,10.30148 L30.02224,9.924311 L31.09088,8.805709 L32.26912,7.28093 L33.05407,6.336405 L33.39739,6.105916 L33.5634,6.209072 L33.44413,6.894094 L33.17818,8.23029 L33.03795,9.218334 L33.12983,9.679314 L33.31196,9.819542 L33.65689,9.669643 L34.38704,9.032975 L35.19134,8.014307 L36.19261,6.37282 L36.97357,5.017542 L37.25417,4.503771 L37.45013,4.458739 L38.01485,4.622159 L38.16377,4.894712 L37.92284,5.918674 L37.44281,8.291765 L36.96248,12.049 L36.89725,12.98793 L37.26281,12.90306 L38.22762,12.70723 L39.40656,12.5845 L40.34265,12.57145 L40.94974,12.62106 L41.30094,12.73856 L41.42889,12.92134 L41.39494,13.03623 L41.1521,13.0767 L40.58418,13.07801 L39.64809,13.08323 L38.4843,13.31155 L37.40322,13.69905 L36.86276,13.99538 L36.74176,14.80906 L36.62384,17.94622 L36.39622,21.48412 L36.10421,23.16741 L35.54583,24.52307 L35.00723,25.49514 L34.35107,26.23871 L34.14753,26.45401 L34.08425,26.39847 L33.96817,26.14263 L33.90797,25.93151 L33.97753,25.64018 L34.49113,24.65829 L34.94415,23.3547 L35.1799,22.32847 L35.44292,19.73814 L35.69004,15.69965 L35.73082,14.75134 L35.55158,14.88613 L34.77299,15.72385 L33.80507,17.12169 L33.07432,18.34698 L32.74021,19.05875 L32.47952,19.7946 L32.34284,20.01593 L32.17285,19.92226 L31.92099,19.54273 L31.76349,19.26312 L31.74684,18.96824 L31.90364,18.38958 L32.21101,17.62289 L32.75775,16.72507 L33.56329,15.68432 L34.31541,14.82466 L35.01479,14.20437 L35.59345,13.73811 L35.80993,13.57021 L35.8878,13.07009 L36.08983,10.8869 L36.39354,8.625216 L36.48512,7.999391 C36.4909,7.948755 36.48932,7.932905 36.46465,7.946869 L36.28277,8.151862 L35.74351,8.862256 L34.81821,9.857204 L33.90684,10.5278 L33.06909,10.57954 L32.51192,10.27906 L32.26318,9.920881 L32.16368,9.359731 L32.24843,8.556509 L32.45663,7.961577 L32.49137,7.825165 L32.33554,8.004716 L31.6776,8.904836 L30.75241,10.19429 L29.91427,10.91316 L29.25665,11.08885 L28.79889,11.00826 L28.46363,10.74875 L28.20189,10.34103 L27.9318,9.562793 L27.89301,8.560318 L28.08415,7.053074 L28.29849,6.098891 C28.33851,5.935175 28.32741,5.933788 28.31492,5.949052 L28.17036,6.22006 L27.53823,7.383444 L26.59402,9.037887 L25.87836,10.1615 L25.32035,10.68218 L24.73715,10.87008 L24.18123,10.77702 L23.76493,10.43617 L23.55164,9.947849 L23.50866,9.137569 L23.63261,8.152736 L23.64522,7.855766 L23.50923,8.043796 L23.16295,8.72405 L22.76142,9.609125 L22.03077,11.03364 L21.3393,12.24573 L20.79129,12.91947 L20.23682,13.29179 L19.64045,13.38206 L19.20687,13.17897 L19.01829,12.70187 L19.02851,12.11442 L19.16206,11.46237 L19.19485,11.28308 C19.1925,11.27387 19.18623,11.277 19.1631,11.29601 L19.02284,11.41357 L18.72363,11.62825 L18.36145,11.72001 L17.87367,11.67484 L17.6411,11.43284 L17.51621,11.02633 L17.51297,10.56849 L17.45998,10.4612 L17.20156,10.57151 L16.47193,11.01371 L15.4647,11.82932 L14.40775,13.03308 L13.7083,14.25404 L13.21627,16.25131 L13.22762,19.15437 L13.47171,21.18822 L13.89061,20.64051 L15.69545,18.52326 L17.66743,16.71046 L19.60759,15.2837 L21.75151,14.10623 L23.46744,13.51449 L24.80771,13.32887 L25.48639,13.34851 L25.89469,13.43624 L26.28642,13.58313 L26.3776,13.66907 L26.36806,13.69581 L26.17253,13.71258 L25.43947,13.77853 L24.59858,13.9384 L23.43099,14.39505 L21.98775,15.06367 L21.87345,15.1232 L21.05503,15.58945 L20.18083,16.15539 L20.10189,16.2092 L18.36684,17.49898 L18.34061,17.52074 L17.649,18.14148 L17.27365,18.51417 L17.09405,18.69683 L16.58134,19.22195 L16.07432,19.7564 L15.80854,20.04826 L15.4207,20.49508 L14.84541,21.19753 L14.65418,21.4421 L14.65419,21.45396 L14.73571,21.41604 L15.17058,21.19893 L15.86798,20.90622 L16.70104,20.72368 L17.58545,20.60472 L18.52201,20.63935 L19.48205,20.81259 L20.11905,21.14226 L20.54635,21.59808 L20.77605,21.94025 L20.7978,22.1979 L20.72141,22.32049 L20.61821,22.33068 L20.54264,22.27865 L20.3746,22.08488 L19.81331,21.64749 L19.15661,21.34852 L17.84973,21.23493 L16.40055,21.57569 L15.07148,22.16711 L14.23651,22.77451 L13.76921,23.22513 L13.86136,23.9812 L13.84321,24.57362 L13.76323,25.28475 L13.6757,25.65703 L13.49326,25.73674 L13.33844,25.71851 L13.21871,25.63793 L13.0958,25.45266 L12.9359,24.98426 z" stroke="Black" stroke-width="0" fill="#DE8139" fill-opacity="1.0" />
  <path d="M20.22756,22.30409 L20.2196,22.6512 L20.1143,22.88 L19.81203,23.17048 L19.29695,23.81127 L18.44488,25.15464 L17.79238,26.60014 L17.22243,28.24611 L16.77989,29.75001 L16.60926,30.96126 L16.57663,31.46208 L16.58004,31.9288 L16.75291,32.68553 L17.19405,33.2209 L17.93168,33.44511 L17.98982,33.44961 L18.82157,33.28086 L19.5664,32.71497 L20.04708,32.29905 L20.51267,31.8505 L20.94781,31.38623 L21.21935,31.20635 L21.51145,31.13954 L21.70138,31.13804 L21.79698,31.20326 L21.7971,31.33485 L21.64368,31.48963 L21.34824,31.60844 L21.06874,31.71861 L20.8648,31.89159 L20.70274,32.15517 L20.67633,32.45425 L20.80289,32.71919 L21.09559,32.88762 L21.52487,32.84848 L21.98419,32.52071 L22.19724,32.16109 L22.25551,31.87794 L22.1813,31.71861 L22.0106,31.6312 L21.94413,31.47825 L21.99739,31.32575 L22.16264,31.26702 L22.44078,31.33076 L22.73498,31.49363 L22.98757,31.70825 L23.13267,31.91015 L23.26589,31.97538 L23.60378,31.90738 L24.03396,31.73184 L24.63744,31.45517 L25.01218,31.22966 L25.23405,31.14795 L25.44706,31.16946 L25.71766,31.33807 L25.83977,31.63364 L25.74125,31.96321 L25.56432,32.23172 L25.33743,32.61611 L25.22087,32.98384 L25.24238,33.21905 L25.34854,33.32868 L25.58375,33.29815 L25.77314,33.19526 L26.01462,33.00813 L26.53361,32.47457 L26.6141,32.38968 L26.92423,32.08394 L27.20662,31.86677 L27.52163,31.7391 L27.81373,31.80224 L28.10514,32.13667 L28.25848,32.74794 L28.39725,33.18158 L28.65049,33.34047 L28.99602,33.28288 L29.45534,32.90474 L29.99792,32.27127 L30.31778,31.87093 L30.69384,31.63017 L31.09487,31.6038 L31.36894,31.69608 L31.39114,31.85081 L31.18902,31.94398 L30.8317,32.07599 L30.70378,32.28372 L30.74928,32.5144 L30.92142,32.62235 L31.27111,32.56684 L31.91637,32.36841 L32.44785,31.97154 L32.92174,31.4692 L33.40187,31.11535 L33.84731,30.86626 L34.23517,30.71917 L34.57515,30.71431 L34.86101,30.88915 L35.06291,31.21526 L34.97654,31.55488 L34.77953,31.86178 L34.54063,32.04714 L34.1298,32.28768 L33.53183,32.59004 L33.189,32.6586 L32.89227,32.57093 L32.83866,32.69408 L32.81402,32.82407 L32.86736,33.03817 L33.11699,33.15543 L33.61994,33.12187 L34.39275,32.76397 L35.42177,32.11477 L36.29564,31.51138 L36.81449,31.12949 L37.07976,30.96868 L37.3089,30.96772 L37.47188,31.06495 L37.50811,31.1298 L37.44051,31.18129 L37.16921,31.45717 L36.862,31.9272 L36.76417,32.25122 L36.76209,32.38999 C36.76903,32.40803 36.78291,32.39831 36.94318,32.24914 L37.63979,31.61289 L38.16086,31.23267 L38.58757,31.08766 L39.09198,31.05158 L39.41184,31.25349 L39.69978,31.62469 L39.77333,31.96605 L39.74002,32.29493 L39.60057,32.50863 L39.34454,32.71262 L39.17178,32.7709 L39.09129,32.74523 L39.04342,32.62728 L38.95738,32.36154 L38.97958,32.21029 L39.09337,32.10205 L39.07048,31.98618 L38.95877,31.85712 L38.75062,31.86822 L38.41272,32.10205 L37.77231,32.7376 L37.04795,33.57436 L36.65871,33.85606 L36.33122,33.94001 L36.03287,33.91087 L35.83651,33.70897 L35.76019,33.40091 L35.77754,33.04774 L35.91769,32.68556 L36.16956,32.3206 L36.37909,32.07013 L36.41933,31.94524 L36.38811,31.84047 L36.33052,31.8148 L36.13764,31.9605 L35.40079,32.55997 L34.4877,33.33221 L33.76542,33.79222 L33.25059,34.00523 L32.7663,33.9643 L32.28547,33.75962 L32.05269,33.33291 L32.04679,32.78408 L31.58442,32.92332 L31.27499,32.9734 L31.01966,32.97378 L30.73764,32.93727 L30.63311,32.88745 L30.57042,32.77539 L30.51058,32.62904 L30.4928,32.58841 L30.47296,32.61634 L30.35794,32.81511 L29.9998,33.30384 L29.53606,33.76195 L29.40395,33.86306 L28.78856,34.16895 L28.48233,34.24969 L28.25465,34.26561 L27.8171,34.16135 L27.59169,34.01789 L27.43434,33.73145 L27.37971,33.35635 L27.45846,32.9603 L27.48987,32.7987 L27.4744,32.76865 L27.42751,32.78413 L27.26681,32.91387 L26.86075,33.28033 L26.35909,33.68275 L26.16526,33.82244 L25.87701,34.00595 L25.40676,34.23083 L25.33881,34.25391 L25.04168,34.30595 L24.68341,34.27363 L24.50451,34.10838 L24.4212,33.78426 L24.40345,33.27851 L24.48604,32.70724 L24.61663,32.28771 L24.72125,32.04533 L24.74301,31.96753 L24.62428,31.99777 L24.24891,32.1519 L23.77878,32.33995 L23.45355,32.39821 L23.18254,32.33184 L23.02877,32.26952 L22.94876,32.24924 L22.91078,32.27579 L22.863,32.38548 L22.76506,32.64732 L22.54715,33.03062 L22.11332,33.44715 L21.67813,33.68159 L21.21334,33.77309 L20.78907,33.72483 L20.46359,33.47401 L20.28696,33.16445 L20.20365,32.87265 L20.18118,32.69086 C20.17418,32.66157 20.1611,32.67036 20.11573,32.72015 L19.85555,33.0036 L19.27862,33.53735 L18.48302,34.06653 L18.44968,34.08354 L17.75236,34.31836 L17.47841,34.35074 L17.11591,34.34663 L16.66107,34.22671 L16.22421,33.88408 L15.89357,33.12171 L15.76165,32.33366 L15.76256,31.41181 L15.77681,31.25834 L15.98348,29.85984 L16.10575,29.28482 L16.6257,27.76786 L17.26446,26.34508 L18.0246,24.84669 L18.96059,23.49059 L19.76045,22.58732 L20.11768,22.31403 z M33.168,32.06187 L33.17168,32.12677 L33.22515,32.13672 L33.40362,32.08768 L33.78231,31.90295 L34.25281,31.59321 L34.49617,31.33952 L34.54816,31.22632 L34.52825,31.17876 L34.38739,31.1865 L34.14919,31.2938 L33.80627,31.48517 L33.32545,31.84874 z" stroke="Black" stroke-width="0" fill="#DE8139" fill-opacity="1.0" />
</svg>