<?xml version="1.0" encoding="UTF-8" standalone="no"?>
<!DOCTYPE svg PUBLIC "-//W3C//DTD SVG 1.1//EN" "http://www.w3.org/Graphics/SVG/1.1/DTD/svg11.dtd">
<svg width="192pt" height="192pt" viewBox="0 0 192 192" overflow="visible" version="1.1" xmlns="http://www.w3.org/2000/svg">
  <path d="M76.10816,67.262 L80.16891,64.35982 C85.07413,63.11215 87.17133,62.83566 88.92885,62.69712 L93.48035,62.6473 L97.14521,63.118 L99.16638,63.8149 L100.395,64.79945 L101.0534,66.08449 L101.0378,66.992 C100.9975,67.20411 100.9811,67.32768 100.8997,67.21811 L100.5196,66.45512 L99.86593,65.5574 L98.4104,64.66566 L96.5368,64.15491 L94.19683,63.89845 C93.21068,63.82594 91.93054,63.75255 87.03884,64.52095 C89.74607,64.73866 90.79844,65.18896 91.61898,65.59086 L93.5139,66.69183 L94.65578,67.69712 L95.22599,68.61748 L95.45545,69.5423 L95.29591,70.59313 C95.24227,70.85307 95.23879,70.93804 95.20841,70.909 L95.03037,70.47743 L94.51363,69.41788 L93.29986,68.13125 C92.87099,67.74161 92.49532,67.43503 91.79842,67.13155 L89.04533,66.31802 L85.35891,65.94146 C83.76846,65.89359 81.64548,65.91683 76.10816,67.262 z" stroke="Black" stroke-width="0" fill="#CA986C" fill-opacity="1.0" />
  <path d="M97.69953,88.12611 L97.55519,85.91184 L97.8401,85.59978 L98.48136,85.64272 L99.20356,86.42198 L99.87125,87.86864 L100.9382,91.73075 L103.0329,100.319 L104.0214,104.6786 C104.2112,105.3987 104.3683,105.6736 104.7938,106.0009 L106.8938,107.5227 L110.415,110.7787 L113.598,113.7928 C114.2284,114.4827 114.21,114.7299 114.1939,115.0314 L114.2874,116.1684 L115.0132,118.0651 L116.0517,120.5096 L116.6451,121.5162 L117.6243,122.3949 L119.609,123.7587 L121.8768,125.1003 L122.6339,125.6991 L122.6157,126.2243 L122.0978,126.8332 L121.2329,127.2323 L120.2968,127.1656 L118.4623,126.2851 L116.4194,124.9114 C115.8507,124.4724 115.4716,124.1132 114.9528,123.315 L113.3365,120.2421 L112.4885,117.8177 L111.8499,116.6504 L110.2736,115.0341 L106.6419,111.9013 L102.7209,108.559 C101.823,107.671 101.6035,107.1522 101.0847,105.2965 C100.5659,103.4407 99.74775,100.2481 99.08926,96.8858 C98.43078,93.52352 97.93192,89.99165 97.69953,88.12611 z" stroke="Black" stroke-width="0" fill="#CA986C" fill-opacity="1.0" />
  <path d="M84.00765,61.86254 L87.36358,59.94934 L87.82783,59.70757 C90.5292,58.92419 92.9681,59.00122 94.66869,59.13667 L98.13756,59.65498 L100.2066,60.28955 C100.8199,60.55087 101.3966,60.8893 101.8791,61.34743 L102.9314,62.74677 C103.1126,63.11013 103.0867,63.25903 102.9094,63.12954 L101.8807,62.21855 L99.81076,61.23779 L96.92403,60.63369 L92.96378,60.44716 C91.40005,60.48386 89.55583,60.6406 84.00765,61.86254 z" stroke="Black" stroke-width="0" fill="#CA986C" fill-opacity="1.0" />
  <path d="M128.0502,124.4852 L129.6293,122.1839 L132.6924,118.2735 C133.4641,117.258 133.6212,116.9307 133.6801,116.5641 C133.739,116.1976 133.6997,115.7917 133.4618,115.0563 L132.0213,110.6855 L128.91,99.00727 L125.2958,83.73871 L123.4982,75.31065 L122.8992,72.06947 L122.7477,70.44115 L122.9675,69.72259 L123.6572,69.42774 C123.9447,69.3818 124.2718,69.39033 124.5324,69.62777 C124.793,69.86521 124.9871,70.33156 125.4664,71.85746 L127.4766,78.55979 L130.3637,88.99204 L134.7727,106.674 L136.4101,113.3752 L136.718,115.5866 C136.6862,116.1029 136.4972,116.4035 135.9515,117.2484 L133.59,120.7983 L131.0793,124.157 C130.4063,124.9575 129.9848,125.3162 129.5356,125.5011 C129.0863,125.686 128.6093,125.6971 128.2895,125.6323 C127.9697,125.5676 127.807,125.4271 127.7645,125.2644 z" stroke="Black" stroke-width="0" fill="#CA986C" fill-opacity="1.0" />
  <path d="M63.81205,78.76579 C71.32147,76.48413 74.05921,76.661 76.07155,76.93568 C78.08389,77.21037 79.37082,77.58289 80.32423,77.98023 C81.27765,78.37758 81.89754,78.79974 82.47624,79.24038 C83.05494,79.68102 83.59244,80.14014 83.99186,80.71632 C84.39129,81.2925 84.65263,81.98575 84.78503,82.6342 L84.89437,84.2575 L84.75033,84.81281 L84.52714,84.64823 L84.15696,83.86784 L83.58531,82.69086 L82.39287,81.28475 C81.80938,80.75804 80.9929,80.15533 79.89366,79.65337 C78.79443,79.15139 77.41244,78.75015 74.95898,78.6483 C72.50552,78.54646 68.9806,78.744 61.15754,81.76571 L62.73262,79.9511 z" stroke="Black" stroke-width="0" fill="#CA986C" fill-opacity="1.0" />
  <path d="M116.7199,54.58576 C116.4976,54.61885 116.4558,54.61079 116.5599,54.44665 L117.3529,53.46011 L119.062,51.62972 L121.0934,49.72001 L123.4424,47.64143 L125.5719,45.82933 L126.6216,45.09855 L127.1817,45.1255 L128.1621,45.62821 C128.4313,45.7865 128.5264,45.87544 128.5882,46.14056 L128.5925,47.78338 L128.0704,51.29284 C127.8362,52.43427 127.5693,53.28552 127.0867,54.30885 L125.0802,57.80048 L122.78,61.15504 L122.1411,62.07127 L122.3124,62.32422 L123.2385,63.08271 L124.5942,64.52749 L125.8975,66.6433 L126.2492,67.91804 L126.1482,68.70658 L125.6063,69.1858 L124.8801,69.3978 L123.5443,69.28741 L122.7523,68.83162 L121.672,67.76464 L120.5935,67.03705 L120.2732,66.93481 L120.3486,67.29768 L120.7368,68.75082 L121.0893,70.67113 L121.2796,72.25757 C121.287,72.60513 121.218,72.69868 120.9832,72.83249 L120.0888,73.24203 L119.6195,73.36364 L119.1132,72.71695 L117.8304,70.40559 L117.4847,69.68475 L117.6344,69.43651 L117.7898,69.29211 L117.9174,69.29533 L118.1891,69.49721 L118.5798,69.82578 L118.791,69.98743 L118.8553,69.8243 L118.6002,68.86898 L118.1575,67.12343 L117.9386,65.64125 L117.9219,65.05704 L118.129,64.85182 L118.7964,64.71502 L119.7726,64.74644 L120.8818,65.033 L121.784,65.69486 L122.2998,65.82428 L122.2861,65.29137 L121.6184,64.20066 L120.1157,62.76035 L118.1184,61.4774 L116.9925,61.07067 L116.4212,61.02629 L116.327,60.85621 L116.5895,60.39956 L116.7873,60.13519 L117.1219,60.05199 L117.6008,60.01687 L118.2238,60.10191 L119.0853,60.55116 L120.1077,61.20008 L120.4857,61.41146 L120.9587,60.5835 L122.7166,57.21764 C123.4351,55.88763 124.1959,54.55198 124.7822,53.10786 C125.3685,51.66374 125.7802,50.11115 125.9841,49.3052 C126.188,48.49925 126.1841,48.43995 126.0926,48.44317 L125.4293,48.81088 L123.5656,50.35787 L120.5637,52.68099 L117.9975,54.18682 z" stroke="Black" stroke-width="0" fill="#CA986C" fill-opacity="1.0" />
  <path d="M114.7258,65.48697 L115.0974,65.57201 L115.3469,66.17471 L115.2896,67.60751 L114.6999,70.13108 L114.1249,72.6491 L113.6738,74.79922 C113.5536,75.29469 113.4723,75.45369 113.256,75.56091 L112.4444,75.72176 L111.9582,75.59235 L111.7492,75.26881 L111.7844,74.51451 L112.119,73.40155 L112.8955,71.37531 L113.4852,68.5929 L113.7311,66.78111 L114.2155,65.8974 z" stroke="Black" stroke-width="0" fill="#CA986C" fill-opacity="1.0" />
  <path d="M108.765,76.5565 L108.9313,76.32489 L109.4304,76.33748 L109.9201,76.51721 L110.2616,76.85116 L110.3574,77.69425 L110.5042,79.13036 L110.8276,79.98693 L110.9924,80.40923 L110.7228,80.70423 L110.3543,80.92234 L109.8508,80.7076 L109.1139,79.72622 L108.7905,78.70342 L108.6871,77.46798 z" stroke="Black" stroke-width="0" fill="#CA986C" fill-opacity="1.0" />
  <path d="M68.6828,73.7208 C77.15373,72.60293 79.8808,72.82507 81.65481,73.02827 C83.42883,73.23147 84.24979,73.41573 85.02144,73.73047 C85.79309,74.0452 86.51543,74.49039 87.05615,75.06815 C87.59687,75.6459 87.95598,76.35621 88.15382,76.92531 L88.3659,78.26917 L88.18375,78.95667 L87.87809,78.65007 L87.21832,77.57963 C86.93511,77.18787 86.5944,76.81802 85.91054,76.43459 L83.16254,75.37056 L79.86488,74.81812 C78.65161,74.71935 77.27232,74.69192 75.27705,74.82925 C73.28177,74.96658 70.67051,75.26868 65.87116,76.59526 L67.9534,74.46263 z" stroke="Black" stroke-width="0" fill="#CA986C" fill-opacity="1.0" />
  <path d="M92.13023,57.67044 L93.68912,56.99214 L95.3003,56.30868 L98.66136,56.41886 L100.9674,56.95546 L102.2931,57.63239 L103.0908,58.43853 L103.2458,59.04578 C103.2364,59.1716 103.2064,59.20011 103.1812,59.18415 L103.0603,58.98864 L102.5239,58.48411 L101.2439,57.85288 L99.95315,57.42022 L97.52993,57.2052 C96.43575,57.18604 95.02724,57.23306 92.13023,57.67044 z" stroke="Black" stroke-width="0" fill="#CA986C" fill-opacity="1.0" />
  <path d="M104.3754,67.86205 L103.9907,65.99879 L103.8557,63.28217 L104.1399,59.51948 C104.3259,58.32191 104.6117,57.34755 105.0732,56.22012 L106.6275,52.9506 L107.8185,51.09745 L109.5318,49.40257 L111.1643,48.41285 L112.3731,48.25787 L113.1875,48.61292 C113.4354,48.84961 113.689,49.23847 113.875,49.88093 L114.3146,52.66776 L114.6503,56.82519 L114.5742,59.70258 C114.5052,60.25461 114.4227,60.34195 114.2529,60.4402 L113.593,60.67067 L113.0011,60.53966 L112.7027,59.99989 L112.5764,58.31545 L112.3717,55.1352 L112.2085,51.5808 L112.075,50.67441 L111.4565,51.20222 L109.993,53.00497 C109.3833,53.85863 108.6728,54.9827 108.1715,56.28479 C107.6702,57.58687 107.3781,59.06696 107.1411,60.51528 L106.6609,64.41026 L106.7685,66.75047 L107.1428,68.62891 L107.2592,69.69709 C107.2204,69.88654 107.0926,69.90936 106.91,69.89567 L106.182,69.8214 C105.8739,69.81103 105.4951,69.84052 105.1684,69.50776 C104.8416,69.175 104.5668,68.48 104.3754,67.86205 z" stroke="Black" stroke-width="0" fill="#CA986C" fill-opacity="1.0" />
  <path d="M123.8669,118.0456 L124.6531,116.748 L125.7489,115.5479 L127.0326,114.9043 L128.3684,114.6608 C128.685,114.5703 128.7754,114.4242 128.8346,114.1563 L128.932,113.2136 L128.9946,112.6292 L129.4155,112.4413 L130.2713,112.5109 L130.8384,112.8309 L130.9845,113.5997 L131.2871,114.466 L132.0699,115.0226 L132.6195,116.0453 C132.6856,116.4071 132.6021,116.7202 132.3134,116.9568 L131.1967,117.3881 L130.4244,117.329 L129.4468,117.5621 C129.0885,117.7151 128.7267,117.9378 128.4241,118.4213 L127.6205,120.1642 C127.3631,120.6791 127.0917,120.9643 126.8204,121.0583 L126.0028,121.0583 L125.1262,121.2392 C124.8027,121.3122 124.4339,121.354 124.1591,121.2183 C123.8843,121.0826 123.7034,120.7695 123.5712,120.446 L123.4077,119.3815 z" stroke="Black" stroke-width="0" fill="#CA986C" fill-opacity="1.0" />
  <path d="M117.3988,114.3648 L117.7624,113.8882 L118.2426,113.7833 L118.7471,113.918 L119.0643,114.2284 L119.2743,114.7853 L119.5391,116.1821 C119.6692,116.8007 119.8609,117.563 120.468,118.5034 C121.0751,119.4437 122.0977,120.5621 122.8668,121.3267 L124.6266,122.7373 C125.1013,122.9724 125.535,123.0317 125.8112,122.9564 L126.4183,122.5775 L127.1852,122.5615 L127.7672,122.7875 L128.0365,123.1367 L127.9909,123.8055 L127.628,124.2642 L126.8428,124.7207 L125.6811,125.2434 C125.2292,125.3598 124.7088,125.3689 124.2203,125.2434 L122.7847,124.5564 L121.3079,123.5453 L119.9522,122.1758 L118.3933,119.9573 L117.4073,117.7388 L117.1735,115.7986 z" stroke="Black" stroke-width="0" fill="#CA986C" fill-opacity="1.0" />
  <path d="M88.49994,80.85861 L89.22709,80.26511 C89.36375,80.21552 89.39158,80.32684 89.40549,80.56687 L89.40549,82.19495 L89.33591,85.88594 L89.32896,87.51053 C89.37766,87.79927 89.5029,88.04279 89.98297,88.59591 L92.21288,91.04845 L94.94024,94.42984 L96.7666,97.2894 L97.25016,98.45827 L97.05534,99.0775 L96.49178,99.75238 C96.31436,99.90545 96.19608,99.91936 95.9143,99.83587 C95.63252,99.75238 95.18723,99.57149 94.53323,98.95922 L91.79819,95.92164 L88.02511,91.79108 L86.48163,90.09179 C86.3073,89.76029 86.34682,89.43594 86.43433,88.71784 L86.79465,85.76072 L87.15006,82.87905 C87.22891,82.26711 87.24741,82.18576 87.47891,81.91698 z" stroke="Black" stroke-width="0" fill="#CA986C" fill-opacity="1.0" />
  <path d="M73.45892,136.9515 L74.9755,138.7609 L76.68591,140.4826 L78.60203,142.7396 L81.38603,146.028 L83.11617,148.1921 C83.43177,148.6852 83.49376,148.9952 83.47967,149.2967 L83.18633,150.1392 L82.40773,150.6464 C82.10622,150.7028 81.79121,150.6126 81.52381,150.3928 L80.83938,149.6066 L80.36034,149.2995 L80.19973,149.5531 L80.25809,150.8022 L80.63982,154.9786 L81.47053,163.2023 L82.29779,170.7166 L82.56484,174.4783 C82.56484,175.1519 82.49304,175.3343 82.31976,175.5225 L81.47572,176.0663 L80.22309,176.3249 C79.88367,176.2926 79.72205,176.0987 79.60468,175.7791 L79.30404,174.1183 L78.91209,170.2844 L78.5075,164.7135 L78.04337,158.1353 L77.73428,153.3585 L77.70204,149.9346 L77.78976,147.7594 L77.75947,147.0865 L76.90349,146.144 L73.44514,142.6028 L70.51225,139.4032 L69.51436,138.0367 L70.62691,137.9052 C71.52633,137.7486 72.44488,137.4613 73.45892,136.9515 z" stroke="Black" stroke-width="0" fill="#CA986C" fill-opacity="1.0" />
  <path d="M71.35518,134.3587 C70.27119,134.2595 69.17025,133.9475 68.35952,133.4481 C67.48982,132.9124 66.95409,132.161 66.56795,131.2739 C66.1818,130.3868 65.94524,129.364 65.86589,128.2006 L65.85204,126.3052 C66.52333,127.7994 67.05289,128.5425 67.58184,129.3103 L69.80801,132.4066 z" stroke="Black" stroke-width="0" fill="#CA986C" fill-opacity="1.0" />
  <path d="M62.54592,126.101 C62.02777,124.9986 61.82864,124.3122 61.63115,123.5104 L60.76255,119.3002 L60.01583,114.9748 C59.85239,114.0111 59.81858,113.8477 60.044,113.7322 L61.04433,113.4983 L61.52618,113.4504 L61.86713,114.152 L62.41097,116.5021 L63.35201,119.5286 L63.4431,119.7981 L62.60379,125.4777 z" stroke="Black" stroke-width="0" fill="#CA986C" fill-opacity="1.0" />
  <path d="M67.59757,141.7244 C67.32129,140.6683 67.33229,140.4947 67.41767,140.2824 L67.83858,139.6409 L68.35897,139.3123 L68.76186,139.3501 L69.29294,139.9609 L70.3724,142.3474 L72.39954,147.7717 L74.86476,155.5109 L77.18395,161.7641 L77.77663,163.6023 L77.4717,164.1606 L76.43237,164.8822 L75.68507,165.2429 L75.27277,165.1484 L74.68438,163.9416 L73.0406,159.4043 L70.94718,152.6773 L69.0348,146.6438 z" stroke="Black" stroke-width="0" fill="#CA986C" fill-opacity="1.0" />
  <path d="M104.7936,135.8911 L103.4001,140.5727 L100.9621,149.7916 L99.4464,155.9797 C98.93276,158.3049 98.2934,161.5005 97.71511,165.3531 L96.29636,176.9719 L95.64176,183.6553 C95.43973,185.0776 95.16496,185.9181 94.85786,186.5161 C94.55077,187.1141 94.21135,187.4697 93.87193,187.5748 C93.53251,187.6798 93.19309,187.5343 92.96681,187.2838 L92.55466,186.2494 L92.49001,184.2775 L92.76477,179.9621 L93.24158,174.2646 L94.15478,166.8621 L95.27924,159.9483 L96.37483,155.0587 L97.82362,149.5029 L99.08295,144.8379 C99.48301,143.3316 99.8935,141.7243 100.885,139.077 L101.4372,137.6434 L101.7132,137.5497 L103.623,136.6364 z" stroke="Black" stroke-width="0" fill="#CA986C" fill-opacity="1.0" />
  <path d="M118.4832,135.6454 L118.6254,135.6173 L120.579,135.361 L121.5515,135.5188 L122.647,136.2262 L123.2198,136.7999 L123.1894,137.1242 L122.5041,137.3877 L120.1548,137.9746 L116.7181,139.1398 C115.5988,139.6438 114.63,140.2722 113.3145,141.1844 L109.1249,144.1898 L106.262,146.4331 L103.5961,148.9031 L102.0375,150.9367 L101.5827,151.5394 L101.4404,151.2917 L101.4958,150.2046 L101.7591,148.84 L102.0337,148.3037 L102.8753,147.3346 L104.6298,145.7269 L107.2582,143.339 L110.4249,140.5318 L113.2286,138.2859 L114.2038,137.6263 L115.4474,137.2984 C116.228,137.0359 117.0816,136.6707 117.9467,136.0561 z" stroke="Black" stroke-width="0" fill="#CA986C" fill-opacity="1.0" />
  <path d="M110.3863,81.77525 L110.5286,81.41135 L111.2953,81.34097 L112.7329,81.53265 L114.7455,82.09721 L116.7342,82.89538 L118.2991,83.84329 L119.1392,84.87058 C119.3309,85.24945 119.4657,85.68372 119.4402,86.16742 C119.4147,86.65112 119.2291,87.18423 118.9131,87.75927 C118.5971,88.3343 118.1509,88.95128 117.6761,89.22981 C117.2014,89.50835 116.6983,89.44845 116.2745,89.30469 C115.8507,89.16093 115.5063,88.93331 115.0765,88.49304 L113.7946,86.89371 L113.1851,85.60286 C113.0713,85.17757 113.0024,84.68639 112.7074,84.26559 L111.4675,83.16642 L110.5525,82.30386 z" stroke="Black" stroke-width="0" fill="#CA986C" fill-opacity="1.0" />
  <path d="M73.01596,69.68629 C78.09789,68.23386 80.52389,68.24534 82.33176,68.34019 C84.13963,68.43503 85.32938,68.61323 86.179,68.80174 C87.02863,68.99026 87.53812,69.18909 88.21564,69.62937 L90.28498,71.35847 C90.83121,71.96557 91.07811,72.49802 91.16994,72.92683 C91.26176,73.35563 91.19853,73.68079 91.10311,73.77402 C91.00769,73.86725 90.88008,73.72855 90.74384,73.4998 L90.16864,72.61439 L88.89761,71.61496 L86.98053,70.80914 L84.22028,70.159 C83.11429,70.00296 81.79717,69.93613 80.09924,69.99834 C78.40131,70.06055 76.32258,70.2518 70.20716,72.20723 z" stroke="Black" stroke-width="0" fill="#CA986C" fill-opacity="1.0" />
  <path d="M50.44286,97.52889 L48.01546,101.1425 C46.89874,102.9251 45.9544,104.5652 44.66412,107.2011 C43.37383,109.837 41.73759,113.4687 40.25101,117.5493 C38.76443,121.6299 37.4275,126.1595 36.53954,130.31 C35.65158,134.4604 35.21259,138.2318 34.95319,141.8933 C34.69379,145.5549 34.61397,149.1068 34.89333,152.8083 C35.17268,156.5098 35.81121,160.3609 36.55679,163.368 C37.30236,166.3751 38.15496,168.5381 38.83673,170.1002 L40.3348,173.3532 C40.64015,174.0831 40.73992,174.582 40.68006,174.8813 C40.6202,175.1806 40.4007,175.2803 40.11137,175.3003 L39.00391,175.0309 L37.50735,173.9833 C37.02845,173.5643 36.62937,173.1253 36.02077,171.7485 L33.68177,165.2074 C32.76949,162.3578 31.76304,158.9734 31.16818,155.0228 C30.57332,151.0722 30.39003,146.5555 30.57332,142.5494 C30.7566,138.5433 31.30646,135.0477 32.03961,131.2445 C32.77275,127.4413 33.68919,123.3305 34.91983,119.3571 C36.15047,115.3837 37.69531,111.5478 39.57238,107.4229 C41.44946,103.298 43.65876,98.88421 46.36353,94.51148 L48.85497,90.68189 L48.30569,87.92161 C47.70873,84.68687 47.28659,81.4014 47.02917,77.8813 C46.77174,74.36121 46.67904,70.60648 46.79492,66.57363 C46.9108,62.54079 47.23529,58.22981 47.74519,54.31285 C48.25509,50.39589 48.95041,46.87294 50.2614,42.46834 C51.5724,38.06375 53.49907,32.77751 55.02502,29.17235 C56.55097,25.56719 57.67621,23.64313 58.79285,21.74912 L62.0372,16.49212 C63.05685,14.99306 63.98807,13.8589 65.33034,12.51257 C66.67261,11.16624 68.42592,9.60774 70.23141,8.372771 C72.0369,7.137802 73.89457,6.22636 75.19563,5.735851 C76.4967,5.245342 77.24116,5.175766 77.70036,5.231427 C78.15956,5.287087 78.3335,5.467984 78.33939,5.696611 C78.34529,5.925239 78.18314,6.201595 77.7695,6.475265 L75.79155,7.549563 C74.89238,8.079209 73.75919,8.86752 72.4166,10.03767 C71.074,11.20782 69.52201,12.75981 68.06565,14.44329 C66.60928,16.12677 65.24854,17.94174 63.66426,20.49482 C62.07998,23.04789 60.27215,26.33907 58.63648,30.48706 C57.00081,34.63505 55.5373,39.63985 54.7034,43.00778 C53.8695,46.37571 53.66521,48.10676 53.56326,49.12811 L53.4937,50.55862 C53.52571,50.65612 53.58934,50.53947 53.84384,50.05167 L55.15349,47.82473 L57.28498,45.27437 L59.63917,43.15878 C60.52464,42.44828 61.57448,41.66356 62.93678,40.93101 C64.29909,40.19847 65.97386,39.5181 67.38641,39.04098 L70.72991,38.16899 L72.1861,38.15073 L72.63346,38.45201 L72.66541,38.82405 L72.30936,39.20522 L71.52746,39.74572 L71.24605,40.37393 L71.22192,41.6973 L71.35658,43.14437 L71.58026,44.22852 L72.05044,44.69414 L72.89265,44.79913 C73.17339,44.81054 73.4062,44.81511 73.8353,44.51383 L75.60647,42.85906 L77.69717,40.53555 L78.87948,39.04055 L79.60529,38.57494 L80.06752,38.69807 L80.73372,39.27336 C80.88055,39.43362 80.85689,39.48507 80.7125,39.87135 L80.00077,42.06568 L79.18954,45.74012 L79.06758,48.24807 L79.35921,49.23958 C79.50767,49.37744 79.70915,49.35623 80.0591,49.25019 C80.40904,49.14414 80.90746,48.95326 81.63916,48.18444 C82.37086,47.41562 83.33587,46.06886 84.38571,44.51 L87.9435,38.72528 L92.20648,30.43791 L95.27647,23.37535 L97.84484,17.06783 L100.7262,11.01454 L101.9418,8.694311 L102.3429,8.269094 L102.8606,8.370777 L104.1695,9.034485 L104.5134,9.366486 L103.8803,10.72217 L101.301,16.33261 C100.3403,18.69754 99.47808,21.30882 98.91038,24.17266 C98.34267,27.0365 98.06948,30.1529 97.90282,32.49705 L97.69321,37.36224 L97.91534,38.93089 C98.0258,39.22398 98.15224,39.48376 98.4549,39.55379 C98.75758,39.62381 99.23647,39.50409 99.71537,39.15489 L101.3616,37.42886 L104.0753,34.12645 L107.7967,28.80569 L111.1604,23.48551 L114.1971,18.44439 L117.5374,12.6624 L119.0119,10.26416 C119.2356,9.956778 119.2984,9.945684 119.6516,10.13981 L120.9934,10.94954 C121.3388,11.16582 121.3862,11.19904 121.1266,11.78225 L119.623,14.91516 C118.9455,16.33166 118.1572,18.03145 117.5167,20.34712 C116.8762,22.66278 116.3835,25.59431 116.0648,28.31795 C115.7461,31.04159 115.6013,33.55733 115.6402,35.27996 C115.6791,37.0026 115.9017,37.93212 116.1439,38.60636 C116.3861,39.28059 116.6479,39.69953 116.9818,40.00064 C117.3156,40.30176 117.7215,40.48504 118.2321,40.36722 C118.7426,40.24939 119.358,39.83045 120.4577,38.83546 C121.5574,37.84048 123.1415,36.26945 124.7976,34.29258 L129.5827,28.10011 L132.7706,24.26418 C133.4841,23.54412 133.8376,23.38702 134.1649,23.32811 C134.4922,23.26919 134.7933,23.30847 134.8391,23.74705 C134.885,24.18563 134.6755,25.02351 134.3547,26.52908 L133.2747,31.95567 L132.7052,35.96834 C132.6855,36.91095 132.8688,37.47391 133.0783,37.84048 C133.2878,38.20705 133.5234,38.37725 133.818,38.40998 C134.1125,38.44271 134.466,38.33797 135.2188,37.8012 L138.1841,35.21555 C139.2446,34.13547 140.2134,32.94411 141.4505,31.07851 L145.5169,24.41206 L148.6886,18.90798 L149.8282,16.82144 C149.9906,16.53522 150.0445,16.50228 150.624,16.63855 L152.9174,17.30224 C153.5262,17.52416 153.6385,17.66251 153.5222,18.40914 L152.5438,22.56768 C152.0264,24.62468 151.3367,27.38376 150.5943,32.20533 C149.8519,37.0269 149.0569,43.91095 148.6435,47.46431 C148.2301,51.01768 148.1983,51.24038 148.3786,51.27749 L149.8632,50.93285 L153.7816,50.13752 L158.5695,49.63911 L162.3712,49.58608 L164.8367,49.78757 L166.263,50.26477 C166.5758,50.48746 166.7243,50.78439 166.7826,51.00708 C166.8409,51.22977 166.8091,51.37823 166.6448,51.47367 L165.6586,51.63804 L163.3521,51.64334 L159.5504,51.66455 C158.0817,51.79181 156.4486,52.12054 154.824,52.59182 L150.4335,54.16553 C149.2837,54.65417 148.6002,55.01764 148.2385,55.36898 C147.8769,55.72032 147.837,56.05954 147.7472,58.67353 L147.2683,71.41425 L146.3438,85.78246 C146.028,89.32556 145.7555,90.82461 145.1579,92.61867 C144.5604,94.41273 143.6378,96.50181 142.8902,98.12428 C142.1426,99.74677 141.5699,100.9026 140.7029,102.0721 C139.8358,103.2416 138.6742,104.4246 138.038,105.0919 L137.2114,105.9663 L136.9544,105.7407 L136.483,104.7017 L136.2385,103.8443 C136.1771,103.6229 136.106,103.4573 136.521,102.6611 C136.936,101.865 137.8371,100.4382 138.6068,98.67345 C139.3766,96.90874 140.0149,94.80609 140.4467,93.3793 C140.8784,91.95251 141.1037,91.20156 141.4041,89.21156 C141.7045,87.22156 142.08,83.9925 142.4723,78.69161 L143.4759,62.29043 L143.6415,58.43911 L142.9136,58.98652 C142.2757,59.57516 141.0585,60.75246 139.7515,62.38869 C138.4445,64.02493 137.0478,66.12012 135.8206,68.06564 L132.8529,73.04184 L131.496,75.93248 L130.4373,78.92091 C130.1667,79.63663 130.0484,79.77752 129.8821,79.81979 C129.7159,79.86206 129.5017,79.8057 129.1918,79.43938 L128.1689,77.89804 L127.5293,76.76246 C127.4053,76.44686 127.3658,76.1369 127.4616,75.56489 L128.0985,73.21483 L129.3468,70.10114 L131.5672,66.45488 L134.8387,62.22816 L137.8932,58.73688 L140.7336,56.21775 L143.0836,54.32418 L143.9628,53.64227 C144.0868,53.5211 144.1262,53.41402 144.279,51.61117 L145.0995,42.74476 L146.3329,33.55955 L146.7049,31.01793 C146.7283,30.81229 146.7219,30.74792 146.6217,30.80463 L145.8831,31.63716 L143.693,34.52222 L139.9352,38.56293 C138.6341,39.81556 137.438,40.80149 136.2339,41.28637 C135.0298,41.77126 133.8175,41.7551 132.8316,41.49649 C131.8457,41.23788 131.086,40.73684 130.5688,40.2762 C130.0516,39.81556 129.7768,39.39532 129.5586,38.82154 C129.3404,38.24776 129.1788,37.52043 129.1546,36.54258 C129.1303,35.56473 129.2435,34.33635 129.4987,33.28051 L130.3443,30.86436 L130.4854,30.31037 L129.8525,31.03956 L127.1805,34.69515 C126.0153,36.37746 124.6668,38.44598 123.4231,39.93191 C122.1793,41.41784 121.0403,42.32118 120.0192,42.8514 C118.998,43.38163 118.0947,43.53873 117.3484,43.56491 C116.6022,43.59109 116.0131,43.48636 115.4894,43.23761 C114.9657,42.98887 114.5075,42.59611 114.1278,42.18372 L113.0648,40.52786 C112.6826,39.71644 112.2192,38.52562 111.9679,37.36726 C111.7166,36.2089 111.6773,35.083 111.8104,33.29599 L112.5867,27.17473 L113.4571,23.29958 C113.6197,22.63469 113.5746,22.62906 113.5239,22.69105 L112.9368,23.79167 L110.3696,28.51644 L106.5349,35.2355 L103.6284,39.79877 C102.8217,40.85196 102.1201,41.47373 101.3622,41.91333 C100.6044,42.35293 99.79038,42.61036 98.99374,42.67646 C98.1971,42.74255 97.41785,42.61732 96.73601,42.29853 C96.05417,41.97974 95.46973,41.46739 95.04532,40.91426 C94.62091,40.36113 94.35652,39.76723 94.1791,38.93106 C94.00169,38.09489 93.91124,37.01647 94.00457,35.64034 L94.50795,31.6407 L94.55916,30.43464 L94.00687,31.19827 L92.60057,33.96094 L90.96983,37.55542 L88.00253,43.3407 L85.19432,48.26325 C84.37608,49.52007 83.68221,50.33177 82.9687,50.99946 C82.25519,51.66714 81.52204,52.19082 80.71689,52.51157 C79.91174,52.83232 79.03458,52.95015 78.29488,52.87815 C77.55519,52.80614 76.95296,52.5443 76.53403,52.05336 C76.11508,51.56241 75.87943,50.84236 75.76815,50.11576 C75.65687,49.38916 75.66996,48.65601 75.80966,47.72999 L76.35204,45.08187 L76.4852,44.35371 C76.47565,44.31631 76.45018,44.32904 76.35627,44.40624 L75.78664,44.8837 L74.57147,45.75554 C74.13406,45.99323 73.72364,46.09306 73.1006,46.12819 C72.47757,46.16331 71.64192,46.13373 71.11959,45.94475 C70.59726,45.75576 70.38824,45.40738 70.17509,44.96195 C69.96194,44.51652 69.74467,43.97404 69.66786,43.31101 L69.65473,41.45164 C69.65473,41.03889 69.59106,40.99696 69.4395,41.01591 L68.39001,41.46387 L65.42682,43.25974 C64.19964,44.08784 62.8228,45.12545 61.33622,46.57213 C59.84964,48.0188 58.25331,49.87453 57.04371,51.46089 C55.83412,53.04724 55.01126,54.36421 54.20312,56.41949 C53.39497,58.47476 52.60155,61.26834 52.20484,64.53084 C51.80812,67.79334 51.80812,71.52477 52.25096,76.32082 L53.24224,84.58071 L54.9435,82.35635 C57.61845,78.90559 59.7681,76.33569 62.27334,73.75772 C64.77859,71.17975 67.6394,68.59369 70.28204,66.39555 C72.92466,64.1974 75.34908,62.38716 78.16142,60.60117 C80.97375,58.81517 84.174,57.05342 86.86839,55.81917 C89.56277,54.58492 91.75131,53.87817 93.83717,53.41599 C95.92303,52.9538 97.90622,52.73618 99.2803,52.66215 L102.0366,52.74192 L103.6948,53.09821 L105.2857,53.69473 L105.656,54.04376 L105.6172,54.15237 L104.8231,54.22049 L101.846,54.48832 C100.7331,54.60673 99.71858,54.74479 98.43098,55.13757 L93.68912,56.99214 L87.8278,59.70754 L87.36358,59.94934 L84.03984,61.84286 L80.4895,64.14128 L80.16891,64.35982 C77.7686,66.00191 75.13271,67.9345 73.12249,69.5979 L73.01596,69.68629 L70.20716,72.20723 L68.6828,73.7208 L67.9534,74.46263 L65.87116,76.59526 L63.81205,78.76579 L62.73262,79.9511 L61.15754,81.76571 L58.82114,84.61852 L58.04453,85.61179 L58.04457,85.65996 L58.37566,85.50596 L60.14174,84.62424 L62.97405,83.43548 L66.3573,82.69412 L69.94906,82.21101 L73.75264,82.35164 C75.09484,82.49769 76.53768,82.7244 77.65157,83.05521 C78.76547,83.38603 79.55043,83.82097 80.23857,84.39407 L81.97395,86.24527 L82.90681,87.63491 C83.06332,88.03546 83.05588,88.41427 82.99516,88.68127 L82.68491,89.17912 L82.2658,89.2205 L81.95889,89.00923 L81.27644,88.22226 L78.99692,86.44595 C78.21749,85.89451 77.63425,85.54456 76.3299,85.23174 C75.02556,84.91891 73.00011,84.64319 71.02238,84.77044 C69.04465,84.8977 67.11464,85.42792 65.13692,86.15432 C63.15919,86.88072 61.13374,87.80331 59.73925,88.55623 C58.34477,89.30914 57.58125,89.89239 56.34827,91.02301 L54.45045,92.85308 L54.82471,95.92366 L54.751,98.3296 L54.42619,101.2177 C54.32458,102.0289 54.25649,102.4776 54.07068,102.7296 C53.88487,102.9815 53.58135,103.0368 53.32975,103.0533 L52.70101,102.9792 L52.21478,102.652 L51.71561,101.8996 L51.0662,99.99731 z" stroke="Black" stroke-width="0" fill="#DE8139" fill-opacity="1.0" />
  <path d="M80.67928,89.11253 C80.81239,89.36766 80.7292,90.07204 80.64693,90.52222 C80.56466,90.97239 80.48331,91.16836 80.21929,91.45142 L78.99169,92.63115 L76.89984,95.23354 C75.91188,96.62656 74.52298,98.72974 73.43942,100.6892 C72.35587,102.6488 71.57765,104.4646 70.78947,106.5598 L68.47478,113.2444 C67.74646,115.4593 67.08797,117.5146 66.67753,119.3521 C66.26708,121.1896 66.10468,122.8093 65.98454,124.2712 L65.85204,126.3052 L65.86589,128.2006 C65.94524,129.364 66.1818,130.3868 66.56795,131.2739 C66.95409,132.161 67.48982,132.9124 68.35952,133.4481 C69.17025,133.9475 70.27119,134.2595 71.35518,134.3587 L71.59132,134.377 C72.74975,134.45 73.86296,134.2761 74.96922,133.6917 C76.07547,133.1072 77.17477,132.1123 77.99416,131.3934 L79.9463,129.7043 L81.83716,127.8827 L83.60439,125.9972 C84.06706,125.5449 84.33841,125.3918 84.70716,125.2666 L85.89342,124.9953 L86.6648,124.9892 L87.05304,125.2541 L87.05351,125.7885 L86.43047,126.4171 L85.23062,126.8996 L84.09548,127.347 L83.26723,128.0495 L82.60907,129.12 L82.50184,130.3346 C82.5684,130.7302 82.73109,131.1 83.0158,131.4106 C83.30051,131.7212 83.70724,131.9726 84.20456,132.0946 C84.70187,132.2167 85.28979,132.2093 85.94794,131.9356 C86.60611,131.662 87.33453,131.1222 87.81335,130.6045 C88.29218,130.0869 88.52143,129.5914 88.67858,129.144 L88.91522,127.9941 C88.90968,127.6909 88.81354,127.4838 88.61387,127.347 L87.92059,126.992 L87.65067,126.3708 L87.86697,125.7515 L88.53807,125.513 L89.66767,125.7718 L90.86248,126.4333 L91.88829,127.3049 L92.47758,128.1249 C92.61284,128.3222 92.70301,128.4011 93.01861,128.3898 L94.39088,128.1136 L96.13793,127.4007 L98.5888,126.2771 L100.1107,125.3613 L101.0118,125.0294 L101.8768,125.1168 L102.9758,125.8015 C103.2886,126.1284 103.4745,126.5454 103.4717,127.0019 C103.4689,127.4584 103.2773,127.9543 103.0716,128.3404 L102.3531,129.4309 L101.4316,130.9919 L100.9582,132.4854 L101.0456,133.4406 L101.4767,133.8858 C101.688,133.9563 101.9811,133.9507 102.432,133.7619 L103.2011,133.344 L104.1818,132.584 L106.2895,130.4171 L106.6164,130.0724 L107.876,128.8307 L109.0228,127.9487 L110.3021,127.4302 C110.7163,127.3626 111.077,127.4415 111.4884,127.6867 C111.8998,127.9318 112.3619,128.3432 112.6719,129.0448 C112.9819,129.7465 113.1397,130.7383 113.2946,131.5273 C113.4496,132.3163 113.6018,132.9024 113.8582,133.2885 C114.1146,133.6745 114.4753,133.8605 114.8867,133.9337 C115.2981,134.007 115.7602,133.9676 116.29,133.6999 C116.8197,133.4322 117.4171,132.9362 118.1554,132.1642 L120.3589,129.5915 L121.6579,127.9656 C122.0778,127.5486 122.6244,127.171 123.1852,126.9878 C123.7459,126.8047 124.3208,126.8159 124.8139,126.8808 L125.9269,127.2555 C126.1354,127.4471 126.1411,127.712 126.0171,127.8839 L125.1962,128.2623 L123.7451,128.7984 C123.37,129.0306 123.2529,129.3188 123.2255,129.642 L123.4103,130.5789 C123.5599,130.8342 123.7966,130.9863 124.1094,131.0173 L125.5296,130.7919 C126.2481,130.6256 127.2964,130.3833 128.1502,129.986 C129.004,129.5887 129.6633,129.0364 130.3086,128.3742 L132.2332,126.3341 L134.1831,124.897 L135.9922,123.8854 L137.5673,123.288 L138.948,123.2683 C139.3679,123.3782 139.7399,123.6149 140.109,123.9784 C140.4781,124.3419 140.8444,124.8322 140.929,125.3028 C141.0135,125.7734 140.8163,126.2242 140.5782,126.682 L139.7781,127.9284 L138.8078,128.6813 L137.1394,129.6581 L134.7109,130.8861 C134.0444,131.1645 133.7157,131.1919 133.3186,131.1645 C132.9215,131.1371 132.4558,131.055 132.1135,130.8085 L131.8958,131.3086 L131.7957,131.8365 L132.0123,132.706 C132.1935,132.9621 132.52,133.1029 133.0261,133.1823 C133.5323,133.2616 134.2182,133.2796 135.0687,133.046 C135.9193,132.8124 136.9346,132.3272 138.2073,131.5925 L142.3864,128.9559 L145.9354,126.5054 L148.0425,124.9545 L149.1199,124.3014 L150.0504,124.2975 L150.7123,124.6923 L150.8595,124.9557 L150.5849,125.1648 L149.4831,126.2853 L148.2355,128.1941 L147.8382,129.5101 L147.8297,130.0736 C147.8579,130.1469 147.9142,130.1074 148.5652,129.5016 L151.3942,126.9177 L153.5104,125.3735 L155.2434,124.7846 C155.9056,124.6521 156.7227,124.5451 157.2919,124.6381 C157.8611,124.731 158.1824,125.0241 158.591,125.458 L159.7603,126.9656 C160.0252,127.4643 160.059,127.887 160.059,128.3519 L159.9238,129.6876 L159.3574,130.5555 L158.3176,131.3839 L157.616,131.6206 L157.2891,131.5163 L157.0947,131.0373 L156.7453,129.9581 L156.8354,129.3438 L157.2976,128.9042 L157.2046,128.4337 L156.7509,127.9095 L155.9056,127.9546 L154.5333,128.9042 L151.9324,131.4854 L148.9906,134.8836 C148.2242,135.6924 147.8353,135.8727 147.4099,136.0277 L146.0798,136.3686 C145.6375,136.425 145.2148,136.4081 144.8682,136.2503 C144.5216,136.0925 144.2511,135.7938 144.0707,135.4303 L143.7608,134.1792 L143.8312,132.7449 L144.4004,131.274 L145.4233,129.7918 L146.2743,128.7746 L146.4377,128.2674 L146.3109,127.8419 L146.077,127.7376 L145.2937,128.3294 L142.3011,130.764 L138.5929,133.9002 C137.4432,134.7794 136.4683,135.3317 135.6596,135.7684 C134.8508,136.2052 134.2084,136.5264 133.5687,136.6335 C132.9291,136.7406 132.2923,136.6335 131.6019,136.4673 C130.9115,136.301 130.1676,136.0756 129.6492,135.636 C129.1307,135.1964 128.8376,134.5427 128.7038,133.903 C128.5699,133.2634 128.5953,132.6378 128.6798,131.6741 C127.9299,132.0264 127.311,132.1443 126.802,132.2396 L125.5454,132.443 L124.5084,132.4445 L123.3631,132.2963 L122.9386,132.0939 L122.6839,131.6388 L122.4409,131.0445 L122.3687,130.8795 L122.2881,130.9929 L121.821,131.8001 L120.3665,133.785 L118.4832,135.6454 L117.9467,136.0561 C117.0816,136.6707 116.228,137.0359 115.4474,137.2984 L114.2038,137.6263 L113.2791,137.691 C112.5989,137.6613 111.9462,137.4422 111.5021,137.2675 L110.5866,136.6849 L109.9476,135.5216 C109.7812,135.0613 109.6851,134.5658 109.7258,133.9982 L110.0456,132.3898 L110.1732,131.7335 L110.1103,131.6115 L109.9199,131.6743 L109.2673,132.2012 L107.6182,133.6895 L105.5808,135.3238 L104.7936,135.8911 L103.623,136.6364 L101.7132,137.5497 L101.4372,137.6434 L100.2305,137.8548 L98.7755,137.7235 C98.3928,137.5978 98.20052,137.3759 98.04893,137.0524 L97.7106,135.7361 L97.6385,133.6821 L97.97394,131.362 L98.50428,129.6582 L98.92918,128.6739 L99.01753,128.3579 L98.53533,128.4807 L97.01088,129.1067 L95.10156,129.8704 L93.78076,130.107 L92.68009,129.8375 L92.05563,129.5844 L91.73067,129.502 L91.57644,129.6098 L91.38238,130.0553 L90.98463,131.1187 L90.09966,132.6754 L88.33778,134.367 L86.57035,135.3191 L84.68275,135.6907 C84.06157,135.7369 83.48106,135.7073 82.9597,135.4947 C82.43835,135.2821 81.97616,134.8865 81.63783,134.4761 L80.92051,133.2189 L80.58218,132.0338 L80.49091,131.2955 C80.46249,131.1766 80.40936,131.2123 80.22511,131.4145 L79.16844,132.5656 L76.82541,134.7333 C75.83813,135.5292 74.66231,136.3293 73.59432,136.8824 L73.45892,136.9515 C72.44488,137.4613 71.52633,137.7486 70.62691,137.9052 L69.51436,138.0367 L68.04218,138.02 L66.19494,137.533 C65.6105,137.2755 64.97736,136.9207 64.42076,136.1414 C63.86415,135.3622 63.38408,134.1585 63.07795,133.0453 L62.54221,129.8448 C62.45448,128.8861 62.39497,127.8934 62.54592,126.101 L62.60379,125.4777 L63.4431,119.7981 L63.93969,117.4628 C64.54818,114.9307 65.25935,113.1528 66.05132,111.3021 L68.64545,105.5239 C69.57482,103.5197 70.56075,101.4347 71.73256,99.43859 C72.90437,97.44248 74.26205,95.53526 75.53383,93.93116 L78.78225,90.26281 C79.57301,89.49954 79.96865,89.27399 80.23302,89.1529 z M133.2333,128.7411 L133.2483,129.0046 L133.4654,129.0451 L134.1902,128.8459 L135.7281,128.0956 L137.639,126.8377 L138.6273,125.8075 L138.8385,125.3477 L138.7576,125.1545 L138.1855,125.186 L137.2182,125.6218 L135.8255,126.399 L133.8727,127.8755 C133.392,128.3188 133.2782,128.5793 133.2333,128.7411 z" stroke="Black" stroke-width="0" fill="#DE8139" fill-opacity="1.0" />
</svg>