<?xml version="1.0" encoding="UTF-8" standalone="no"?>
<!DOCTYPE svg PUBLIC "-//W3C//DTD SVG 1.1//EN" "http://www.w3.org/Graphics/SVG/1.1/DTD/svg11.dtd">
<svg width="96pt" height="96pt" viewBox="0 0 96 96" overflow="visible" version="1.1" xmlns="http://www.w3.org/2000/svg">
  <path d="M38.10406,33.70321 L40.12423,32.25941 C42.56452,31.63871 43.60785,31.50115 44.48219,31.43223 L46.7465,31.40745 L48.56973,31.64162 L49.57523,31.98832 L50.18647,32.47812 L50.51401,33.11741 L50.50626,33.56889 C50.48618,33.67441 50.47805,33.73588 50.43753,33.68137 L50.24845,33.3018 L49.92325,32.85519 L49.19914,32.41156 L48.26705,32.15747 L47.10295,32.02988 C46.61235,31.99381 45.97549,31.9573 43.54194,32.33957 C44.88875,32.44787 45.41229,32.67189 45.8205,32.87183 L46.7632,33.41955 L47.33127,33.91967 L47.61494,34.37754 L47.7291,34.83763 L47.64972,35.3604 C47.62304,35.48972 47.62131,35.53199 47.6062,35.51754 L47.51762,35.30284 L47.26055,34.77573 L46.65672,34.13565 L45.90977,33.63831 L44.54014,33.23359 L42.70619,33.04625 C41.91496,33.02244 40.85881,33.034 38.10406,33.70321 z" stroke="Black" stroke-width="0" fill="#CA986C" fill-opacity="1.0" />
  <path d="M48.84549,44.08284 L48.77369,42.98127 L48.91543,42.82602 L49.23444,42.84738 L49.59373,43.23506 L49.9259,43.95475 L50.45671,45.8761 L51.4988,50.14867 L51.99054,52.31752 L52.37481,52.97533 L53.41951,53.73239 L55.17128,55.35223 L56.75479,56.85168 C57.06841,57.19492 57.05923,57.31787 57.05123,57.46791 L57.09774,58.03353 L57.45882,58.97712 L57.97546,60.19322 L58.27069,60.69396 L58.75781,61.13112 L59.74517,61.80962 L60.8734,62.47704 L61.25003,62.77492 L61.24097,63.03621 L60.98331,63.33914 L60.55305,63.53767 L60.08737,63.50447 L59.17474,63.06643 L58.15841,62.38304 L57.42878,61.58889 L56.62469,60.06014 L56.2028,58.85402 L55.88514,58.27329 L55.10091,57.46921 L53.29421,55.91068 L51.34357,54.24792 C50.89686,53.80618 50.78766,53.54808 50.52956,52.62487 L49.53687,48.44067 z" stroke="Black" stroke-width="0" fill="#CA986C" fill-opacity="1.0" />
  <path d="M42.03395,31.01704 L43.70349,30.06525 L43.93444,29.94497 C45.27834,29.55525 46.49167,29.59357 47.33769,29.66095 L49.06341,29.91881 L50.09276,30.2345 L50.9248,30.76078 L51.44829,31.45693 C51.53845,31.6377 51.52552,31.71178 51.43732,31.64736 L50.92558,31.19415 L49.89581,30.70624 L48.45969,30.4057 L46.48952,30.31291 C45.71158,30.33116 44.79411,30.40914 42.03395,31.01704 z" stroke="Black" stroke-width="0" fill="#CA986C" fill-opacity="1.0" />
  <path d="M63.94456,62.17102 L64.73016,61.02618 L66.25398,59.08081 L66.74537,58.2304 L66.63675,57.48025 L65.92017,55.30585 L64.3723,49.49608 L62.5743,41.90016 L61.67999,37.70731 L61.38202,36.09486 L61.30663,35.2848 L61.41597,34.92732 L61.75909,34.78064 L62.1945,34.88015 L62.65917,35.98939 L63.6592,39.32372 L65.09552,44.51363 L67.28893,53.31018 L68.10352,56.64396 L68.25668,57.74409 L67.87537,58.57084 L66.70057,60.33686 L65.45151,62.00777 L64.68353,62.67641 L64.06362,62.74172 L63.80242,62.55869 z" stroke="Black" stroke-width="0" fill="#CA986C" fill-opacity="1.0" />
  <path d="M31.9869,39.42619 C35.72274,38.2911 37.08473,38.37909 38.08585,38.51574 L40.2015,39.03539 L41.2721,39.6623 L42.0261,40.39656 L42.42069,41.35069 L42.47509,42.15825 L42.40343,42.43451 L42.29239,42.35264 L42.10824,41.9644 L41.82385,41.37887 L41.23062,40.67935 L39.9873,39.86775 C39.44044,39.61803 38.75292,39.41842 37.53236,39.36775 C36.31179,39.31708 34.55819,39.41536 30.66632,40.91862 L31.4499,40.01587 z" stroke="Black" stroke-width="0" fill="#CA986C" fill-opacity="1.0" />
  <path d="M58.30791,27.39693 L58.22827,27.32773 L58.62279,26.83694 L59.47304,25.92634 L60.48367,24.97629 L61.65227,23.94222 L62.71163,23.04072 L63.23387,22.67717 L63.51249,22.69058 L64.00027,22.94067 L64.21223,23.19555 L64.21434,24.01284 L63.95462,25.75875 L63.46527,27.25917 L62.46701,28.99622 L61.32273,30.66507 L61.00489,31.12088 L61.09009,31.24672 L61.5508,31.62406 L62.22528,32.34282 L62.87364,33.39541 L63.04857,34.02958 L62.99834,34.42186 L62.72875,34.66027 L62.36748,34.76574 L61.70296,34.71082 L61.30891,34.48407 L60.77149,33.95326 L60.23496,33.5913 L60.07563,33.54043 L60.11311,33.72096 L60.30626,34.44387 L60.4816,35.39921 L60.57627,36.18844 L60.42883,36.47445 L59.98389,36.6782 L59.75039,36.73869 L59.49853,36.41697 L58.86037,35.2671 L58.68835,34.9085 L58.76285,34.785 L58.84014,34.71316 L58.90364,34.71476 L59.03881,34.81519 L59.23315,34.97865 L59.33825,35.05907 L59.3702,34.97792 L59.24333,34.50266 L59.02306,33.63427 L58.91417,32.8969 L58.90589,32.60627 L59.0089,32.50417 L59.34093,32.43612 L59.82655,32.45175 L60.3784,32.59431 L60.82723,32.92358 L61.08384,32.98796 L61.07698,32.72284 L60.74483,32.18023 L59.99726,31.46369 L59.00363,30.82544 L58.44351,30.62309 L58.15931,30.60102 L58.1124,30.51641 L58.24301,30.28923 L58.34142,30.15771 L58.50789,30.11632 L58.74611,30.09884 L59.05606,30.14115 L59.48466,30.36465 L59.99327,30.68748 L60.18134,30.79263 L60.41665,30.38074 L61.29117,28.70626 L62.31879,26.6617 L62.91671,24.76992 C63.01816,24.36897 63.01623,24.33947 62.97069,24.34107 L62.64068,24.524 L61.71352,25.29361 L60.22015,26.44934 L58.94346,27.19847 z" stroke="Black" stroke-width="0" fill="#CA986C" fill-opacity="1.0" />
  <path d="M57.31583,32.82015 L57.5007,32.86246 L57.62486,33.16229 L57.59635,33.87509 L57.30296,35.13054 L57.01691,36.38322 L56.7925,37.45288 L56.58464,37.83181 L56.18087,37.91183 L55.93898,37.84745 L55.83505,37.68649 L55.85252,37.31124 L56.019,36.75756 L56.40529,35.74952 L56.69868,34.36531 L56.82101,33.46397 L57.06198,33.02433 z" stroke="Black" stroke-width="0" fill="#CA986C" fill-opacity="1.0" />
  <path d="M54.35043,38.3271 L54.43317,38.21188 L54.68144,38.21814 L54.92509,38.30756 L55.09496,38.47369 L55.14263,38.89312 L55.21564,39.60756 L55.37656,40.0337 L55.45851,40.24379 L55.32441,40.39055 L55.1411,40.49905 L54.8906,40.39223 L54.52402,39.904 L54.3631,39.39517 L54.3117,38.78055 z" stroke="Black" stroke-width="0" fill="#CA986C" fill-opacity="1.0" />
  <path d="M34.41003,36.91638 C38.62422,36.36025 39.9809,36.47076 40.86345,36.57185 L42.5383,36.92118 L43.55055,37.58666 L44.09662,38.51058 L44.20213,39.17913 L44.11151,39.52116 L43.95945,39.36863 L43.63122,38.8361 L42.98062,38.26645 L41.61353,37.73711 L39.97298,37.46228 L37.69059,37.46782 C36.69797,37.53614 35.3989,37.68643 33.01128,38.34639 L34.04717,37.28543 z" stroke="Black" stroke-width="0" fill="#CA986C" fill-opacity="1.0" />
  <path d="M46.07484,28.93153 L46.85036,28.59408 L47.65191,28.25407 L49.32399,28.30888 L50.47123,28.57583 L51.13073,28.9126 L51.52758,29.31364 L51.6047,29.61574 C51.60003,29.67834 51.58507,29.69251 51.57258,29.68458 L51.51241,29.58731 L51.24557,29.33632 L50.60876,29.02229 L49.96664,28.80704 L48.76112,28.70008 z" stroke="Black" stroke-width="0" fill="#CA986C" fill-opacity="1.0" />
  <path d="M52.16664,34.00172 L51.97525,33.07478 L51.9081,31.72329 L52.0495,29.8514 L52.5138,28.21001 L53.28704,26.58347 L53.87957,25.66155 L54.73188,24.81836 L55.54404,24.32599 L56.14542,24.24889 L56.55055,24.42552 L56.8926,25.05634 L57.11128,26.44275 L57.27831,28.51103 L57.24043,29.94249 L57.08059,30.30945 L56.75232,30.4241 L56.45784,30.35893 L56.30939,30.0904 L56.24657,29.25241 L56.14469,27.67027 L56.06353,25.902 L55.9971,25.45109 L55.6894,25.71367 L54.96137,26.61052 L54.05517,28.24218 L53.54256,30.3468 L53.30367,32.2845 L53.3572,33.44873 L53.54343,34.38323 L53.60133,34.91463 L53.4276,35.01342 L53.06541,34.97647 L52.56115,34.82044 z" stroke="Black" stroke-width="0" fill="#CA986C" fill-opacity="1.0" />
  <path d="M61.86342,58.96742 L62.25455,58.32189 L62.7997,57.72481 L63.43831,57.40464 L64.10288,57.2835 L64.33479,57.03255 L64.38325,56.56355 L64.4144,56.27279 L64.62381,56.17934 L65.04955,56.21395 L65.33165,56.37317 L65.40434,56.75565 L65.5549,57.18658 L65.9443,57.46348 L66.21774,57.97229 L66.06544,58.42572 L65.5099,58.64033 L65.1257,58.6109 L64.63939,58.72686 L64.13058,59.15433 L63.73079,60.02139 L63.33274,60.46616 L62.92604,60.46616 L62.48991,60.55616 L62.00879,60.54578 L61.71631,60.16157 L61.63497,59.63199 z" stroke="Black" stroke-width="0" fill="#CA986C" fill-opacity="1.0" />
  <path d="M58.64565,57.13628 L58.8265,56.89914 L59.06543,56.84697 L59.31637,56.91396 L59.47421,57.06839 L59.57867,57.34545 L59.71038,58.04036 L60.17253,59.19514 L61.36592,60.59974 L62.24137,61.30146 L62.83069,61.41047 L63.13272,61.22198 L63.51425,61.21403 L63.80379,61.32644 L63.93778,61.50017 L63.91507,61.83287 L63.73453,62.0611 L63.34393,62.2882 L62.76596,62.54822 L62.03926,62.54822 L61.32504,62.20644 L60.59038,61.70342 L59.91591,61.02214 L59.14037,59.91845 L58.64985,58.81476 L58.53355,57.84954 z" stroke="Black" stroke-width="0" fill="#CA986C" fill-opacity="1.0" />
  <path d="M44.26881,40.46735 L44.63056,40.17209 L44.71931,40.32221 L44.71931,41.13216 L44.6847,42.96838 L44.68124,43.7766 L45.0066,44.31656 L46.11595,45.53667 L47.47278,47.21886 L48.38138,48.64146 L48.62194,49.22296 L48.52502,49.53102 L48.24466,49.86676 L47.95737,49.9083 L47.2703,49.47218 L45.90966,47.96102 L44.03259,45.90611 L43.26473,45.06074 L43.2412,44.37722 L43.42045,42.90609 L43.59727,41.47249 L43.76086,40.99388 z" stroke="Black" stroke-width="0" fill="#CA986C" fill-opacity="1.0" />
  <path d="M36.7861,68.37287 L37.54057,69.27299 L38.39148,70.12951 L39.34473,71.25237 L40.72974,72.88831 L41.59046,73.96491 L41.77129,74.51443 L41.62536,74.93358 L41.23802,75.18591 L40.79828,75.05975 L40.45778,74.66863 L40.21947,74.51583 L40.13956,74.642 L40.16859,75.26339 L40.3585,77.34111 L40.77177,81.4323 L41.18332,85.17056 L41.31618,87.04198 L41.19425,87.56146 L40.77435,87.83199 L40.15119,87.96065 L39.84353,87.68912 L39.69397,86.86289 L39.49898,84.95555 L39.2977,82.18412 L39.06681,78.91153 L38.91303,76.53513 L38.897,74.83179 L38.94064,73.74967 L38.92556,73.41487 L38.49973,72.94602 L36.77924,71.1843 L35.32016,69.59254 L34.82373,68.91272 L35.37721,68.84731 z" stroke="Black" stroke-width="0" fill="#CA986C" fill-opacity="1.0" />
  <path d="M35.73951,67.08298 C35.20024,67.03364 34.65254,66.87843 34.24921,66.62997 C33.81654,66.36346 33.55003,65.98964 33.35792,65.54832 L33.00866,64.01941 L33.00177,63.07645 L33.86232,64.57146 L34.96981,66.1118 z" stroke="Black" stroke-width="0" fill="#CA986C" fill-opacity="1.0" />
  <path d="M31.35702,62.97489 L30.90193,61.6861 L30.46981,59.59155 L30.09833,57.43974 L30.11234,56.82153 L30.60999,56.70518 L30.8497,56.68135 L31.01933,57.0304 L31.28988,58.19953 L31.75803,59.70519 L31.80335,59.83927 L31.3858,62.66481 z" stroke="Black" stroke-width="0" fill="#CA986C" fill-opacity="1.0" />
  <path d="M33.87015,70.74732 L33.78065,70.02991 L33.99004,69.71082 L34.24894,69.5473 L34.44936,69.56613 L34.71357,69.87001 L35.25059,71.05723 L36.25907,73.75577 L37.48549,77.60593 L38.63925,80.71684 L38.9341,81.6313 L38.78241,81.90907 L38.26535,82.26801 L37.89358,82.44749 L37.68846,82.40048 L37.39575,81.80009 L36.57799,79.54282 L35.53654,76.19624 L34.58515,73.19464 z" stroke="Black" stroke-width="0" fill="#CA986C" fill-opacity="1.0" />
  <path d="M52.37471,67.84534 L51.68144,70.17434 L50.4686,74.76064 L49.71454,77.83913 L48.85324,82.5023 L48.14743,88.28252 L47.82178,91.60739 L47.4318,93.03061 L46.94131,93.55729 L46.49102,93.41255 L46.28598,92.89794 L46.25382,91.91696 L46.39051,89.77007 L46.62772,86.93568 L47.08202,83.25298 L47.64143,79.81348 L48.18647,77.38094 L48.90723,74.61703 L49.53373,72.29623 L50.43021,69.43027 L50.70495,68.71709 L50.84224,68.67046 L51.79233,68.21611 z" stroke="Black" stroke-width="0" fill="#CA986C" fill-opacity="1.0" />
  <path d="M59.1851,67.72311 L59.25586,67.70909 L60.22773,67.58162 L60.71154,67.66008 L61.25654,68.01201 L61.5415,68.29746 L61.52638,68.45876 L61.18545,68.58988 L60.01669,68.88184 L58.30701,69.4615 L56.61374,70.47866 L54.52946,71.97382 L53.10521,73.08985 L51.77894,74.31863 L51.0036,75.33034 L50.77735,75.63017 L50.70652,75.50693 L50.73412,74.96612 L50.8651,74.28725 L51.00171,74.02042 L51.42038,73.5383 L52.2932,72.73852 L53.60081,71.55056 L55.1762,70.15399 L56.571,69.03671 L57.05614,68.70856 L57.67484,68.54543 L58.91819,67.92741 z" stroke="Black" stroke-width="0" fill="#CA986C" fill-opacity="1.0" />
  <path d="M55.157,40.92336 L55.22778,40.74233 L55.60921,40.70731 L56.3244,40.80267 L57.32566,41.08353 L58.31501,41.48061 L59.09352,41.95219 L59.51146,42.46325 L59.66121,43.10841 L59.39897,43.90034 L58.78361,44.63192 C58.54745,44.77048 58.29713,44.74069 58.0863,44.66917 L57.49031,44.26538 L56.8526,43.46973 L56.54939,42.82755 L56.31173,42.16228 L55.69489,41.61546 L55.2397,41.18634 z" stroke="Black" stroke-width="0" fill="#CA986C" fill-opacity="1.0" />
  <path d="M36.56573,34.90926 C39.09392,34.18669 40.30083,34.19241 41.20022,34.23959 L43.11418,34.46921 L44.12738,34.88095 L45.15685,35.74115 L45.5971,36.52139 L45.56386,36.94286 L45.38512,36.80643 L45.09897,36.36595 L44.46665,35.86875 L43.51292,35.46786 L42.13973,35.14443 L40.08957,35.06451 C39.24488,35.09546 38.21073,35.19059 35.16838,36.16339 z" stroke="Black" stroke-width="0" fill="#CA986C" fill-opacity="1.0" />
  <path d="M25.33589,48.7606 L24.12829,50.55832 L22.46104,53.57243 L20.26558,58.72051 C19.52602,60.75057 18.86092,63.00398 18.41917,65.06878 C17.97742,67.13358 17.75903,69.00977 17.62998,70.83136 C17.50093,72.65295 17.46122,74.41994 17.6002,76.26139 C17.73917,78.10284 18.05684,80.01874 18.42775,81.51472 C18.79866,83.01072 19.22282,84.08681 19.56199,84.8639 L20.30726,86.48223 L20.47902,87.24244 L20.19611,87.4509 L19.64516,87.31689 L18.90064,86.79573 C18.6624,86.58727 18.46386,86.36887 18.16109,85.68391 L16.99746,82.42981 C16.54362,81.01218 16.04292,79.32846 15.74698,77.36309 C15.45105,75.39773 15.35986,73.15073 15.45105,71.15773 C15.54223,69.16473 15.81578,67.42575 16.18051,65.53371 C16.54524,63.64166 17.00115,61.59656 17.61338,59.61985 C18.22561,57.64314 18.99415,55.73481 19.92797,53.68274 C20.86179,51.63067 21.96089,49.43486 23.30648,47.25948 L24.54594,45.35431 L24.27268,43.9811 L23.63762,38.98618 L23.52109,33.36075 L23.99384,27.26117 C24.24751,25.31253 24.59342,23.5599 25.24562,21.36867 C25.89783,19.17744 26.85632,16.5476 27.61546,14.75408 C28.3746,12.96056 28.93439,12.00336 29.48991,11.06112 L31.10394,8.445827 L32.74223,6.466051 L35.18045,4.406555 C36.07866,3.792173 37.00283,3.338742 37.65009,3.09472 L38.89616,2.843775 L39.21407,3.075199 L38.93055,3.462569 L37.94655,3.997019 L36.26755,5.234821 L34.10301,7.42656 L31.91338,10.43712 C31.12522,11.70724 30.22584,13.34456 29.41212,15.40813 C28.59839,17.47171 27.87032,19.96154 27.45546,21.63704 L26.88825,24.68182 L26.85365,25.39348 C26.86957,25.44199 26.90123,25.38396 27.02784,25.14128 L27.67937,24.03341 L28.73977,22.76464 L29.91094,21.71216 L31.55147,20.60387 L33.7651,19.6636 L35.42845,19.2298 L36.15289,19.22072 L36.37544,19.3706 L36.39134,19.55568 L36.2142,19.74531 L35.82522,20.0142 L35.68522,20.32673 L35.67321,20.98509 L35.74021,21.70499 L35.85149,22.24434 L36.0854,22.47598 L36.50439,22.52821 L36.97334,22.38628 L37.85447,21.56305 L38.89458,20.40713 L39.48275,19.66339 L39.84384,19.43175 L40.07379,19.49301 L40.40522,19.77921 L40.39466,20.0767 L40.04058,21.16835 L39.637,22.99634 L39.57634,24.24401 L39.72141,24.73728 L40.0696,24.74256 L40.85566,24.21236 L42.22204,22.38437 L43.99199,19.50655 L46.11277,15.38368 L47.64005,11.87015 L48.91779,8.73224 L50.35124,5.720801 L50.95595,4.566517 L51.15554,4.354977 L51.41306,4.405562 L52.06424,4.735749 L52.23532,4.900915 L51.92035,5.57535 L50.63721,8.366473 C50.15924,9.542998 49.7303,10.84208 49.44788,12.2668 L48.94663,16.40808 L48.84235,18.82845 L48.95286,19.60884 L49.22128,19.91872 L49.84835,19.72027 L50.66732,18.86159 L52.01738,17.21869 L53.86869,14.57167 L55.5421,11.92495 L57.05281,9.41706 L58.71457,6.54059 L59.44815,5.347495 C59.55941,5.194578 59.59068,5.189059 59.76635,5.285632 L60.43392,5.688465 C60.60575,5.796061 60.62933,5.81259 60.50018,6.10273 L59.75213,7.66131 L58.70429,10.36364 L57.98198,14.32903 L57.77077,17.79255 L58.02134,19.44738 L58.43818,20.14102 C58.60426,20.29082 58.80616,20.38201 59.06017,20.32339 L60.16739,19.56136 L62.32647,17.30133 L64.70699,14.22065 L66.29292,12.31233 L66.98656,11.84665 C67.14938,11.81734 67.29919,11.83688 67.32198,12.05506 L67.081,13.43909 L66.54367,16.13875 L66.26035,18.135 L66.44598,19.06637 L66.81396,19.34969 L67.51086,19.04683 L68.98607,17.7605 L70.61108,15.70238 L72.63406,12.3859 L74.21191,9.647687 L74.77883,8.60966 C74.85962,8.467273 74.88644,8.450883 75.17475,8.518678 L76.3157,8.848852 C76.61855,8.959254 76.67444,9.028082 76.61659,9.399521 L76.12981,11.46834 L75.15997,16.26295 L74.1895,23.85411 L74.0577,25.75111 L74.79628,25.57966 L76.74561,25.18399 L79.12753,24.93604 L81.01882,24.90966 L82.24539,25.0099 L82.95496,25.2473 L83.21346,25.61659 L83.14488,25.84871 L82.65425,25.93048 L81.50681,25.93312 L79.61552,25.94367 L77.2642,26.40497 L75.07997,27.18788 L73.98802,27.78658 C73.80809,27.96137 73.78823,28.13013 73.74356,29.43055 L73.50532,35.76889 L73.04542,42.9169 C72.88829,44.67955 72.75272,45.42531 72.45545,46.31783 L71.32728,49.0568 L70.23911,51.02079 L68.91339,52.5231 L68.50214,52.95809 L68.3743,52.84588 L68.13976,52.32899 L68.01814,51.90244 L68.15868,51.31384 L69.19637,49.33001 L70.11166,46.69624 L70.58797,44.62284 L71.11937,39.3893 L71.61865,31.22991 L71.70105,29.31393 L71.33891,29.58626 L69.76584,31.2788 L67.81023,34.10301 L66.33383,36.5786 L65.6588,38.01666 L65.1321,39.50336 L64.85594,39.95055 L64.51249,39.7613 L64.00362,38.9945 L63.68541,38.42957 L63.65177,37.83379 L63.96858,36.66466 L64.58959,35.11564 L65.69423,33.30167 L67.32175,31.19893 L68.84134,29.46207 L70.25438,28.20883 L71.42351,27.2668 L71.86088,26.92756 L72.01821,25.91711 L72.4264,21.50619 L73.04,16.93666 L73.22504,15.67224 C73.23672,15.56993 73.23351,15.53791 73.18367,15.56612 L72.81622,15.98029 L71.72668,17.41558 L69.8572,19.42578 C69.20992,20.04894 68.61489,20.53943 68.01585,20.78066 C67.41681,21.02188 66.81375,21.01384 66.32326,20.88519 L65.19755,20.27811 L64.695,19.55443 L64.49397,18.42068 L64.6652,16.79784 L65.08584,15.59584 L65.15604,15.32023 L64.84119,15.683 L63.51188,17.50161 L61.64264,20.10683 C61.02389,20.84606 60.45726,21.29546 59.94924,21.55924 C59.44122,21.82302 58.99182,21.90118 58.62057,21.9142 L57.69572,21.75138 L57.01836,21.22708 L56.48953,20.40331 L55.94383,18.83095 L55.86547,16.80554 L56.25166,13.76029 L56.6847,11.83245 C56.76556,11.50168 56.74313,11.49888 56.7179,11.52972 L56.42583,12.07726 L55.14867,14.42777 L53.24099,17.77042 L51.79506,20.04059 L50.66764,21.09256 L49.48935,21.47221 L48.36616,21.28419 L47.52506,20.59554 L47.09413,19.60892 L47.0073,17.97182 L47.25772,15.98206 L47.2832,15.38206 L47.00844,15.76195 L46.30883,17.13634 L45.49755,18.92456 L44.02136,21.80266 L42.62431,24.25157 L41.51709,25.6128 L40.39684,26.36506 L39.19193,26.54742 C38.82394,26.5116 38.52434,26.38134 38.31592,26.1371 L37.93491,25.17316 L37.95556,23.98628 L38.22538,22.66887 L38.29163,22.30662 C38.28688,22.28801 38.27421,22.29435 38.22749,22.33275 L37.94411,22.57028 L37.33958,23.00401 L36.60784,23.1894 L35.62231,23.09814 C35.36245,23.00412 35.25847,22.83081 35.15243,22.60921 L34.90009,21.78789 L34.89356,20.86288 L34.78648,20.64611 L34.26437,20.86896 L32.79023,21.76238 L30.75521,23.41025 L28.61974,25.84235 C28.01798,26.63154 27.60862,27.28672 27.20658,28.30919 C26.80453,29.33167 26.40982,30.72144 26.21246,32.34449 C26.0151,33.96754 26.0151,35.82388 26.2354,38.20985 L26.72855,42.31905 L27.57491,41.21246 L31.22141,36.93475 L35.20564,33.27216 L39.12553,30.38952 L43.45713,28.01054 C44.79756,27.39652 45.88633,27.04492 46.92402,26.81499 L49.63191,26.43996 L51.00311,26.47965 L51.82805,26.6569 L52.61951,26.95366 L52.80372,27.1273 L52.78444,27.18133 L52.3894,27.21522 L50.90832,27.34846 L49.20938,27.67146 L46.85036,28.59408 L43.93444,29.94496 L43.70349,30.06525 L42.04997,31.00726 L40.28372,32.15068 L40.12423,32.25941 L36.61872,34.86529 L36.56573,34.90926 L35.16838,36.16339 L34.41003,36.91638 L34.04717,37.28543 L33.01128,38.34639 L31.9869,39.42619 L31.4499,40.01587 L30.66632,40.91862 L29.50398,42.33786 L29.11763,42.83199 L29.11765,42.85596 L29.28236,42.77935 L30.16096,42.3407 L31.57001,41.74931 L33.25313,41.38049 L35.03999,41.14015 L36.93222,41.21011 L38.87189,41.56013 L40.15889,42.2262 L41.02221,43.14714 L41.48631,43.83847 L41.53025,44.35902 L41.37591,44.6067 L41.16741,44.62729 L41.01472,44.52218 L40.67521,44.13067 L39.54118,43.24697 C39.15343,42.97265 38.86327,42.79855 38.21437,42.64292 C37.56548,42.48729 36.55784,42.35013 35.57395,42.41344 C34.59005,42.47674 33.6299,42.74052 32.646,43.1019 L29.96074,44.29682 L28.27376,45.52401 L27.32962,46.43445 L27.51581,47.96202 L27.47914,49.15894 L27.31755,50.59572 L27.14069,51.34787 L26.77209,51.50893 L26.4593,51.47209 L26.2174,51.3093 L25.96907,50.93496 L25.646,49.98861 z" stroke="Black" stroke-width="0" fill="#DE8139" fill-opacity="1.0" />
  <path d="M40.37814,44.57357 L40.36204,45.27487 L40.1493,45.73714 L39.53858,46.32404 L38.49791,47.6187 L36.77639,50.33284 L35.45808,53.25335 L34.30655,56.57887 L33.41244,59.61737 L33.06768,62.06458 L33.00177,63.07645 L33.00866,64.01941 L33.35792,65.54832 C33.55003,65.98964 33.81654,66.36346 34.24921,66.62997 C34.65254,66.87843 35.20024,67.03364 35.73951,67.08298 L35.85698,67.09206 C36.43329,67.1284 36.9871,67.04187 37.53745,66.75112 L39.04232,65.60779 L40.01349,64.76746 L40.95417,63.86122 L41.83334,62.92321 L42.38195,62.55977 L42.97211,62.42478 L43.35585,62.42176 L43.549,62.55353 L43.54923,62.8194 L43.23928,63.13211 L42.64237,63.37216 L42.07765,63.59474 L41.66561,63.94424 L41.33818,64.47677 L41.28484,65.08104 L41.54052,65.61633 L42.13192,65.95663 L42.99923,65.87753 L43.92725,65.21532 L44.35769,64.48872 L44.47541,63.91665 L44.32549,63.59474 L43.98059,63.41815 L43.84631,63.10912 L43.95392,62.801 L44.28778,62.68235 L44.84975,62.81112 L45.44415,63.14018 L45.95448,63.57381 L46.24764,63.98174 L46.5168,64.11351 L47.19949,63.97614 L48.06862,63.62147 L49.2879,63.06248 L50.04502,62.60686 L50.49329,62.44179 L50.92365,62.48524 L51.47037,62.82589 L51.71709,63.42307 L51.51803,64.08894 L51.16056,64.63144 L50.70216,65.40806 L50.46666,66.15102 L50.51011,66.62624 L50.72459,66.84773 L51.19981,66.78606 L51.58246,66.57818 L52.07035,66.20009 L53.11892,65.12209 L53.28155,64.95057 L53.90815,64.33286 L54.47869,63.89408 L55.11512,63.63614 L55.70529,63.76371 L56.29406,64.43939 L56.60386,65.6744 L56.88423,66.55054 L57.3959,66.87157 L58.09401,66.75521 L59.02202,65.99122 L60.11825,64.71135 L60.76449,63.90249 L61.52428,63.41606 L62.33454,63.36279 L62.88826,63.54923 L62.93312,63.86184 L62.52477,64.05008 L61.80282,64.3168 L61.54437,64.7365 L61.6363,65.20257 L61.98408,65.42067 L62.69061,65.30853 L63.9943,64.9076 L65.06811,64.10576 L66.02555,63.09083 L66.99562,62.3759 L67.89559,61.87264 L68.67921,61.57545 L69.36611,61.56564 L69.94366,61.9189 L70.3516,62.57776 L70.1771,63.26393 L69.77905,63.884 L69.29637,64.25851 L68.46633,64.7445 L67.25818,65.35538 L66.56554,65.49392 L65.966,65.31678 L65.8577,65.5656 L65.80791,65.82823 L65.91568,66.2608 L66.42004,66.4977 L67.4362,66.42991 L68.99759,65.7068 L71.07664,64.39514 L72.84222,63.17605 L73.8905,62.40448 L74.42646,62.07957 L74.88941,62.07764 L75.2187,62.27407 L75.29189,62.40511 L75.15531,62.50914 L74.60719,63.06654 L73.9865,64.01618 L73.78883,64.67083 L73.78463,64.95119 C73.79865,64.98765 73.82668,64.96802 74.15051,64.66663 L75.55795,63.38115 L76.61072,62.61295 L77.47284,62.31997 L78.49197,62.24707 L79.13821,62.655 L79.71997,63.40498 L79.86857,64.09468 L79.80128,64.75915 L79.51951,65.19091 L79.00224,65.60305 L78.65318,65.7208 L78.49057,65.66894 L78.39384,65.43063 L78.22002,64.89372 L78.26487,64.58813 L78.49477,64.36944 L78.44851,64.13533 L78.22282,63.8746 L77.80227,63.89702 L77.11958,64.36944 L75.82569,65.65351 L74.36218,67.34412 L73.57576,67.91326 L72.91409,68.08289 L72.31131,68.02401 L71.91459,67.61607 L71.76039,66.99366 L71.79543,66.28013 L72.07861,65.54838 L72.58747,64.81101 L73.01082,64.30495 L73.09212,64.05263 L73.02905,63.84095 L72.91269,63.78908 L72.52298,64.08347 L71.03424,65.29465 L69.18944,66.85488 L67.73013,67.78429 L66.68997,68.21465 L65.71149,68.13195 L64.74003,67.71841 C64.48209,67.49973 64.3363,67.1745 64.26971,66.85629 L64.2578,65.74744 L63.32362,66.02875 L62.69846,66.12993 L62.18259,66.13071 L61.61279,66.05694 L61.4016,65.95628 L61.27493,65.72987 L61.15402,65.43419 L61.11811,65.3521 L61.07802,65.40854 L60.84563,65.81012 L60.12205,66.79757 L59.1851,67.72311 L58.91819,67.92741 L57.67484,68.54543 L57.05614,68.70856 L56.59613,68.74073 L55.71209,68.53007 L55.25667,68.24023 L54.93876,67.66151 L54.82839,66.90365 L54.98751,66.10347 L55.05097,65.77696 L55.0197,65.71626 L54.92496,65.74753 L54.6003,66.00966 L53.77989,66.75005 L52.76633,67.5631 L52.37471,67.84534 L51.79233,68.21611 L50.84224,68.67046 L50.70495,68.71709 L50.10461,68.82222 L49.38077,68.75692 L49.01931,68.42306 L48.851,67.7682 L48.81513,66.74637 L48.98201,65.59217 L49.24585,64.74455 L49.45723,64.25486 L49.50118,64.09767 L49.2613,64.15876 L48.5029,64.47016 L47.55304,64.85011 L46.89596,64.96782 L46.34839,64.83372 L46.03773,64.70782 L45.87606,64.66684 L45.79933,64.72048 L45.70279,64.94208 L45.50492,65.47112 L45.06465,66.24553 L44.18814,67.08709 L43.30887,67.56076 L42.36981,67.74563 L41.51262,67.64813 L40.855,67.14136 L40.49814,66.51594 L40.32983,65.92638 L40.28442,65.55909 C40.27029,65.4999 40.24385,65.51766 40.15219,65.61826 L39.62651,66.19094 L38.46088,67.26933 L36.85345,68.33849 L36.7861,68.37287 L35.37721,68.84731 L34.82373,68.91272 L34.09134,68.90442 L33.17236,68.66212 C32.88161,68.53406 32.56663,68.35753 32.28973,67.96986 L31.62169,66.42959 L31.35517,64.83739 L31.35702,62.97489 L31.3858,62.66481 L31.80335,59.83927 L32.0504,58.67749 C32.35312,57.41777 32.70691,56.53328 33.10091,55.61261 L34.39146,52.73802 L35.92725,49.71066 L37.81834,46.97078 L39.43439,45.14582 L40.15613,44.59365 z M66.5231,64.28827 L66.53055,64.41939 L66.63857,64.4395 L66.99915,64.34042 L67.76425,63.96718 L68.71486,63.34139 L69.20655,62.82883 L69.31159,62.60012 L69.27136,62.50402 L68.98678,62.51966 L68.50552,62.73645 L67.81268,63.1231 L66.84121,63.85767 z" stroke="Black" stroke-width="0" fill="#DE8139" fill-opacity="1.0" />
</svg>