<?xml version="1.0" encoding="UTF-8" standalone="no"?>
<!DOCTYPE svg PUBLIC "-//W3C//DTD SVG 1.1//EN" "http://www.w3.org/Graphics/SVG/1.1/DTD/svg11.dtd">
<svg width="96pt" height="96pt" viewBox="0 0 96 96" overflow="visible" version="1.1" xmlns="http://www.w3.org/2000/svg">
  <path d="M42.39714,32.08635 L43.98187,31.1829 L44.20109,31.06874 C45.47673,30.69881 46.62843,30.73519 47.43147,30.79914 L49.06954,31.0439 L50.0466,31.34356 L50.83638,31.84311 L51.33328,32.5039 C51.41887,32.67549 51.40659,32.7458 51.32287,32.68465 L50.83712,32.25446 L49.85965,31.79133 L48.49648,31.50607 L46.62638,31.41798 C45.88796,31.43531 45.01709,31.50933 42.39714,32.08635 z" stroke="Black" stroke-width="0" fill="#CA986C" fill-opacity="1.0" />
  <path d="M61.21939,58.61703 L61.59065,58.00429 L62.10812,57.43754 L62.71429,57.13363 L63.3451,57.01864 L63.56523,56.78044 L63.61123,56.33525 L63.6408,56.05927 L63.83957,55.97057 L64.24368,56.00342 L64.51145,56.15455 L64.58045,56.5176 L64.72337,56.92664 L65.09299,57.18948 L65.35254,57.67245 L65.20798,58.10285 L64.68066,58.30655 L64.31596,58.27863 L63.85435,58.38869 L63.37139,58.79445 L62.99191,59.61746 L62.61408,60.03965 L62.22803,60.03965 L61.81406,60.12507 L61.35738,60.11522 L61.07976,59.75053 L61.00255,59.24784 z" stroke="Black" stroke-width="0" fill="#CA986C" fill-opacity="1.0" />
  <path d="M58.67712,66.92799 L58.74428,66.91468 L59.66678,66.79369 L60.12602,66.86816 L60.64334,67.20222 L60.91383,67.47317 L60.89947,67.62627 L60.57586,67.75073 L59.46646,68.02786 L57.84362,68.57808 L56.23635,69.54357 L54.25795,70.96279 L52.90604,72.02213 L51.64714,73.18849 L50.91118,74.14882 L50.69642,74.43343 L50.6292,74.31644 L50.65538,73.8031 L50.77972,73.15871 L50.90939,72.90544 L51.30679,72.4478 L52.13528,71.68864 L53.37646,70.56103 L54.87185,69.2354 L56.19579,68.17486 L56.65629,67.86338 L57.24356,67.70853 L58.42376,67.12192 z" stroke="Black" stroke-width="0" fill="#CA986C" fill-opacity="1.0" />
  <path d="M52.21264,67.04401 L51.55459,69.25471 L50.40335,73.60806 L49.6876,76.53018 L48.87005,80.95649 L48.20009,86.44311 L47.89098,89.5991 L47.52081,90.95004 L47.05523,91.44996 L46.62782,91.31257 L46.43319,90.8241 L46.40266,89.89294 L46.53241,87.8551 L46.75756,85.16468 L47.1888,81.66904 L47.71978,78.40425 L48.23714,76.09527 L48.92129,73.47174 L49.51597,71.26882 L50.36691,68.54843 L50.6277,67.87148 L50.75801,67.82722 L51.65985,67.39595 z" stroke="Black" stroke-width="0" fill="#CA986C" fill-opacity="1.0" />
  <path d="M34.64799,69.79859 L34.56305,69.11762 L34.7618,68.81473 L35.00754,68.65952 L35.19779,68.6774 L35.44858,68.96584 L35.95832,70.09276 L36.91558,72.65422 L38.0797,76.30883 L39.17486,79.26172 L39.45473,80.12974 L39.31074,80.39339 L38.81995,80.7341 L38.46706,80.90446 L38.27237,80.85985 L37.99452,80.28996 L37.2183,78.14734 L36.22974,74.97074 L35.32668,72.1216 z" stroke="Black" stroke-width="0" fill="#CA986C" fill-opacity="1.0" />
  <path d="M32.26251,62.42094 L31.83054,61.19762 L31.42037,59.20945 L31.06776,57.16694 L31.08106,56.58014 L31.55343,56.4697 L31.78097,56.44707 L31.94198,56.7784 L32.19879,57.88814 L32.64316,59.31733 L32.68618,59.4446 L32.28984,62.12662 z" stroke="Black" stroke-width="0" fill="#CA986C" fill-opacity="1.0" />
  <path d="M36.42241,66.32037 L35.0078,65.89038 C34.59711,65.6374 34.34413,65.28256 34.16179,64.86366 L33.83027,63.41241 L33.82373,62.51735 L34.64057,63.93642 L35.6918,65.39853 z" stroke="Black" stroke-width="0" fill="#CA986C" fill-opacity="1.0" />
  <path d="M37.41583,67.54475 L38.13199,68.39915 L38.93968,69.21216 L39.8445,70.27799 L41.15916,71.83083 L41.97616,72.85275 L42.14782,73.37435 L42.00929,73.77221 L41.64162,74.01173 L41.22422,73.89197 L40.90102,73.52072 L40.67481,73.37569 L40.59897,73.49544 L40.62652,74.08527 L40.80679,76.05746 L41.19906,79.94084 L41.58971,83.48922 L41.71581,85.26559 L41.60008,85.75868 L41.20151,86.01547 L40.61,86.13759 L40.31797,85.87985 L40.176,85.0956 L39.99092,83.28513 L39.79987,80.65447 L39.5807,77.54811 L39.43473,75.29242 L39.41951,73.67559 L39.46094,72.64844 L39.44663,72.33064 L39.04242,71.88561 L37.40932,70.21337 L36.02436,68.70246 L35.55314,68.05717 L36.07851,67.99508 z" stroke="Black" stroke-width="0" fill="#CA986C" fill-opacity="1.0" />
  <path d="M44.51848,41.05664 L44.86185,40.77638 L44.94609,40.91888 L44.94609,41.68768 L44.91324,43.43064 L44.90995,44.1978 L45.21879,44.71034 L46.27179,45.86848 L47.55971,47.46523 L48.42215,48.81556 L48.65049,49.36753 L48.55849,49.65993 L48.29237,49.97863 L48.01968,50.01805 L47.3675,49.60408 L46.07597,48.16968 L44.29425,46.21915 L43.56539,45.41672 L43.54306,44.76791 L43.71321,43.37151 L43.88104,42.01073 L44.03633,41.55643 z" stroke="Black" stroke-width="0" fill="#CA986C" fill-opacity="1.0" />
  <path d="M58.16507,56.8789 L58.33673,56.65381 L58.56352,56.60429 L58.80172,56.66788 L58.95153,56.81446 L59.05069,57.07744 L59.17572,57.73706 L59.61438,58.83319 L60.74716,60.16644 L61.57815,60.83252 L62.13753,60.93599 L62.42422,60.75707 L62.78637,60.74953 L63.06121,60.85623 L63.18839,61.02114 L63.16683,61.33693 L62.99546,61.55357 L62.62469,61.76913 L62.07609,62.01595 L61.3863,62.01595 L60.70835,61.69153 L60.01102,61.21406 L59.3708,60.56738 L58.63466,59.51975 L58.16904,58.47213 L58.05865,57.55593 z" stroke="Black" stroke-width="0" fill="#CA986C" fill-opacity="1.0" />
  <path d="M54.85361,41.48949 L54.9208,41.31766 L55.28286,41.28442 L55.96172,41.37494 L56.91212,41.64153 L57.85122,42.01844 L58.59019,42.46606 L58.9869,42.95117 L59.12904,43.56356 L58.88012,44.31526 L58.29602,45.00968 L57.63412,45.04504 L57.06841,44.66176 L56.46309,43.90653 L56.17528,43.29697 L55.9497,42.66548 L55.36418,42.14643 L54.93211,41.73912 z" stroke="Black" stroke-width="0" fill="#CA986C" fill-opacity="1.0" />
  <path d="M48.86269,44.48849 L48.79453,43.44287 L48.92907,43.29551 L49.23188,43.31578 L49.57293,43.68377 L49.88822,44.36691 L50.39207,46.19067 L51.38123,50.24621 L51.84799,52.3049 L52.21274,52.9293 L53.20438,53.6479 L54.86717,55.18547 L56.37025,56.60876 C56.66794,56.93457 56.65922,57.05127 56.65163,57.19368 L56.69577,57.73058 L57.03851,58.62624 L57.52892,59.78056 L57.80915,60.25588 L58.27152,60.67083 L59.20873,61.31486 L60.27966,61.94838 L60.63715,62.23113 L60.62856,62.47915 L60.38398,62.76669 L59.97558,62.95514 L59.53355,62.92363 L58.66728,62.50784 L57.70257,61.85916 L57.01,61.10534 L56.24676,59.65425 L55.84629,58.50939 L55.54477,57.95816 L54.80038,57.19492 L53.08545,55.71556 L51.23388,54.13725 C50.80986,53.71795 50.70621,53.47295 50.46122,52.59664 L49.51895,48.62497 z" stroke="Black" stroke-width="0" fill="#CA986C" fill-opacity="1.0" />
  <path d="M63.19483,61.65791 L63.94053,60.57122 L65.38694,58.72466 L65.85337,57.91745 L65.75027,57.2054 L65.07008,55.14145 L63.60084,49.62677 L61.89417,42.41668 L61.04528,38.43679 L60.76244,36.90625 L60.69089,36.13733 L60.79467,35.79801 L61.12036,35.65878 L61.53365,35.75323 L61.97472,36.80614 L62.92396,39.9711 L64.28732,44.8974 L66.36932,53.24715 L67.14253,56.41159 L67.28791,57.45583 L66.92598,58.24059 L65.81084,59.91692 L64.62523,61.50294 L63.89626,62.13763 L63.30784,62.19962 L63.0599,62.02589 z" stroke="Black" stroke-width="0" fill="#CA986C" fill-opacity="1.0" />
  <path d="M38.66685,34.63608 L40.58442,33.26561 C42.90075,32.67644 43.89108,32.54587 44.72102,32.48045 L46.87032,32.45693 L48.60093,32.6792 L49.55537,33.00829 L50.13556,33.47322 L50.44646,34.08003 L50.4391,34.50858 C50.42004,34.60874 50.41232,34.66709 50.37386,34.61535 L50.19439,34.25505 L49.8857,33.83113 L49.19838,33.41003 L48.31363,33.16885 L47.20865,33.04774 C46.74297,33.0135 46.13847,32.97885 43.82852,33.3417 C45.10692,33.4445 45.60387,33.65715 45.99134,33.84693 L46.88616,34.36683 L47.42538,34.84155 L47.69464,35.27616 L47.803,35.71288 L47.72766,36.2091 C47.70233,36.33184 47.70068,36.37197 47.68634,36.35825 L47.60227,36.15446 L47.35825,35.65412 L46.78509,35.04655 L46.07608,34.57447 L44.77602,34.19031 L43.03523,34.01249 C42.28419,33.98988 41.28168,34.00086 38.66685,34.63608 z" stroke="Black" stroke-width="0" fill="#CA986C" fill-opacity="1.0" />
  <path d="M54.08802,39.0251 L54.16655,38.91574 L54.40221,38.92168 L54.63349,39.00655 L54.79472,39.16425 L54.83998,39.56237 L54.90928,40.24053 L55.06202,40.64502 L55.13981,40.84443 L55.01252,40.98374 L54.83852,41.08674 L54.60074,40.98534 L54.25278,40.5219 L54.10004,40.03892 L54.05124,39.45552 z" stroke="Black" stroke-width="0" fill="#CA986C" fill-opacity="1.0" />
  <path d="M56.90279,33.79787 L57.07827,33.83803 L57.19613,34.12264 L57.16906,34.79923 L56.89057,35.99091 L56.61906,37.17996 L56.40604,38.19529 L56.20874,38.55497 L55.82548,38.63093 L55.59587,38.56982 L55.49722,38.41704 L55.51381,38.06084 L55.67183,37.53529 L56.0385,36.57845 L56.31699,35.26455 L56.43311,34.40899 L56.66183,33.99168 z" stroke="Black" stroke-width="0" fill="#CA986C" fill-opacity="1.0" />
  <path d="M57.84448,28.65012 L57.76888,28.58443 L58.14336,28.11857 L58.95042,27.25423 L59.90972,26.35242 L61.01897,25.37088 L62.02452,24.51517 L62.52023,24.17009 L62.7847,24.18282 L63.2477,24.4202 L63.4489,24.66214 L63.4509,25.43791 L63.20437,27.09514 L62.73988,28.51936 L61.79233,30.16817 L60.70617,31.75226 L60.40446,32.18491 L60.48534,32.30437 L60.92265,32.66254 L61.56287,33.34479 L62.1783,34.34391 L62.34435,34.94587 L62.29667,35.31823 L62.04077,35.54453 L61.69785,35.64464 L61.06708,35.59251 L60.69305,35.37728 L60.18293,34.87343 L59.67365,34.52985 L59.52241,34.48157 L59.55799,34.65293 L59.74132,35.33912 L59.90776,36.24593 L59.99762,36.99507 L59.85767,37.26656 L59.43533,37.45996 L59.21369,37.51738 L58.97462,37.212 L58.36888,36.12053 L58.20559,35.78014 L58.27631,35.66292 L58.34967,35.59473 L58.40995,35.59625 L58.53825,35.69158 L58.72272,35.84674 L58.82248,35.92307 L58.85281,35.84604 L58.73238,35.39492 L58.5233,34.57064 L58.41994,33.87073 L58.41209,33.59485 L58.50986,33.49795 L58.82503,33.43334 L59.28598,33.44818 L59.8098,33.5835 L60.23583,33.89605 L60.4794,33.95716 L60.4729,33.70551 L60.15762,33.19045 L59.44802,32.51031 L58.50486,31.90448 L57.97319,31.71241 L57.70343,31.69146 L57.6589,31.61114 L57.78287,31.39551 L57.87629,31.27066 L58.0343,31.23138 L58.26041,31.21479 L58.55462,31.25495 L58.96145,31.46709 L59.44423,31.77353 L59.62275,31.87334 L59.8461,31.48237 L60.67621,29.89294 L61.65163,27.95223 L62.21918,26.15655 C62.31548,25.77596 62.31365,25.74796 62.27042,25.74948 L61.95717,25.92312 L61.07711,26.65364 L59.65959,27.75065 L58.44774,28.46173 z" stroke="Black" stroke-width="0" fill="#CA986C" fill-opacity="1.0" />
  <path d="M52.01514,34.91943 L51.83348,34.03956 L51.76974,32.75673 L51.90396,30.97992 L52.34467,29.4219 L53.07864,27.87797 L53.64107,27.00288 L54.45008,26.20252 L55.22099,25.73516 L55.79183,25.66198 L56.17638,25.82964 L56.50105,26.42842 L56.70863,27.7444 L56.86718,29.70762 L56.83121,31.06638 L56.6795,31.4147 L56.3679,31.52353 L56.08838,31.46166 L55.94747,31.20677 L55.88784,30.41135 L55.79114,28.90958 L55.7141,27.23112 L55.65104,26.80311 L55.35897,27.05235 L54.66792,27.90365 L53.80775,29.45243 L53.32118,31.45015 L53.09442,33.28943 L53.14524,34.39452 L53.322,35.28156 L53.37696,35.78597 L53.21206,35.87974 L52.86827,35.84467 L52.38961,35.69656 z" stroke="Black" stroke-width="0" fill="#CA986C" fill-opacity="1.0" />
  <path d="M37.20666,35.78087 C39.60644,35.095 40.75204,35.10043 41.60575,35.14521 L43.42249,35.36317 L44.38423,35.75399 L45.36141,36.57051 L45.7793,37.31111 L45.74774,37.71117 L45.57809,37.58168 L45.30647,37.16357 L44.70626,36.69162 L43.80098,36.3111 L42.49754,36.00409 L40.55151,35.92823 C39.74972,35.9576 38.7681,36.04791 35.88029,36.9713 z" stroke="Black" stroke-width="0" fill="#CA986C" fill-opacity="1.0" />
  <path d="M35.16046,37.68604 C39.16059,37.15816 40.44836,37.26305 41.28608,37.35901 L42.87587,37.6906 L43.83669,38.32228 L44.35503,39.19926 L44.45518,39.83386 L44.36917,40.15852 L44.22483,40.01373 L43.91327,39.50825 L43.29572,38.96754 L41.99806,38.46508 L40.44085,38.20421 L38.27438,38.20947 C37.33218,38.27432 36.09909,38.41697 33.83275,39.04341 L34.81602,38.03635 z" stroke="Black" stroke-width="0" fill="#CA986C" fill-opacity="1.0" />
  <path d="M32.8604,40.06837 C36.40649,38.99093 37.6993,39.07445 38.64956,39.20417 L40.65776,39.69742 L41.67398,40.29248 L42.38968,40.98945 L42.76423,41.89511 L42.81586,42.66166 L42.74784,42.92389 L42.64244,42.84617 L42.46764,42.47765 L42.1977,41.92187 L41.63461,41.25788 L40.45444,40.4875 C39.93536,40.25046 39.28276,40.06099 38.12419,40.0129 C36.96562,39.9648 35.30109,40.05809 31.6069,41.48499 L32.35068,40.6281 z" stroke="Black" stroke-width="0" fill="#CA986C" fill-opacity="1.0" />
  <path d="M46.23277,30.10677 L46.9689,29.78646 L47.72973,29.46372 L49.31689,29.51574 L50.40585,29.76914 L51.03185,30.0888 L51.40854,30.46947 L51.48175,30.75623 C51.47731,30.81564 51.46311,30.8291 51.45126,30.82157 L51.39415,30.72924 L51.14086,30.491 L50.53639,30.19292 L49.92689,29.98861 L48.7826,29.88707 z" stroke="Black" stroke-width="0" fill="#CA986C" fill-opacity="1.0" />
  <path d="M41.29448,17.02558 L41.63604,16.92332 L42.36461,16.90988 L42.63791,16.94157 L42.63707,17.10873 L42.52147,17.44241 L42.16986,17.99386 L41.66607,18.59762 L41.15176,18.86571 L40.64996,18.82695 L40.05183,18.50111 L39.94778,18.26116 L40.15906,17.95125 L40.70139,17.6515 L41.03984,17.33131 z" stroke="Black" stroke-width="0" fill="#DE8139" fill-opacity="1.0" />
  <path d="M26.54723,48.92865 L25.40096,50.63506 L23.8184,53.49607 L21.73445,58.38266 C21.03246,60.30961 20.40114,62.44856 19.98183,64.40849 C19.56252,66.36841 19.35522,68.1493 19.23272,69.87836 C19.11023,71.60743 19.07253,73.28467 19.20445,75.03258 C19.33637,76.78049 19.6379,78.59908 19.98997,80.01908 C20.34204,81.43909 20.74466,82.46051 21.0666,83.19814 L21.77402,84.73426 L21.93705,85.45586 L21.66851,85.65374 L21.14555,85.52654 L20.43884,85.03185 C20.2127,84.83396 20.02424,84.62666 19.73685,83.9765 L18.63233,80.88768 C18.20154,79.54206 17.72628,77.94386 17.44537,76.07832 C17.16446,74.21278 17.07791,72.07992 17.16446,70.18815 C17.25102,68.29639 17.51067,66.64573 17.85688,64.84979 C18.20308,63.05385 18.63584,61.11263 19.21697,59.23632 C19.7981,57.36001 20.5276,55.54862 21.41399,53.60078 C22.30038,51.65294 23.34365,49.56866 24.62089,47.50378 L25.7974,45.69537 L25.53802,44.39192 L24.93522,39.6507 L24.8246,34.31102 L25.27334,28.52125 C25.51412,26.67159 25.84246,25.00799 26.46154,22.92806 L28.71101,16.64944 C29.43159,14.94702 29.96295,14.03844 30.49025,13.14406 L32.02229,10.66161 L33.57737,8.782391 L35.89174,6.827503 L38.23594,5.582301 L39.41872,5.344103 L39.72048,5.563771 L39.45137,5.931466 L38.51734,6.438769 L36.92363,7.613698 L34.86903,9.694112 L32.79062,12.55175 C32.04249,13.75736 31.1888,15.31152 30.4164,17.27027 C29.64401,19.22903 28.95292,21.59239 28.55913,23.18279 L28.02074,26.07292 L27.98789,26.74843 C28.003,26.79448 28.03305,26.73939 28.15323,26.50904 L28.77167,25.45744 L29.7782,24.25311 L30.88989,23.25409 L32.44709,22.2021 L34.54829,21.30959 L36.12714,20.89782 L36.81479,20.8892 L37.02604,21.03147 L37.04113,21.20716 L36.87299,21.38715 L36.50376,21.64238 L36.37087,21.93904 L36.35948,22.56396 L36.42307,23.24729 L36.52869,23.75924 L36.75072,23.97912 L37.14843,24.0287 L37.59357,23.89397 L38.42994,23.11256 L39.41721,22.01535 L39.97552,21.30939 L40.31826,21.08952 L40.53653,21.14766 L40.85112,21.41933 L40.84111,21.70171 L40.50502,22.73791 L40.12193,24.47305 L40.06435,25.65735 L40.20205,26.12556 L40.53256,26.13057 L41.27869,25.6273 L42.57566,23.89216 L44.25571,21.16051 L46.26878,17.24706 L47.71848,13.912 L48.93131,10.93347 L50.29196,8.074995 L50.86595,6.97934 L51.0554,6.778545 L51.29985,6.826561 L51.91795,7.139977 L52.08034,7.296753 L51.78137,7.936931 L50.5634,10.58628 C50.10971,11.70305 49.70256,12.93614 49.43447,14.2885 L48.95869,18.21943 L48.85971,20.51686 L48.9646,21.25761 L49.21939,21.55175 L49.81461,21.36338 L50.59198,20.54832 L51.87347,18.98886 L53.63074,16.4763 L55.21915,13.96401 L56.65313,11.58351 L58.23048,8.853144 L58.9268,7.72065 C59.03241,7.5755 59.0621,7.570261 59.22884,7.661929 L59.8625,8.0443 C60.0256,8.146431 60.04798,8.162121 59.9254,8.437523 L59.21534,9.916938 L58.22073,12.48201 L57.5351,16.24598 L57.33462,19.53357 L57.57246,21.10435 L57.96812,21.76276 C58.12577,21.90495 58.31742,21.99151 58.55853,21.93587 L59.60951,21.21254 L61.65892,19.06731 L63.91853,16.14311 L65.4239,14.33172 L66.08231,13.88969 C66.23686,13.86187 66.37906,13.88041 66.4007,14.08752 L66.17195,15.40124 L65.66192,17.96378 L65.39299,19.85863 L65.56918,20.74269 L65.91848,21.01162 L66.57998,20.72415 L67.98026,19.50316 L69.52272,17.54957 L71.44295,14.40155 L72.94065,11.80242 L73.47878,10.81712 C73.55547,10.68196 73.58092,10.66641 73.85459,10.73076 L74.9376,11.04416 C75.22506,11.14896 75.27811,11.21429 75.2232,11.56686 L74.76114,13.5306 L73.84056,18.08167 L72.91939,25.28724 L72.79428,27.0879 L73.49535,26.92515 L75.34566,26.54958 L77.6066,26.31422 L79.40182,26.28918 L80.56609,26.38433 L81.23962,26.60967 L81.48499,26.9602 L81.41989,27.18054 L80.95419,27.25816 L79.86503,27.26066 L78.0698,27.27068 L75.83791,27.70855 L73.76463,28.45168 L72.72814,29.01997 C72.55734,29.18588 72.5385,29.34607 72.4961,30.58044 L72.26995,36.59684 L71.83342,43.38177 C71.68427,45.05489 71.55559,45.76277 71.27341,46.60996 L70.20255,49.20981 L69.16965,51.07404 L67.91126,52.50004 L67.5209,52.91294 L67.39956,52.80643 L67.17693,52.31579 L67.0615,51.9109 L67.19489,51.3522 L68.17987,49.46914 L69.04867,46.96914 L69.50079,45.00106 L70.0052,40.03335 L70.47912,32.28841 L70.55733,30.46975 L70.21358,30.72824 L68.72042,32.33481 L66.86415,35.01557 L65.46274,37.36542 L64.82198,38.73043 L64.32204,40.14162 L64.05991,40.56609 L63.73391,40.38646 L63.25089,39.65861 L62.94884,39.12236 L62.9169,38.55685 L63.21762,37.44711 L63.80709,35.97677 L64.85562,34.25494 L66.40048,32.259 L67.84287,30.61036 L69.18414,29.42078 L70.29388,28.5266 L70.70905,28.20459 L70.85838,27.24547 L71.24583,23.05858 L71.82828,18.72116 L72.00391,17.52096 C72.01499,17.42385 72.01196,17.39346 71.96465,17.42024 L71.61585,17.81337 L70.58167,19.17575 L68.80714,21.08385 C68.19273,21.67536 67.62793,22.14094 67.05932,22.36991 C66.49071,22.59888 65.91827,22.59125 65.4527,22.46913 L64.38416,21.89288 L63.90714,21.20597 L63.71633,20.1298 L63.87886,18.5894 L64.27814,17.44844 L64.34477,17.18684 L64.04591,17.53118 L62.78412,19.25741 L61.00982,21.7303 C60.42251,22.43199 59.88465,22.85856 59.40244,23.10894 L58.14126,23.44588 L57.26339,23.29132 L56.62043,22.79365 L56.11846,22.01173 L55.60048,20.51923 L55.5261,18.5967 L55.89267,15.70613 L56.30372,13.87621 C56.38047,13.56224 56.35918,13.55958 56.33523,13.58886 L56.058,14.10859 L54.84571,16.33971 L53.03492,19.51258 L51.66243,21.66743 L50.59229,22.66597 L49.47384,23.02633 L48.4077,22.84787 L47.60933,22.19419 L47.20028,21.25769 L47.11787,19.70374 L47.35557,17.81505 L47.37975,17.24552 L47.11895,17.60612 L46.45487,18.9107 L45.68481,20.60809 L44.28359,23.34 L42.9575,25.66452 L41.90652,26.95661 L40.84318,27.67065 L39.69946,27.84376 C39.35017,27.80975 39.06578,27.68611 38.86795,27.45428 L38.50629,26.5393 L38.5259,25.4127 L38.78201,24.16221 L38.84489,23.81836 C38.84039,23.8007 38.82836,23.80671 38.78402,23.84317 L38.51503,24.06863 L37.9412,24.48033 L37.24663,24.6563 L36.31116,24.56968 L35.86515,24.10558 L35.62563,23.32598 L35.61943,22.44795 L35.51779,22.24219 L35.0222,22.45373 L33.62292,23.30177 L31.69127,24.86594 L29.66427,27.1745 C29.09308,27.9236 28.70451,28.5455 28.32289,29.51604 C27.94127,30.48658 27.5666,31.80576 27.37926,33.34637 C27.19193,34.88698 27.19193,36.64903 27.40104,38.91381 L27.86914,42.81429 L28.67251,41.7639 L32.1338,37.70347 L35.91565,34.22692 L39.63644,31.49071 L43.74803,29.23256 C45.02037,28.64973 46.05383,28.31599 47.03881,28.09773 L49.60916,27.74176 L50.91071,27.77943 L51.69375,27.94767 L52.44501,28.22936 L52.61987,28.39418 L52.60156,28.44547 L52.22659,28.47763 L50.82074,28.60411 L49.2081,28.9107 L46.9689,29.78646 L44.20108,31.06872 L43.98187,31.1829 L42.41233,32.07706 L40.7358,33.16241 L40.58442,33.26561 L37.25696,35.73913 L37.20666,35.78087 L35.88029,36.9713 L35.16046,37.68604 L34.81602,38.03635 L33.83275,39.04341 L32.8604,40.06837 L32.35068,40.6281 L31.6069,41.48499 L30.5036,42.83214 L30.13688,43.30118 L30.1369,43.32393 L30.29324,43.25121 L31.12721,42.83484 L32.46468,42.27349 L34.06232,41.9234 L35.75841,41.69527 L37.55453,41.76168 L39.39568,42.09392 L40.61731,42.72615 L41.43678,43.60032 L41.8773,44.25654 L41.91902,44.75064 L41.77251,44.98574 L41.5746,45.00528 L41.42967,44.90551 L41.10741,44.53389 L40.03098,43.69508 C39.66292,43.43469 39.3875,43.26944 38.77156,43.12171 C38.15562,42.97399 37.19917,42.84379 36.26525,42.90388 C35.33133,42.96397 34.41995,43.21435 33.48603,43.55737 L30.93715,44.6916 L29.33587,45.85646 L28.43969,46.72065 L28.61642,48.17064 L28.58161,49.30676 L28.42823,50.67056 L28.26035,51.3845 L27.91047,51.53739 L27.61357,51.50241 L27.38396,51.34789 L27.14824,50.99257 L26.84158,50.09429 z" stroke="Black" stroke-width="0" fill="#DE8139" fill-opacity="1.0" />
  <path d="M40.82542,44.95429 L40.81014,45.61997 L40.6082,46.05876 L40.02851,46.61585 L39.0407,47.84475 L37.40662,50.42103 L36.15527,53.1932 L35.06223,56.3498 L34.21354,59.23396 L33.88629,61.55688 L33.82373,62.51735 L33.83027,63.41241 L34.16179,64.86366 C34.34413,65.28256 34.59711,65.6374 35.0078,65.89038 L36.42241,66.32037 L36.53391,66.32899 C37.08095,66.36349 37.60663,66.28136 38.12902,66.00537 L39.55745,64.92011 L40.47929,64.12246 L41.37219,63.26226 L42.20671,62.37189 L42.72746,62.02691 L43.28763,61.89878 L43.65189,61.89592 L43.83522,62.02099 L43.83545,62.27335 L43.54124,62.57018 L42.97465,62.79804 L42.43861,63.00931 L42.0475,63.34106 L41.7367,63.84654 L41.68607,64.42011 L41.92876,64.92822 L42.49012,65.25124 L43.31338,65.17616 L44.19426,64.54758 L44.60283,63.85789 L44.71458,63.31487 L44.57228,63.00931 L44.2449,62.84169 L44.11743,62.54835 L44.21958,62.25589 L44.53648,62.14327 L45.0699,62.2655 L45.63411,62.57784 L46.11852,62.98944 L46.39679,63.37666 L46.65228,63.50174 L47.30029,63.37133 L48.12527,63.03469 L49.28262,62.50409 L50.00129,62.07161 L50.42679,61.91492 L50.83529,61.95617 L51.35424,62.27951 L51.58843,62.84636 L51.39948,63.4784 L51.06017,63.99336 L50.62506,64.73052 L50.40151,65.43575 L50.44276,65.88683 L50.64635,66.09708 L51.09743,66.03853 L51.46064,65.84121 L51.92374,65.48233 L52.91905,64.45908 L53.07342,64.29627 L53.66819,63.70993 L54.20976,63.29345 L54.81386,63.04861 L55.37405,63.1697 L55.93292,63.81106 L56.22699,64.98335 L56.49311,65.81498 L56.97879,66.1197 L57.64144,66.00925 L58.52232,65.28407 L59.56286,64.06921 L60.17628,63.30143 L60.89748,62.83971 L61.66658,62.78914 L62.19218,62.96611 L62.23476,63.26284 L61.84714,63.44152 L61.16187,63.69469 L60.91655,64.09308 L61.00381,64.53548 L61.33392,64.7425 L62.00456,64.63605 L63.24204,64.25549 L64.2613,63.49437 L65.17011,62.531 L66.09091,61.85238 L66.94517,61.37469 L67.68899,61.09259 L68.341,61.08328 L68.88921,61.4186 L69.27643,62.04399 L69.11079,62.69531 L68.73296,63.28388 L68.2748,63.63937 L67.48692,64.10067 L66.34013,64.68053 L65.68267,64.81202 L65.11359,64.64388 L65.01078,64.88007 L64.96353,65.12936 L65.06582,65.53995 L65.54456,65.76482 L66.50911,65.70047 L67.99119,65.01409 L69.96464,63.76906 L71.64054,62.61189 L72.63558,61.87952 L73.14431,61.5711 L73.58375,61.56927 L73.89631,61.75573 L73.96577,61.88011 L73.83614,61.97885 L73.31585,62.50793 L72.72669,63.40934 L72.53907,64.03075 L72.53508,64.29688 C72.54839,64.33147 72.575,64.31284 72.88237,64.02676 L74.21832,62.80657 L75.21762,62.07739 L76.03596,61.79929 L77.00332,61.73009 L77.61674,62.11731 L78.16895,62.82919 L78.30999,63.48386 L78.24612,64.11458 L77.97867,64.52441 L77.48766,64.91561 L77.15634,65.02738 L77.00199,64.97815 L76.91017,64.75195 L76.74518,64.24232 L76.78776,63.95224 L77.00598,63.74466 L76.96207,63.52245 L76.74784,63.27495 L76.34865,63.29624 L75.70064,63.74466 L74.47247,64.96352 L73.0833,66.56824 L72.33681,67.10848 L71.70876,67.26949 L71.1366,67.2136 L70.76003,66.82639 L70.61366,66.2356 L70.64693,65.5583 L70.91571,64.86372 L71.39873,64.16381 L71.80058,63.68345 L71.87775,63.44394 L71.81787,63.24302 L71.70743,63.19378 L71.33752,63.47321 L69.92439,64.62287 L68.17329,66.10386 L66.78811,66.98606 L65.80079,67.39457 L64.87201,67.31606 L63.94989,66.92352 L63.50346,66.10519 L63.49215,65.05267 L62.60542,65.31969 L62.01202,65.41573 L61.52235,65.41647 L60.98149,65.34644 L60.78103,65.2509 L60.66079,65.036 L60.54603,64.75533 L60.51194,64.67741 L60.47388,64.73098 L60.2533,65.11217 L59.56647,66.04945 L58.67712,66.92799 L58.42376,67.12192 L57.24356,67.70853 L56.65629,67.86338 L56.21965,67.89392 L55.38051,67.69395 L54.94822,67.41884 L54.64646,66.86951 L54.5417,66.15015 L54.69273,65.39062 L54.75297,65.0807 L54.72329,65.02307 L54.63337,65.05276 L54.32519,65.30157 L53.54645,66.00435 L52.58438,66.7761 L52.21264,67.04401 L51.65985,67.39595 L50.75801,67.82722 L50.6277,67.87148 L50.05785,67.97128 L49.37078,67.90929 L49.02768,67.59238 L48.86792,66.97079 L48.83387,66.00086 L48.99227,64.90529 L49.24271,64.10072 L49.44336,63.6359 L49.48508,63.48669 L49.25737,63.54468 L48.5375,63.84027 L47.63588,64.20091 L47.01218,64.31264 L46.49242,64.18536 L46.19754,64.06585 L46.04409,64.02695 L45.97126,64.07787 L45.87962,64.28822 L45.6918,64.79037 L45.27389,65.52546 L44.4419,66.32428 L43.60729,66.77388 L42.71593,66.94936 L41.90228,66.85682 L41.27806,66.37579 L40.93933,65.78213 L40.77957,65.22252 L40.73647,64.87389 C40.72305,64.8177 40.69796,64.83456 40.61095,64.93005 L40.11197,65.47365 L39.00555,66.49726 L37.47977,67.51212 L37.41583,67.54475 L36.07851,67.99508 L35.55314,68.05717 L34.85795,68.04929 L33.98565,67.81931 C33.70967,67.69775 33.41069,67.53018 33.14785,67.16221 L32.51375,65.70016 L32.26077,64.18884 L32.26251,62.42094 L32.28984,62.12662 L32.68618,59.4446 L32.92068,58.34183 L33.91783,55.43262 L35.14283,52.70404 L36.60061,49.83045 L38.39564,47.22974 L39.92961,45.49748 L40.61469,44.97336 z M65.64239,63.66761 L65.64946,63.79207 L65.752,63.81116 L66.09425,63.71711 L66.8205,63.36283 L67.72282,62.76883 L68.18954,62.28231 L68.28925,62.06522 L68.25106,61.97399 L67.98093,61.98884 L67.52411,62.19462 L66.86646,62.56163 L65.94434,63.25888 z" stroke="Black" stroke-width="0" fill="#DE8139" fill-opacity="1.0" />
</svg>