<?xml version="1.0" encoding="UTF-8" standalone="no"?>
<!DOCTYPE svg PUBLIC "-//W3C//DTD SVG 1.1//EN" "http://www.w3.org/Graphics/SVG/1.1/DTD/svg11.dtd">
<svg width="192pt" height="192pt" viewBox="0 0 192 192" overflow="visible" version="1.1" xmlns="http://www.w3.org/2000/svg">
  <path d="M84.73768,64.01196 L87.92315,62.19593 L88.36381,61.96645 C90.92797,61.22285 93.243,61.29598 94.8572,61.42454 L98.14988,61.91653 L100.1139,62.51887 C100.696,62.76691 101.2434,63.08815 101.7014,63.52301 L102.7002,64.85127 C102.8723,65.19618 102.8476,65.33752 102.6793,65.2146 L101.7029,64.34988 L99.73809,63.41894 L96.99798,62.84552 L93.23889,62.66847 C91.75459,62.7033 90.00405,62.85209 84.73768,64.01196 z" stroke="Black" stroke-width="0" fill="#CA986C" fill-opacity="1.0" />
  <path d="M122.5723,117.3413 L123.3186,116.1096 L124.3587,114.9704 L125.5772,114.3595 L126.8452,114.1284 C127.1457,114.0425 127.2316,113.9038 127.2877,113.6496 L127.3801,112.7547 L127.4396,112.2 L127.8391,112.0216 L128.6514,112.0877 L129.1897,112.3915 L129.3284,113.1212 L129.6157,113.9435 L130.3586,114.4718 L130.8804,115.4426 C130.9431,115.786 130.8638,116.0832 130.5898,116.3077 L129.5298,116.7172 L128.7967,116.6611 L127.8689,116.8823 C127.5287,117.0276 127.1853,117.2389 126.898,117.6979 L126.1353,119.3523 C125.8909,119.841 125.6333,120.1118 125.3758,120.2009 L124.5998,120.2009 L123.7677,120.3726 C123.4606,120.442 123.1105,120.4816 122.8497,120.3528 C122.5888,120.224 122.4171,119.9268 122.2916,119.6197 L122.1364,118.6093 z" stroke="Black" stroke-width="0" fill="#CA986C" fill-opacity="1.0" />
  <path d="M117.4621,134.0472 L117.5971,134.0204 L119.4514,133.7772 L120.3745,133.9269 L121.4144,134.5984 L121.9581,135.143 L121.9292,135.4508 L121.2787,135.701 L119.0487,136.258 L115.7867,137.364 C114.7242,137.8425 113.8046,138.4389 112.5559,139.3047 L108.5791,142.1575 L105.8616,144.2869 L103.3311,146.6314 L101.8518,148.5618 L101.4201,149.1339 L101.285,148.8987 L101.3376,147.8668 L101.5875,146.5716 L101.8482,146.0625 L102.647,145.1425 L104.3123,143.6166 L106.8072,141.3499 L109.8131,138.6853 L112.4744,136.5535 L113.4,135.9274 L114.5805,135.6161 C115.3214,135.367 116.1317,135.0204 116.9528,134.437 z" stroke="Black" stroke-width="0" fill="#CA986C" fill-opacity="1.0" />
  <path d="M104.4678,134.2804 L103.1451,138.7241 L100.831,147.4748 L99.39223,153.3486 C98.90469,155.5556 98.2978,158.589 97.74889,162.2459 L96.4022,173.2745 L95.78085,179.6184 C95.58907,180.9685 95.32826,181.7663 95.03677,182.3339 C94.74527,182.9016 94.4231,183.2391 94.10091,183.3388 C93.77873,183.4385 93.45656,183.3004 93.24177,183.0626 L92.85055,182.0808 L92.78918,180.2091 L93.05,176.1128 L93.50258,170.7048 L94.3694,163.6782 L95.43674,157.1156 L96.47668,152.4743 L97.85189,147.2008 L99.04725,142.7727 C99.42699,141.3429 99.81664,139.8173 100.7577,137.3044 L101.2819,135.9437 L101.5439,135.8547 L103.3567,134.9878 z" stroke="Black" stroke-width="0" fill="#CA986C" fill-opacity="1.0" />
  <path d="M69.16113,139.8174 C68.89887,138.8149 68.90932,138.6501 68.99036,138.4486 L69.38988,137.8397 L69.88385,137.5277 L70.26627,137.5637 L70.77037,138.1434 L71.79501,140.4087 L73.71919,145.5575 L76.05919,152.9036 L78.26058,158.8392 L78.82316,160.584 L78.53371,161.114 L77.54716,161.7989 L76.83783,162.1413 L76.44647,162.0516 L75.88797,160.9061 L74.32768,156.5992 L72.3406,150.2139 L70.52534,144.4869 z" stroke="Black" stroke-width="0" fill="#CA986C" fill-opacity="1.0" />
  <path d="M64.36606,124.9876 L63.49776,122.5285 L62.67327,118.5321 L61.96448,114.4265 C61.80935,113.5117 61.77725,113.3566 61.99123,113.2469 L62.94074,113.0249 L63.39812,112.9795 L63.72175,113.6455 L64.23797,115.8762 L65.13121,118.749 L65.21767,119.0048 L64.42099,124.3959 z" stroke="Black" stroke-width="0" fill="#CA986C" fill-opacity="1.0" />
  <path d="M72.72787,132.8258 C71.69894,132.7316 70.65392,132.4355 69.88437,131.9615 C69.05885,131.453 68.55032,130.7397 68.18379,129.8977 C67.81726,129.0556 67.59272,128.0848 67.5174,126.9805 L67.50426,125.1813 C68.14145,126.5996 68.6441,127.305 69.14619,128.0338 L71.25928,130.9728 z" stroke="Black" stroke-width="0" fill="#CA986C" fill-opacity="1.0" />
  <path d="M74.72475,135.2869 L76.1643,137.0043 L77.78783,138.6386 L79.60663,140.781 L82.24922,143.9024 L83.89148,145.9565 C84.19105,146.4246 84.24989,146.7188 84.23652,147.005 L83.95807,147.8047 L83.21902,148.2862 C82.93283,148.3397 82.63382,148.2541 82.38,148.0455 L81.73033,147.2992 L81.27563,147.0077 L81.12318,147.2484 L81.17857,148.434 L81.54091,152.3983 L82.32942,160.2043 L83.11466,167.3369 L83.36815,170.9076 C83.36815,171.5469 83.3,171.7201 83.13551,171.8988 L82.33434,172.4149 L81.14535,172.6604 C80.82317,172.6297 80.66975,172.4456 80.55834,172.1423 L80.27298,170.5659 L79.90093,166.9267 L79.5169,161.6388 L79.07635,155.3947 L78.78295,150.8605 L78.75235,147.6105 L78.83562,145.5459 L78.80686,144.907 L77.99436,144.0125 L74.71167,140.6511 L71.92775,137.614 L70.98055,136.3169 L72.0366,136.1921 C72.89032,136.0435 73.76221,135.7708 74.72475,135.2869 z" stroke="Black" stroke-width="0" fill="#CA986C" fill-opacity="1.0" />
  <path d="M89.00179,82.04315 L89.692,81.4798 C89.82172,81.43272 89.84814,81.53839 89.86134,81.76623 L89.86134,83.31161 L89.7953,86.81512 L89.7887,88.3572 L90.40949,89.38745 L92.52613,91.71542 L95.11497,94.92505 L96.84856,97.63937 L97.30755,98.74886 L97.12263,99.33664 L96.58769,99.97724 L96.03955,100.0565 C95.77208,99.97724 95.34941,99.80553 94.72862,99.22437 L92.13251,96.34108 L88.55107,92.42032 L87.08599,90.80734 C86.92052,90.49269 86.95804,90.18481 87.04109,89.50318 L87.38311,86.69627 L87.72047,83.96097 C87.79533,83.3801 87.81287,83.30289 88.03262,83.04777 z" stroke="Black" stroke-width="0" fill="#CA986C" fill-opacity="1.0" />
  <path d="M116.4328,113.8475 L116.7779,113.395 L117.2337,113.2955 L117.7125,113.4233 L118.0137,113.7179 L118.213,114.2466 L118.4643,115.5725 C118.5878,116.1596 118.7698,116.8832 119.3461,117.7758 C119.9224,118.6684 120.893,119.73 121.6231,120.4558 L123.2934,121.7947 C123.7441,122.0178 124.1557,122.0741 124.4179,122.0026 L124.9941,121.643 L125.7221,121.6278 L126.2746,121.8423 L126.5302,122.1738 L126.4869,122.8086 L126.1424,123.244 L125.3971,123.6774 L124.2944,124.1735 L122.9078,124.1735 L121.5451,123.5214 L120.1434,122.5616 L118.8565,121.2617 L117.3767,119.1559 L116.4408,117.05 L116.2189,115.2084 z" stroke="Black" stroke-width="0" fill="#CA986C" fill-opacity="1.0" />
  <path d="M109.7765,82.91322 L109.9115,82.56782 L110.6393,82.50101 L112.0039,82.68295 L113.9143,83.21883 L115.8019,83.97646 L117.2873,84.87624 L118.0848,85.85134 C118.2667,86.21097 118.3947,86.62318 118.3705,87.08231 C118.3463,87.54144 118.1701,88.04746 117.8701,88.5933 C117.5702,89.13913 117.1466,89.72476 116.696,89.98915 C116.2454,90.25354 115.7678,90.19669 115.3656,90.06023 L114.2284,89.2898 L113.0117,87.77171 L112.4331,86.54642 C112.3251,86.14274 112.2597,85.67651 111.9797,85.27708 L110.8027,84.23374 L109.9342,83.41499 z" stroke="Black" stroke-width="0" fill="#CA986C" fill-opacity="1.0" />
  <path d="M97.7341,88.94151 L97.59709,86.83971 L97.86753,86.5435 L98.47621,86.58425 L99.16174,87.32394 L99.79551,88.69711 L100.8083,92.36306 L102.7966,100.5151 L103.7348,104.6533 C103.915,105.3368 104.0642,105.5977 104.468,105.9084 L106.4613,107.3529 L109.8037,110.4435 L112.825,113.3045 C113.4234,113.9594 113.4059,114.194 113.3906,114.4802 L113.4794,115.5594 L114.1683,117.3598 L115.1541,119.6801 L115.7174,120.6356 L116.6468,121.4697 L118.5307,122.7642 L120.6833,124.0377 L121.402,124.606 L121.3847,125.1046 L120.8931,125.6825 L120.0721,126.0613 L119.1836,125.998 L117.4423,125.1622 L115.5031,123.8583 C114.9633,123.4416 114.6035,123.1007 114.111,122.3431 L112.5768,119.4262 L111.7719,117.1249 L111.1657,116.0169 L109.6694,114.4827 L106.2223,111.509 L102.5004,108.3365 C101.6481,107.4936 101.4398,107.0012 100.9473,105.2397 C100.4548,103.4782 99.67828,100.4477 99.05325,97.25626 z" stroke="Black" stroke-width="0" fill="#CA986C" fill-opacity="1.0" />
  <path d="M126.5431,123.4538 L128.0421,121.2694 L130.9495,117.5576 C131.682,116.5937 131.8312,116.283 131.8871,115.9351 C131.943,115.5871 131.9057,115.2019 131.6798,114.5038 L130.3126,110.355 L127.3593,99.26997 L123.9287,84.77696 L122.2223,76.77699 L121.6538,73.70044 L121.51,72.15484 L121.7186,71.47277 L122.3733,71.1929 C122.6461,71.14928 122.9566,71.15739 123.204,71.38277 C123.4514,71.60815 123.6357,72.0508 124.0906,73.49921 L125.9987,79.8611 L128.7392,89.76346 L132.9242,106.5473 L134.4784,112.9081 L134.7706,115.0072 C134.7405,115.4973 134.5611,115.7826 134.0431,116.5846 L131.8016,119.9542 L129.4184,123.1423 C128.7796,123.9021 128.3795,124.2426 127.9531,124.4181 C127.5266,124.5936 127.0739,124.6041 126.7703,124.5427 C126.4667,124.4812 126.3123,124.3479 126.2719,124.1935 z" stroke="Black" stroke-width="0" fill="#CA986C" fill-opacity="1.0" />
  <path d="M77.23943,69.13716 L81.09393,66.38239 C85.74999,65.19809 87.74065,64.93565 89.40891,64.80415 L93.72922,64.75686 L97.20793,65.20365 L99.12644,65.86515 L100.2927,66.7997 L100.9176,68.01946 L100.9028,68.88088 C100.8645,69.08221 100.849,69.19951 100.7717,69.0955 L100.4109,68.37127 L99.79045,67.51913 L98.40886,66.6727 L96.63042,66.18789 L94.40931,65.94446 C93.47325,65.87563 92.25814,65.80597 87.61491,66.53534 C90.18462,66.74199 91.18354,67.16942 91.9624,67.5509 L93.76107,68.59595 L94.84496,69.55018 L95.3862,70.42379 L95.604,71.30164 L95.45257,72.29909 C95.40166,72.54582 95.39835,72.62648 95.36951,72.59891 L95.20052,72.18927 L94.71002,71.18353 L93.55791,69.96226 C93.15081,69.59241 92.79424,69.3014 92.13273,69.01334 L89.51948,68.24113 L86.0203,67.8837 C84.51064,67.83825 82.49549,67.86032 77.23943,69.13716 z" stroke="Black" stroke-width="0" fill="#CA986C" fill-opacity="1.0" />
  <path d="M108.2375,77.95956 L108.3954,77.73971 L108.8691,77.75166 L109.334,77.92226 L109.6581,78.23925 L109.749,79.03952 L109.8883,80.40268 L110.1954,81.21574 L110.3517,81.61659 L110.0959,81.89661 L109.7461,82.10365 L109.2682,81.89982 L108.5687,80.96828 L108.2617,79.99743 L108.1636,78.82475 z" stroke="Black" stroke-width="0" fill="#CA986C" fill-opacity="1.0" />
  <path d="M113.8955,67.45229 L114.2482,67.53301 L114.4851,68.1051 L114.4307,69.46512 L113.8709,71.86051 L113.3252,74.25063 L112.897,76.29154 C112.7829,76.76185 112.7057,76.91277 112.5004,77.01455 L111.73,77.16722 L111.2685,77.04438 L111.0702,76.73727 L111.1035,76.02129 L111.4212,74.96487 L112.1582,73.04153 L112.718,70.40046 L112.9514,68.68069 L113.4112,67.84187 z" stroke="Black" stroke-width="0" fill="#CA986C" fill-opacity="1.0" />
  <path d="M115.7884,57.10479 C115.5773,57.1362 115.5377,57.12855 115.6364,56.97274 L116.3892,56.03631 L118.0115,54.2989 L119.9397,52.48619 L122.1694,50.51319 L124.1907,48.79313 L125.1871,48.09947 L125.7187,48.12505 L126.6494,48.60223 L127.0539,49.08855 L127.0579,50.64793 L126.5623,53.97913 C126.34,55.06258 126.0866,55.87059 125.6286,56.84194 L123.724,60.15622 L121.5407,63.3404 L120.9342,64.21008 L121.0968,64.45019 L121.9758,65.17015 L123.2627,66.54154 L124.4998,68.54989 L124.8336,69.75988 L124.7377,70.50836 L124.2234,70.96324 L123.5341,71.16447 L122.2662,71.05969 L121.5143,70.62705 L120.4889,69.61427 L119.4652,68.92364 L119.1612,68.82658 L119.2327,69.17104 L119.6012,70.55035 L119.9358,72.37313 L120.1164,73.87898 C120.1234,74.2089 120.058,74.29769 119.8351,74.4247 L118.9862,74.81345 L118.5406,74.92887 L118.0601,74.31503 L116.8425,72.12107 L116.5143,71.43685 L116.6564,71.20122 L116.8039,71.06416 L116.925,71.06721 L117.1829,71.25883 L117.5538,71.57072 L117.7543,71.72416 L117.8153,71.56931 L117.5732,70.66252 L117.1529,69.00563 L116.9451,67.59873 L116.9293,67.0442 L117.1259,66.8494 L117.7594,66.71954 L118.686,66.74938 L119.7389,67.02139 L120.5953,67.64963 L121.0849,67.77247 L121.0718,67.26662 L120.438,66.23132 L119.0117,64.86417 L117.1158,63.64638 L116.0471,63.26031 L115.5049,63.21819 L115.4154,63.05674 L115.6646,62.62329 L115.8523,62.37234 L116.17,62.29338 L116.6245,62.26003 L117.2159,62.34076 L118.0336,62.76719 L119.0041,63.38315 L119.3629,63.58379 L119.8119,62.79789 L121.4805,59.60299 L123.4411,55.70196 L124.582,52.09245 C124.7756,51.32744 124.7719,51.27114 124.685,51.2742 L124.0553,51.62323 L122.2863,53.09165 L119.4369,55.29677 L117.001,56.72611 z" stroke="Black" stroke-width="0" fill="#CA986C" fill-opacity="1.0" />
  <path d="M104.0708,69.70673 L103.7057,67.93811 L103.5776,65.35948 L103.8474,61.78791 C104.0239,60.65117 104.2951,59.7263 104.7332,58.65614 L106.2086,55.55269 L107.3391,53.79367 L108.9653,52.18487 L110.5149,51.24543 L111.6624,51.09832 L112.4353,51.43533 C112.6707,51.66 112.9114,52.02911 113.088,52.63894 L113.5052,55.28421 L113.8239,59.23048 L113.7516,61.96171 C113.6861,62.4857 113.6079,62.5686 113.4467,62.66186 L112.8203,62.88062 L112.2585,62.75628 L111.9752,62.24392 L111.8553,60.64504 L111.661,57.62632 L111.5061,54.25246 L111.3794,53.39212 L110.7923,53.89311 L109.4032,55.6043 C108.8244,56.4146 108.15,57.48157 107.6742,58.71752 C107.1983,59.95346 106.9211,61.35838 106.6961,62.73313 L106.2403,66.43027 L106.3424,68.65162 L106.6978,70.43465 L106.8082,71.44857 C106.7714,71.62839 106.6501,71.65005 106.4768,71.63705 L105.7857,71.56655 C105.4933,71.55672 105.1337,71.5847 104.8236,71.26884 C104.5134,70.95299 104.2526,70.29329 104.0708,69.70673 z" stroke="Black" stroke-width="0" fill="#CA986C" fill-opacity="1.0" />
  <path d="M74.3043,71.43831 C79.12809,70.05965 81.43086,70.07056 83.14691,70.16058 L86.79874,70.59869 C87.6052,70.77763 88.08882,70.96637 88.73193,71.38428 L90.69616,73.02557 C91.21465,73.60181 91.449,74.10722 91.53616,74.51424 L91.47273,75.31841 C91.38216,75.40691 91.26103,75.27525 91.13171,75.05812 L90.58573,74.21767 L89.37926,73.26902 L87.55955,72.50413 L84.9395,71.88702 C83.88969,71.7389 82.63947,71.67547 81.02779,71.73452 C79.41611,71.79357 77.44296,71.9751 71.63816,73.8312 z" stroke="Black" stroke-width="0" fill="#CA986C" fill-opacity="1.0" />
  <path d="M70.19123,75.2679 C78.2319,74.2068 80.82044,74.41766 82.50435,74.61053 C84.18826,74.80342 84.96751,74.97832 85.69997,75.27707 C86.43243,75.57581 87.11807,75.9984 87.63133,76.5468 C88.14459,77.09521 88.48546,77.76944 88.67324,78.30963 L88.87456,79.58524 L88.70166,80.23782 L88.41152,79.94678 L87.78526,78.93073 C87.51644,78.55886 87.19303,78.20779 86.54391,77.84383 L83.93549,76.83385 L80.80534,76.30948 C79.65369,76.21573 78.34446,76.18969 76.45053,76.32005 C74.5566,76.4504 72.07798,76.73715 67.5224,77.99635 L69.49888,75.97205 z" stroke="Black" stroke-width="0" fill="#CA986C" fill-opacity="1.0" />
  <path d="M65.56788,80.05663 C72.69587,77.89087 75.29456,78.05875 77.20468,78.31948 C79.1148,78.58022 80.33637,78.93382 81.24136,79.31098 C82.14634,79.68814 82.73475,80.08886 83.28405,80.50712 C83.83336,80.92538 84.34356,81.36117 84.72269,81.90809 C85.10183,82.455 85.3499,83.11304 85.47557,83.72855 L85.57935,85.26939 L85.44263,85.7965 L85.23077,85.64028 L84.8794,84.89952 L84.33679,83.78234 L83.20491,82.44765 C82.65106,81.94769 81.87605,81.3756 80.83266,80.89912 C79.78925,80.42265 78.47746,80.04179 76.14862,79.94511 C73.81979,79.84844 70.47391,80.03595 63.04821,82.90417 L64.54328,81.18173 z" stroke="Black" stroke-width="0" fill="#CA986C" fill-opacity="1.0" />
  <path d="M92.44769,60.03279 L93.92739,59.38894 L95.45673,58.7402 L98.64707,58.84478 L100.836,59.35412 L102.0943,59.99668 L102.8515,60.76186 L102.9987,61.33827 C102.9897,61.4577 102.9612,61.48476 102.9374,61.46961 L102.8226,61.28403 L102.3135,60.80513 L101.0984,60.20597 L99.87325,59.79528 L97.57311,59.59118 C96.53451,59.57299 95.19755,59.61763 92.44769,60.03279 z" stroke="Black" stroke-width="0" fill="#CA986C" fill-opacity="1.0" />
  <path d="M82.52122,33.73828 L83.20779,33.53272 L84.67229,33.50571 L85.22166,33.56941 L85.21997,33.90543 L84.9876,34.57615 L84.28082,35.68463 L83.26816,36.89824 L82.23434,37.43713 L81.22569,37.35923 L80.02338,36.70424 C79.76013,36.50073 79.76573,36.3941 79.81422,36.22192 L80.23891,35.59899 L81.32906,34.99644 L82.00938,34.35284 z" stroke="Black" stroke-width="0" fill="#DE8139" fill-opacity="1.0" />
  <path d="M52.87776,97.86669 L50.57365,101.2967 C49.51366,102.9888 48.61729,104.5456 47.39254,107.0477 C46.16779,109.5497 44.61466,112.9969 43.20359,116.8702 C41.79251,120.7436 40.52349,125.0431 39.68064,128.9827 C38.83778,132.9223 38.42109,136.5021 38.17487,139.9777 C37.92863,143.4533 37.85287,146.8247 38.11804,150.3382 C38.38321,153.8517 38.98931,157.5072 39.69701,160.3616 C40.40471,163.2159 41.21401,165.2691 41.86115,166.7518 L43.28312,169.8396 C43.57296,170.5324 43.66767,171.006 43.61084,171.2901 C43.55402,171.5742 43.34568,171.6689 43.07104,171.6878 L42.01984,171.4321 L40.59929,170.4377 C40.14472,170.04 39.76591,169.6233 39.18822,168.3164 L36.96803,162.1076 C36.10208,159.4027 35.14676,156.1902 34.58211,152.4403 C34.01746,148.6904 33.84348,144.4031 34.01746,140.6004 C34.19144,136.7978 34.71337,133.4798 35.40928,129.8698 C36.10518,126.2598 36.97507,122.3577 38.1432,118.5861 C39.31133,114.8146 40.7777,111.1735 42.55943,107.2581 C44.34116,103.3428 46.43825,99.15317 49.00563,95.00255 L51.37053,91.36747 L50.84914,88.74739 C50.28251,85.67696 49.88181,82.55837 49.63746,79.21707 C49.39311,75.87577 49.30511,72.31177 49.41511,68.48376 C49.52511,64.65575 49.83311,60.56375 50.31711,56.84574 C50.80111,53.12774 51.46112,49.78373 52.70552,45.60286 C53.94992,41.42199 55.77873,36.40425 57.22717,32.98222 C58.67562,29.56018 59.7437,27.73384 60.80363,25.93604 L63.88319,20.94606 C64.85104,19.52315 65.73496,18.44659 67.00905,17.16864 C68.28314,15.8907 69.9474,14.41136 71.66118,13.23912 C73.37496,12.06688 75.13828,11.20173 76.37325,10.73614 C77.60824,10.27055 78.31488,10.2045 78.75076,10.25734 C79.18663,10.31017 79.35174,10.48188 79.35733,10.69889 C79.36293,10.91591 79.20901,11.17823 78.81638,11.438 L76.9389,12.45773 C76.0854,12.96047 75.00977,13.70874 73.73537,14.81946 C72.46098,15.93017 70.98782,17.40332 69.60542,19.0013 C68.22304,20.59927 66.93141,22.32205 65.4276,24.74545 C63.92379,27.16884 62.20779,30.29285 60.6552,34.23015 C59.10261,38.16745 57.71344,42.91804 56.9219,46.1149 C56.13035,49.31176 55.93644,50.95488 55.83966,51.92435 L55.77364,53.2822 C55.80402,53.37475 55.86441,53.26403 56.106,52.801 L57.34912,50.68718 L59.37235,48.26636 L61.60696,46.25823 C62.44745,45.58382 63.44397,44.83895 64.73708,44.14362 C66.03018,43.44828 67.61989,42.80247 68.96069,42.34958 L72.13436,41.52189 L73.51659,41.50456 L73.94122,41.79053 L73.97155,42.14367 L73.63358,42.50548 L72.8914,43.01853 L72.62428,43.61483 L72.60138,44.87099 L72.7292,46.24454 L72.94151,47.27363 L73.38782,47.7156 L74.18726,47.81526 C74.45374,47.82609 74.67471,47.83043 75.08202,47.54445 L76.76322,45.97374 L78.74773,43.76824 L79.86998,42.34918 L80.55893,41.90722 L80.99768,42.02409 L81.63004,42.57016 C81.76942,42.72229 81.74696,42.77112 81.6099,43.13778 L80.93433,45.22065 L80.16429,48.70845 L80.04853,51.08901 L80.32534,52.03017 C80.46626,52.16102 80.65752,52.14089 80.98969,52.04023 C81.32185,51.93957 81.79495,51.75839 82.48949,51.02862 L85.09653,47.54082 L88.47361,42.04992 L92.52007,34.18349 L95.43411,27.47967 L97.87203,21.49253 L100.6071,15.74671 L101.7609,13.54433 L102.1417,13.14071 L102.633,13.23723 L103.8755,13.86723 L104.2019,14.18236 L103.6009,15.46918 L101.1527,20.79465 C100.2407,23.03946 99.42231,25.51811 98.88345,28.23648 C98.34457,30.95486 98.08526,33.91296 97.92706,36.13804 L97.7281,40.75612 L97.93894,42.24509 C98.04379,42.52329 98.16381,42.76987 98.4511,42.83635 C98.7384,42.90282 99.19297,42.78917 99.64754,42.45771 L101.2101,40.81935 L103.7861,37.68468 L107.3184,32.63417 L110.5112,27.58423 L113.3937,22.79917 L116.5643,17.31086 L117.964,15.03444 C118.1763,14.74267 118.2359,14.73214 118.5711,14.9164 L119.8448,15.68501 C120.1727,15.8903 120.2177,15.92184 119.9713,16.47543 L118.544,19.4492 C117.9009,20.79375 117.1527,22.4072 116.5447,24.60525 C115.9367,26.80329 115.4691,29.58592 115.1665,32.17122 C114.864,34.75651 114.7266,37.14447 114.7635,38.7796 C114.8005,40.41474 115.0117,41.29705 115.2416,41.93704 C115.4715,42.57702 115.7201,42.97469 116.0369,43.2605 C116.3538,43.54632 116.7391,43.7203 117.2237,43.60846 C117.7084,43.49662 118.2924,43.09895 119.3363,42.15451 C120.3801,41.21006 121.8838,39.71883 123.4558,37.84237 L127.9978,31.96444 L131.0238,28.32335 C131.7011,27.63987 132.0366,27.49074 132.3473,27.43482 C132.6579,27.3789 132.9438,27.41618 132.9873,27.83249 L132.5275,30.4732 L131.5022,35.62416 L130.9617,39.43301 C130.943,40.32775 131.117,40.86211 131.3158,41.21006 C131.5147,41.55801 131.7383,41.71957 132.018,41.75063 C132.2976,41.7817 132.6331,41.68229 133.3476,41.17278 L136.1623,38.71846 C137.1689,37.69324 138.0885,36.56239 139.2628,34.79156 L143.1227,28.46372 L146.1332,23.23921 L147.2149,21.25865 C147.3691,20.98698 147.4202,20.95571 147.9703,21.08506 L150.1473,21.71503 C150.7251,21.92568 150.8318,22.057 150.7214,22.76571 L149.7926,26.71302 C149.3015,28.66553 148.6468,31.28448 147.9421,35.86115 L146.0905,50.34507 C145.6981,53.71795 145.6679,53.92933 145.839,53.96456 L147.2482,53.63742 L150.9675,52.88249 L155.5123,52.40939 L159.1208,52.35907 L161.4611,52.55032 L162.815,53.00328 C163.1119,53.21466 163.2529,53.4965 163.3082,53.70788 C163.3636,53.91927 163.3334,54.06019 163.1774,54.15078 L162.2412,54.3068 L160.0519,54.31183 L156.4433,54.33196 C155.0492,54.45275 153.4991,54.76479 151.957,55.21213 L147.7895,56.70591 C146.6981,57.16972 146.0494,57.51473 145.7061,57.84823 C145.3627,58.18172 145.3249,58.50372 145.2396,60.98493 L144.7851,73.0785 L143.9076,86.7169 C143.6078,90.08003 143.3491,91.50294 142.7819,93.20587 C142.2147,94.90881 141.339,96.89177 140.6294,98.43184 C139.9197,99.97191 139.3762,101.0691 138.5531,102.1791 L136.0237,105.0455 L135.239,105.8755 L134.9951,105.6614 L134.5476,104.6752 L134.3155,103.8613 C134.2572,103.6511 134.1897,103.494 134.5837,102.7383 C134.9776,101.9825 135.833,100.6282 136.5636,98.95312 C137.2942,97.27804 137.9001,95.2822 138.31,93.92787 C138.7198,92.57355 138.9337,91.86075 139.2188,89.97182 C139.5039,88.0829 139.8603,85.01786 140.2327,79.98622 L141.1853,64.41811 L141.3425,60.76242 L140.6516,61.28202 C140.0461,61.84077 138.8907,62.95826 137.6501,64.51139 C136.4095,66.06451 135.0837,68.05328 133.9188,69.89999 L131.1019,74.62342 L129.8139,77.36724 L128.809,80.20387 C128.5522,80.88324 128.4398,81.01698 128.282,81.0571 C128.1242,81.09721 127.921,81.04372 127.6267,80.69601 L126.6558,79.23296 L126.0487,78.15506 C125.931,77.85549 125.8935,77.56127 125.9845,77.01831 L126.589,74.78762 L127.7738,71.83208 L129.8815,68.37104 L132.9868,64.359 L135.8862,61.04506 L138.5823,58.65389 L140.813,56.85649 L141.6475,56.20922 L141.9477,54.28129 L142.7265,45.86523 L143.8972,37.14658 L144.2503,34.73406 C144.2726,34.53886 144.2665,34.47776 144.1714,34.53159 L143.4703,35.32183 L141.3914,38.06035 L137.8244,41.89582 C136.5894,43.08482 135.4541,44.02067 134.3112,44.48093 C133.1682,44.94118 132.0175,44.92584 131.0817,44.68037 C130.1458,44.4349 129.4248,43.9593 128.9338,43.52206 C128.4429,43.08482 128.1821,42.68593 127.975,42.14129 C127.7678,41.59665 127.6144,40.90627 127.5914,39.97808 C127.5684,39.0499 127.6758,37.88392 127.9181,36.88171 L128.7207,34.58829 L128.8546,34.06243 L128.2539,34.75459 L125.7176,38.22449 C124.6116,39.82135 123.3316,41.78481 122.1511,43.19526 C120.9705,44.60572 119.8894,45.46317 118.9201,45.96646 C117.9508,46.46975 117.0933,46.61888 116.385,46.64373 C115.6766,46.66858 115.1174,46.56917 114.6203,46.33306 L113.3279,45.33269 L112.3189,43.76094 C111.9561,42.99073 111.5163,41.8604 111.2777,40.76088 C111.0392,39.66136 111.0019,38.59264 111.1282,36.8964 L111.8651,31.08606 L112.6913,27.40775 C112.8456,26.77663 112.8028,26.77128 112.7547,26.83012 L112.1974,27.87484 L109.7606,32.35962 L106.1207,38.7374 L103.3619,43.06888 C102.596,44.06858 101.9301,44.65877 101.2108,45.07604 C100.4914,45.49331 99.71875,45.73766 98.96257,45.8004 C98.2064,45.86314 97.46673,45.74427 96.81952,45.44167 C96.17231,45.13907 95.61756,44.65275 95.21471,44.12772 C94.81185,43.60268 94.56089,43.03894 94.39249,42.24525 C94.22408,41.45156 94.13822,40.42791 94.22682,39.12167 L94.70463,35.3252 L94.75323,34.18039 L94.229,34.90524 L92.89413,37.52757 L91.34623,40.93949 L88.52964,46.4309 L85.86407,51.10342 C85.08739,52.29641 84.42876,53.06688 83.7515,53.70065 C83.07423,54.33442 82.37832,54.8315 81.61407,55.13596 C80.84981,55.44042 80.0172,55.55226 79.31509,55.48391 C78.61296,55.41557 78.04132,55.16703 77.64366,54.70102 C77.246,54.23501 77.02232,53.55153 76.91669,52.86184 L76.95609,50.59725 L77.47092,48.08364 L77.59731,47.39247 C77.58825,47.35696 77.56408,47.36905 77.47494,47.44233 L76.93424,47.89553 L75.7808,48.72308 L74.38464,49.07681 C73.79324,49.11015 73.00005,49.08207 72.50425,48.90269 C72.00845,48.7233 71.81004,48.39261 71.60772,47.96981 L71.12626,46.40273 L71.11379,44.6378 C71.11379,44.24601 71.05336,44.20622 70.90949,44.2242 L69.91331,44.64941 L67.10063,46.35406 C65.93578,47.14009 64.62888,48.12501 63.21781,49.4982 C61.80674,50.87139 60.29149,52.63287 59.14333,54.13864 C57.99518,55.64442 57.21411,56.8945 56.44702,58.84538 C55.67992,60.79626 54.9268,63.44794 54.55024,66.54472 C54.17368,69.64151 54.17368,73.1834 54.59402,77.73585 L55.53495,85.57619 L57.14979,83.46481 C59.68887,80.18932 61.72934,77.74997 64.10733,75.30294 C66.48532,72.85591 69.20084,70.40121 71.70923,68.31471 C74.21763,66.22822 76.51891,64.50993 79.18839,62.81465 C81.85788,61.11937 84.89557,59.44711 87.4531,58.27555 C90.01064,57.104 92.08801,56.43314 94.06792,55.99443 C96.04784,55.55573 97.93029,55.34916 99.23458,55.27888 L101.8508,55.35461 L103.4248,55.6928 L104.9349,56.25902 L105.2864,56.59032 L105.2496,56.69341 L104.4959,56.75807 L101.67,57.0123 C100.6136,57.12469 99.6506,57.25574 98.4284,57.62858 L93.92739,59.38894 L88.36379,61.96642 L87.92315,62.19593 L84.76823,63.99328 L81.39822,66.17495 L81.09393,66.38239 C78.81553,67.94107 76.31352,69.77551 74.40541,71.35442 L74.3043,71.43831 L71.63816,73.8312 L70.19123,75.2679 L69.49888,75.97205 L67.5224,77.99635 L65.56788,80.05663 L64.54328,81.18173 L63.04821,82.90417 L60.83047,85.61208 L60.09332,86.55489 L60.09336,86.60062 L60.40762,86.45444 L62.084,85.61751 L64.77245,84.48913 L67.98385,83.78543 L71.39317,83.32687 L75.00356,83.46034 C76.27758,83.59898 77.64713,83.81416 78.70445,84.12818 C79.76177,84.4422 80.50686,84.85503 81.16004,85.39904 L82.80727,87.1562 L83.69276,88.47526 L83.77661,89.46847 L83.48212,89.94104 L83.0843,89.98031 L82.79298,89.77977 L82.1452,89.03278 L79.98146,87.34668 C79.24162,86.82327 78.688,86.49109 77.44991,86.19415 C76.21181,85.89721 74.28925,85.6355 72.41197,85.75629 C70.5347,85.87708 68.70273,86.38036 66.82545,87.06987 C64.94818,87.75938 63.02561,88.63511 61.70196,89.34978 C60.3783,90.06445 59.65357,90.61807 58.48321,91.69126 L56.68179,93.42838 L57.03704,96.34299 L56.96708,98.62672 L56.65876,101.3681 L56.32131,102.8032 C56.14494,103.0424 55.85683,103.0948 55.61802,103.1105 L55.02121,103.0402 L54.55968,102.7296 L54.08587,102.0154 L53.46943,100.2097 z" stroke="Black" stroke-width="0" fill="#DE8139" fill-opacity="1.0" />
  <path d="M81.57837,89.87782 C81.70472,90.12 81.62576,90.7886 81.54766,91.2159 L81.14174,92.09792 L79.97649,93.21772 L77.9909,95.68793 C77.05312,97.01019 75.73476,99.00655 74.70625,100.8665 C73.67773,102.7265 72.93904,104.4501 72.19089,106.4388 L69.99378,112.7839 L68.28781,118.5814 C67.89822,120.3256 67.74406,121.863 67.63002,123.2507 L67.50426,125.1813 L67.5174,126.9805 C67.59272,128.0848 67.81726,129.0556 68.18379,129.8977 C68.55032,130.7397 69.05885,131.453 69.88437,131.9615 C70.65392,132.4355 71.69894,132.7316 72.72787,132.8258 L72.95201,132.8431 C74.05161,132.9125 75.10827,132.7474 76.15833,132.1926 C77.2084,131.6379 78.25186,130.6935 79.02963,130.0111 L80.88262,128.4078 L82.67744,126.6787 L84.3549,124.8889 L85.40166,124.1955 L86.52766,123.9379 L87.25986,123.9322 L87.62838,124.1836 L87.62883,124.6909 L87.03744,125.2875 L85.89853,125.7456 L84.82104,126.1702 L84.03487,126.8371 L83.41013,127.8531 L83.30835,129.0061 L83.7962,130.0274 C84.06645,130.3222 84.45252,130.5609 84.92458,130.6767 C85.39664,130.7925 85.95469,130.7855 86.57942,130.5258 C87.20415,130.2661 87.89557,129.7537 88.35007,129.2623 C88.80459,128.7709 89.02219,128.3006 89.17136,127.876 L89.39597,126.7844 L89.10993,126.1702 L88.45186,125.8333 L88.19565,125.2437 L88.40097,124.6558 L89.03799,124.4294 L90.11021,124.6751 L91.24432,125.3029 L92.21803,126.1303 L92.7774,126.9086 C92.90578,127.0959 92.99137,127.1708 93.29093,127.1601 L94.59351,126.8979 L96.25182,126.2212 L98.57819,125.1547 L100.0228,124.2854 L100.8781,123.9704 L101.6992,124.0533 L102.7424,124.7033 C103.0392,125.0135 103.2158,125.4094 103.2131,125.8427 C103.2104,126.276 103.0285,126.7467 102.8333,127.1132 L102.1513,128.1483 L101.2766,129.63 L100.8273,131.0476 L100.9102,131.9543 L101.3194,132.377 C101.52,132.4438 101.7982,132.4385 102.2261,132.2593 L102.9562,131.8626 L103.8871,131.1412 L105.8878,129.0844 L106.1981,128.7572 L107.3936,127.5786 L108.4822,126.7414 L109.6965,126.2492 C110.0897,126.185 110.4321,126.2599 110.8226,126.4926 C111.2131,126.7253 111.6517,127.1158 111.946,127.7818 C112.2402,128.4478 112.39,129.3893 112.5371,130.1382 C112.6842,130.8871 112.8286,131.4435 113.072,131.8099 C113.3154,132.1763 113.6578,132.3529 114.0483,132.4224 C114.4388,132.492 114.8774,132.4545 115.3803,132.2004 C115.8831,131.9463 116.4501,131.4756 117.1509,130.7427 L119.2425,128.3007 L120.4756,126.7574 C120.8741,126.3616 121.393,126.0032 121.9252,125.8293 C122.4575,125.6554 123.0031,125.6662 123.4712,125.7277 L124.5277,126.0834 C124.7256,126.2653 124.731,126.5167 124.6133,126.6799 L123.8342,127.039 L122.4567,127.5479 C122.1007,127.7684 121.9895,128.0419 121.9636,128.3487 L122.139,129.238 C122.281,129.4803 122.5056,129.6247 122.8025,129.6541 L124.1506,129.4401 C124.8326,129.2823 125.8276,129.0523 126.638,128.6752 C127.4485,128.298 128.0744,127.7738 128.6869,127.1453 L130.5137,125.2088 L132.3645,123.8447 L134.0817,122.8845 L135.5769,122.3174 L136.8875,122.2987 L137.9894,122.9727 C138.3398,123.3178 138.6875,123.7832 138.7678,124.2298 C138.848,124.6765 138.6608,125.1045 138.4348,125.5391 L137.6753,126.7221 L136.7544,127.4367 L135.1707,128.364 L132.8655,129.5296 C132.2329,129.7939 131.9209,129.8199 131.544,129.7939 C131.167,129.7679 130.725,129.6899 130.4,129.4559 L130.1934,129.9306 L130.0984,130.4317 L130.304,131.2571 C130.476,131.5001 130.7859,131.6337 131.2663,131.7091 C131.7468,131.7844 132.3978,131.8015 133.2052,131.5797 C134.0126,131.358 134.9763,130.8974 136.1843,130.2 L140.1511,127.6974 L143.5199,125.3714 L145.52,123.8992 L146.5426,123.2793 L147.4259,123.2756 L148.0542,123.6504 L148.1938,123.9004 L147.9333,124.0989 L146.8874,125.1624 L145.7031,126.9743 L145.326,128.2234 L145.318,128.7584 C145.3447,128.8279 145.3982,128.7905 146.0161,128.2154 L148.7015,125.7627 L150.7102,124.297 L152.3551,123.738 C152.9837,123.6123 153.7593,123.5106 154.2996,123.5989 C154.8399,123.6871 155.1448,123.9653 155.5326,124.3772 L156.6426,125.8082 C156.894,126.2816 156.9261,126.6828 156.9261,127.1241 L156.7978,128.3919 L156.2601,129.2157 L155.2732,130.0021 L154.6072,130.2268 L154.2969,130.1278 L154.1124,129.6731 L153.7807,128.6487 L153.8663,128.0656 L154.3049,127.6484 L154.2167,127.2017 L153.7861,126.7042 L152.9837,126.747 L151.6811,127.6484 L149.2123,130.0984 L146.42,133.3241 C145.6924,134.0917 145.3233,134.2629 144.9195,134.41 L143.657,134.7336 L142.5069,134.6213 C142.1779,134.4715 141.9211,134.188 141.75,133.8429 L141.4557,132.6554 L141.5226,131.294 L142.0629,129.8978 L143.0338,128.4909 L143.8416,127.5253 L143.9967,127.0439 L143.8763,126.64 L143.6543,126.541 L142.9108,127.1027 L140.0703,129.4137 L136.5504,132.3906 L133.766,134.1639 C132.9984,134.5785 132.3885,134.8834 131.7814,134.985 C131.1742,135.0867 130.5697,134.985 129.9144,134.8272 C129.2591,134.6694 128.553,134.4554 128.0609,134.0382 C127.5687,133.6209 127.2906,133.0004 127.1635,132.3933 C127.0365,131.7861 127.0606,131.1923 127.1408,130.2776 L125.3584,130.8143 L124.1656,131.0074 L123.1813,131.0089 L122.0941,130.8681 L121.6912,130.6761 L121.4495,130.2441 L121.2188,129.6799 L121.1503,129.5233 L121.0738,129.631 L120.6304,130.3972 L119.2498,132.2812 L117.4621,134.0472 L116.9528,134.437 C116.1317,135.0204 115.3214,135.367 114.5805,135.6161 L113.4,135.9274 L112.5223,135.9888 C111.8767,135.9606 111.2571,135.7526 110.8356,135.5868 L109.9666,135.0338 L109.3601,133.9296 L109.1495,132.4836 L109.4531,130.9569 L109.5742,130.3339 L109.5145,130.2181 L109.3337,130.2778 L108.7143,130.7779 L107.1489,132.1906 L105.2151,133.7419 L104.4678,134.2804 L103.3567,134.9878 L101.5439,135.8547 L101.2819,135.9437 L100.1365,136.1443 L98.75541,136.0197 C98.39215,135.9003 98.20965,135.6898 98.06575,135.3827 L97.74461,134.1332 L97.67617,132.1835 L97.99457,129.9813 L98.49797,128.3641 L98.90129,127.4297 L98.98515,127.1298 L98.52745,127.2464 L97.08042,127.8405 L95.26809,128.5655 L94.01437,128.7901 L92.96962,128.5342 L92.37688,128.294 L92.06843,128.2158 L91.92202,128.3181 L91.73782,128.741 L91.36028,129.7504 L90.52025,131.228 L88.84786,132.8336 L87.17021,133.7374 L85.37849,134.0901 C84.78886,134.134 84.23783,134.1059 83.74296,133.9041 C83.24809,133.7023 82.80937,133.3268 82.48823,132.9372 L81.80734,131.7439 L81.48621,130.619 L81.39957,129.9182 C81.3726,129.8053 81.32216,129.8392 81.14727,130.0311 L80.14427,131.1238 L77.92025,133.1814 C76.98312,133.9368 75.86702,134.6963 74.85328,135.2213 L74.72475,135.2869 C73.76221,135.7708 72.89032,136.0435 72.0366,136.1921 L70.98055,136.3169 L69.58315,136.3011 L67.82973,135.8388 C67.27499,135.5945 66.674,135.2576 66.14568,134.518 C65.61734,133.7783 65.16165,132.6358 64.87107,131.5791 L64.36255,128.5412 C64.27927,127.6311 64.22279,126.6889 64.36606,124.9876 L64.42099,124.3959 L65.21767,119.0048 L65.68904,116.7881 C66.26662,114.3846 66.94166,112.697 67.69341,110.9403 L70.15578,105.4556 C71.03794,103.5532 71.97379,101.5741 73.08608,99.67939 C74.19837,97.78467 75.48708,95.97433 76.69427,94.45171 L79.77769,90.96968 L81.15478,89.91615 z M131.463,127.4935 L131.4772,127.7437 L131.6833,127.782 L132.3713,127.593 L133.8311,126.8808 L135.6449,125.6868 L136.583,124.7089 L136.7834,124.2725 L136.7067,124.0891 L136.1637,124.119 L135.2454,124.5326 L133.9235,125.2704 L132.0699,126.6719 z" stroke="Black" stroke-width="0" fill="#DE8139" fill-opacity="1.0" />
</svg>