<?xml version="1.0" encoding="UTF-8" standalone="no"?>
<!DOCTYPE svg PUBLIC "-//W3C//DTD SVG 1.1//EN" "http://www.w3.org/Graphics/SVG/1.1/DTD/svg11.dtd">
<svg width="48pt" height="48pt" viewBox="0 0 48 48" overflow="visible" version="1.1" xmlns="http://www.w3.org/2000/svg">
  <path d="M21.22687,16.12355 L22.01123,15.67639 L22.11973,15.61988 C22.75111,15.43678 23.32114,15.45479 23.71861,15.48644 L24.52937,15.60759 L25.01296,15.7559 L25.40387,16.00315 L25.64981,16.33021 C25.69217,16.41514 25.68609,16.44994 25.64466,16.41968 L25.40423,16.20675 L24.92043,15.97753 L24.24573,15.83634 L23.32013,15.79274 z" stroke="Black" stroke-width="0" fill="#CA986C" fill-opacity="1.0" />
  <path d="M30.54293,29.25489 L30.72669,28.95162 L30.98281,28.6711 L31.28283,28.52069 L31.59505,28.46377 L31.704,28.34587 L31.72677,28.12553 L31.74141,27.98893 L31.83979,27.94503 L32.0398,27.96129 L32.17234,28.03609 L32.20649,28.21578 L32.27722,28.41824 L32.46017,28.54833 L32.58863,28.78737 L32.51708,29.0004 L32.25608,29.10122 L32.07558,29.0874 L31.84711,29.14188 L31.60806,29.34271 L31.42024,29.75006 L31.23323,29.95902 L31.04216,29.95902 L30.83726,30.0013 L30.61123,29.99642 L30.47382,29.81592 L30.4356,29.56712 z" stroke="Black" stroke-width="0" fill="#CA986C" fill-opacity="1.0" />
  <path d="M29.28463,33.3684 L29.31787,33.36181 L29.77447,33.30193 L30.00177,33.33879 L30.25781,33.50413 L30.39169,33.63823 L30.38459,33.71401 L30.22441,33.77562 L29.67532,33.91278 L28.8721,34.18511 L28.07658,34.66298 L27.09737,35.36542 L26.42824,35.88974 L25.80515,36.46703 L25.44089,36.94234 L25.33459,37.08321 L25.30132,37.02531 L25.31428,36.77123 L25.37582,36.45229 L25.44,36.32693 L25.63669,36.10043 L26.04675,35.72468 L26.66108,35.16657 L27.40121,34.51045 L28.0565,33.98553 L28.28443,33.83137 L28.5751,33.75473 L29.15923,33.46438 z" stroke="Black" stroke-width="0" fill="#CA986C" fill-opacity="1.0" />
  <path d="M26.08504,33.42582 L25.75934,34.52001 L25.18954,36.67469 L24.83527,38.121 L24.43063,40.3118 L24.09903,43.0274 L23.94604,44.58945 L23.76282,45.2581 L23.53239,45.50554 L23.32084,45.43753 L23.22451,45.19577 L23.2094,44.73489 L23.27362,43.72626 L23.38506,42.39464 L23.5985,40.66448 L23.86131,39.04857 L24.11737,37.90574 L24.45599,36.60723 L24.75033,35.51689 L25.1715,34.17044 L25.30058,33.83538 L25.36508,33.81347 L25.81144,33.60002 z" stroke="Black" stroke-width="0" fill="#CA986C" fill-opacity="1.0" />
  <path d="M17.39143,34.7892 L17.34939,34.45216 L17.44776,34.30224 L17.56939,34.22542 L17.66355,34.23427 L17.78768,34.37703 L18.03998,34.9348 L18.51377,36.20259 L19.08995,38.01144 L19.632,39.47297 L19.77052,39.9026 L19.69926,40.03309 L19.45634,40.20173 L19.28168,40.28605 L19.18531,40.26397 L19.04779,39.9819 L18.6636,38.92141 L18.17432,37.34916 L17.72735,35.93898 z" stroke="Black" stroke-width="0" fill="#CA986C" fill-opacity="1.0" />
  <path d="M16.21074,31.13764 L15.99693,30.53215 L15.79392,29.54811 L15.6194,28.53717 L15.62598,28.24673 L15.85978,28.19207 L15.9724,28.18088 L16.05209,28.34487 L16.1792,28.89413 L16.39914,29.6015 L16.42043,29.6645 L16.22426,30.99196 z" stroke="Black" stroke-width="0" fill="#CA986C" fill-opacity="1.0" />
  <path d="M18.26968,33.06766 L17.56952,32.85484 L17.15078,32.34666 L16.9867,31.62836 L16.98346,31.18535 L17.38775,31.88772 L17.90807,32.61139 z" stroke="Black" stroke-width="0" fill="#CA986C" fill-opacity="1.0" />
  <path d="M18.76137,33.67366 L19.11583,34.09655 L19.5156,34.49895 L19.96344,35.02648 L20.61413,35.79506 L21.01851,36.30086 L21.10346,36.55902 L21.0349,36.75594 L20.85293,36.87449 L20.64633,36.81522 L20.48636,36.63147 L20.3744,36.55968 L20.33686,36.61896 L20.3505,36.91089 L20.43972,37.88702 L20.63388,39.8091 L20.82723,41.56537 L20.88964,42.44458 L20.83236,42.68864 L20.63509,42.81574 L20.34232,42.87618 L20.19778,42.74862 L20.12752,42.36045 L20.03591,41.46436 L19.94135,40.16232 L19.83287,38.62482 L19.76063,37.50837 L19.75309,36.70812 L19.7736,36.19973 L19.76651,36.04244 L19.56645,35.82217 L18.75815,34.9945 L18.07266,34.24667 L17.83943,33.92729 L18.09946,33.89656 z" stroke="Black" stroke-width="0" fill="#CA986C" fill-opacity="1.0" />
  <path d="M22.27682,20.56339 L22.44677,20.42467 L22.48847,20.4952 L22.48847,20.87572 L22.47221,21.7384 L22.47058,22.1181 L22.62344,22.37178 L23.14462,22.945 L23.78208,23.73531 L24.20894,24.40366 L24.32196,24.67686 L24.27643,24.82158 L24.14471,24.97932 L24.00974,24.99883 L23.68695,24.79394 L23.0477,24.08398 L22.16584,23.11857 L21.80509,22.72141 L21.79404,22.40028 L21.87825,21.70913 L21.96132,21.03562 L22.03818,20.81076 z" stroke="Black" stroke-width="0" fill="#CA986C" fill-opacity="1.0" />
  <path d="M29.03119,28.39461 L29.11616,28.2832 L29.22841,28.25869 L29.3463,28.29016 L29.42046,28.36271 L29.46953,28.49288 L29.53142,28.81935 L29.74853,29.36188 L30.3092,30.02177 L30.7205,30.35145 L30.99736,30.40266 L31.13926,30.31411 L31.3185,30.31037 L31.45454,30.36319 L31.51748,30.44481 L31.50682,30.60111 L31.422,30.70833 L31.23849,30.81503 L30.96696,30.93719 L30.62554,30.93719 L30.29,30.77662 L29.94485,30.54029 L29.62797,30.22022 L29.26362,29.7017 L29.03316,29.18317 L28.97853,28.7297 z" stroke="Black" stroke-width="0" fill="#CA986C" fill-opacity="1.0" />
  <path d="M27.39219,20.77763 L27.42544,20.69258 L27.60464,20.67613 L27.94065,20.72093 L28.41105,20.85288 L28.87586,21.03943 L29.24161,21.26098 L29.43796,21.50108 L29.50831,21.80419 L29.38511,22.17624 L29.09601,22.51994 L28.7684,22.53744 L28.4884,22.34774 L28.1888,21.97394 L28.04635,21.67224 L27.9347,21.35968 L27.6449,21.10278 L27.43104,20.90118 z" stroke="Black" stroke-width="0" fill="#CA986C" fill-opacity="1.0" />
  <path d="M24.42699,22.26198 L24.39326,21.74445 L24.45984,21.67152 L24.60972,21.68155 L24.77852,21.86368 L24.93457,22.2018 L25.18395,23.10447 L25.67354,25.11176 L25.90456,26.13071 L26.08509,26.43976 L26.5759,26.79543 L27.3989,27.55645 L28.14285,28.2609 L28.28212,28.55041 L28.30397,28.81614 L28.47361,29.25945 L28.71633,29.83078 L28.85503,30.06604 L29.08389,30.27142 L29.54776,30.59019 L30.07781,30.90374 L30.25475,31.04369 L30.2505,31.16645 L30.12944,31.30877 L29.92731,31.40204 L29.70853,31.38644 L29.27976,31.18065 L28.80228,30.85958 L28.4595,30.48648 L28.08173,29.76826 L27.88352,29.20162 L27.73428,28.92879 L27.36584,28.55102 L26.51704,27.81881 L25.60061,27.03763 L25.21818,26.27511 L24.7518,24.30933 z" stroke="Black" stroke-width="0" fill="#CA986C" fill-opacity="1.0" />
  <path d="M31.52067,30.75998 L31.88976,30.22212 L32.60566,29.30816 L32.83652,28.90864 L32.78549,28.55621 L32.44883,27.53465 L31.72163,24.80517 L30.87691,21.23654 L30.45675,19.2667 L30.31676,18.50915 L30.28135,18.12858 L30.33272,17.96063 L30.49392,17.89172 L30.69847,17.93847 L30.91678,18.4596 L31.38661,20.0261 L32.0614,22.46437 L33.09189,26.59707 L33.47459,28.16331 L33.54654,28.68016 L33.3674,29.06857 L32.81547,29.89827 L32.22865,30.68328 L31.86784,30.99742 L31.57661,31.02809 L31.45389,30.94211 z" stroke="Black" stroke-width="0" fill="#CA986C" fill-opacity="1.0" />
  <path d="M19.38056,17.38553 L20.32966,16.70722 L22.37707,16.31861 L23.44086,16.30696 L24.29743,16.41698 L24.76983,16.57986 L25.05699,16.80998 L25.21087,17.11032 L25.20723,17.32243 C25.1978,17.372 25.19398,17.40088 25.17494,17.37527 L25.08611,17.19695 L24.93333,16.98712 L24.59314,16.77871 L24.15523,16.65933 L23.60832,16.59939 L21.93533,16.74488 L23.00582,16.99495 L23.44871,17.25227 L23.71559,17.48723 L23.84886,17.70234 L23.90249,17.91849 L23.8652,18.1641 C23.85267,18.22485 23.85185,18.24471 23.84476,18.23792 L23.80314,18.13706 L23.68237,17.88941 L23.39868,17.5887 L23.04776,17.35504 L22.40429,17.1649 L21.54269,17.07689 C21.17096,17.0657 20.67477,17.07113 19.38056,17.38553 z" stroke="Black" stroke-width="0" fill="#CA986C" fill-opacity="1.0" />
  <path d="M27.01326,19.55788 L27.05213,19.50375 L27.16877,19.50669 L27.28324,19.5487 L27.36304,19.62675 L27.38544,19.8238 L27.41974,20.15945 L27.49534,20.35966 L27.53384,20.45836 L27.47084,20.52731 L27.38472,20.57829 L27.26703,20.5281 L27.09481,20.29872 L27.01921,20.05967 L26.99506,19.77092 z" stroke="Black" stroke-width="0" fill="#CA986C" fill-opacity="1.0" />
  <path d="M28.40643,16.97066 L28.49328,16.99054 L28.55162,17.13141 L28.53822,17.46629 L28.40038,18.0561 L28.266,18.64463 L28.16056,19.14716 L28.06291,19.32519 L27.87322,19.36278 L27.75957,19.33253 L27.71075,19.25692 L27.71896,19.08062 L27.79717,18.82049 L27.97865,18.34691 L28.11649,17.6966 L28.17396,17.27314 L28.28717,17.06659 z" stroke="Black" stroke-width="0" fill="#CA986C" fill-opacity="1.0" />
  <path d="M28.87252,14.42279 L28.8351,14.39027 L29.02045,14.15969 L29.41991,13.73189 L29.89471,13.28554 L30.44373,12.79973 L30.94143,12.3762 L31.18678,12.2054 L31.31768,12.2117 L31.54684,12.32919 L31.64643,12.44894 L31.64742,12.83291 L31.52539,13.65315 L31.29549,14.35807 L30.82651,15.17414 L30.28891,15.95819 L30.13958,16.17233 L30.17961,16.23145 L30.39606,16.40873 L30.71293,16.74641 L31.01754,17.24093 L31.09973,17.53886 L31.07613,17.72317 L30.94947,17.83517 L30.77974,17.88472 L30.46755,17.85892 L30.28242,17.75239 L30.02993,17.50301 L29.77787,17.33296 L29.70301,17.30906 L29.72062,17.39387 L29.81136,17.73351 L29.89374,18.18233 L29.93821,18.55312 L29.86895,18.68749 L29.65991,18.78321 L29.55021,18.81163 L29.43188,18.66048 L29.13207,18.12026 L29.05125,17.95179 L29.08626,17.89377 L29.12257,17.86002 L29.1524,17.86077 L29.2159,17.90796 L29.30721,17.98475 L29.35658,18.02253 L29.3716,17.9844 L29.31199,17.76112 L29.2085,17.35315 L29.15734,17.00672 L29.15346,16.87018 L29.20185,16.82222 L29.35784,16.79024 L29.58599,16.79759 L29.84525,16.86456 L30.05612,17.01925 L30.17668,17.0495 L30.17346,16.92495 L30.01741,16.67002 L29.66619,16.33339 L29.19938,16.03353 L28.93623,15.93847 L28.80271,15.9281 L28.78067,15.88834 L28.84203,15.78161 L28.88826,15.71982 L28.96647,15.70038 L29.07839,15.69217 L29.22401,15.71205 L29.42537,15.81705 L29.66432,15.96871 L29.75268,16.01812 L29.86322,15.82461 L30.27408,15.03792 L30.75687,14.07737 L31.03778,13.18859 C31.08544,13.00022 31.08453,12.98636 31.06314,12.98712 L30.9081,13.07306 L30.47251,13.43463 L29.77091,13.9776 L29.17111,14.32955 z" stroke="Black" stroke-width="0" fill="#CA986C" fill-opacity="1.0" />
  <path d="M25.98729,17.52578 L25.89738,17.09029 L25.86583,16.45535 L25.93226,15.57592 L26.15039,14.80478 L26.51367,14.04061 L26.79205,13.60749 L27.19246,13.21135 L27.57403,12.98003 L27.85656,12.94381 L28.0469,13.02679 L28.20759,13.32316 L28.31033,13.9745 L28.38881,14.9462 L28.37101,15.61871 L28.29591,15.79111 L28.14169,15.84498 L28.00334,15.81436 L27.9336,15.6882 L27.90408,15.29451 L27.85622,14.5512 L27.81809,13.72046 L27.78688,13.50861 L27.64232,13.63197 L27.30028,14.05332 L26.87454,14.81989 L26.63371,15.80866 L26.52148,16.71901 L26.54663,17.26598 L26.63412,17.70501 L26.66133,17.95467 L26.57971,18.00108 L26.40955,17.98372 L26.17264,17.91042 z" stroke="Black" stroke-width="0" fill="#CA986C" fill-opacity="1.0" />
  <path d="M18.65784,17.95215 C19.84561,17.61268 20.41262,17.61536 20.83517,17.63753 L21.73436,17.74541 L22.21038,17.93884 L22.69403,18.34298 L22.90087,18.70954 L22.88525,18.90755 L22.80128,18.84346 L22.66684,18.63651 L22.36977,18.40292 L21.9217,18.21458 L21.27656,18.06263 L20.31338,18.02508 C19.91653,18.03962 19.43068,18.08432 18.00136,18.54135 z" stroke="Black" stroke-width="0" fill="#CA986C" fill-opacity="1.0" />
  <path d="M17.64508,18.89511 C19.62494,18.63383 20.26232,18.68575 20.67695,18.73325 L21.46381,18.89737 L21.93937,19.21002 L22.19592,19.64408 L22.24549,19.95817 L22.20292,20.11886 L22.13148,20.0472 L21.97727,19.79701 L21.67162,19.52939 L21.02934,19.2807 L20.2586,19.15158 L19.18631,19.15418 L16.98793,19.56694 L17.4746,19.06849 z" stroke="Black" stroke-width="0" fill="#CA986C" fill-opacity="1.0" />
  <path d="M16.50666,20.07424 C18.2618,19.54097 18.90167,19.5823 19.37201,19.64651 L20.36596,19.89064 L20.86894,20.18517 L21.22318,20.53013 L21.40856,20.97839 L21.43411,21.35779 L21.40045,21.48758 L21.34828,21.44911 L21.26176,21.26672 L21.12815,20.99163 L20.84945,20.66299 L20.26533,20.28169 L19.11197,20.04679 C18.53854,20.02298 17.71468,20.06915 15.88624,20.7754 L16.25438,20.35128 z" stroke="Black" stroke-width="0" fill="#CA986C" fill-opacity="1.0" />
  <path d="M23.12531,15.14375 L23.48966,14.98522 L23.86623,14.82548 L24.65179,14.85123 L25.19077,14.97664 L25.50061,15.13486 L25.68706,15.32327 L25.72329,15.4652 C25.72109,15.49461 25.71407,15.50127 25.7082,15.49754 L25.67993,15.45185 L25.55457,15.33393 L25.25539,15.18639 L24.95371,15.08527 L24.38735,15.03501 z" stroke="Black" stroke-width="0" fill="#CA986C" fill-opacity="1.0" />
  <path d="M20.68111,8.669226 L20.85016,8.61861 L21.21077,8.61196 L21.34604,8.627645 L21.34562,8.710382 L21.2884,8.875535 L21.11437,9.148476 L20.86502,9.447305 L20.61047,9.579996 L20.3621,9.560815 L20.06606,9.399537 L20.01456,9.280775 L20.11913,9.127389 L20.38756,8.979025 L20.55507,8.820549 z" stroke="Black" stroke-width="0" fill="#DE8139" fill-opacity="1.0" />
  <path d="M13.38196,24.45964 L12.81462,25.30422 L12.03133,26.72028 L10.99988,29.1389 L10.13242,32.12137 L9.76165,34.82869 L9.747659,37.37976 L10.13645,39.84783 L10.66933,41.4213 L11.01946,42.18161 L11.10016,42.53876 L10.96724,42.6367 L10.7084,42.57374 L10.35862,42.32889 L10.01117,41.80655 L9.464488,40.27774 L8.877002,37.89735 L8.737967,34.98201 L9.080676,32.33979 L9.753853,29.56141 L10.84127,26.7721 L12.42852,23.7544 L13.01083,22.85933 L12.88245,22.21418 L12.5841,19.86752 L12.52935,17.22464 L12.75145,14.359 L13.33955,11.59065 L14.45292,8.483059 L15.33356,6.74807 L16.09184,5.519381 L16.86152,4.589264 L18.00702,3.621693 L19.16728,3.005381 L19.7527,2.887485 L19.90206,2.99621 L19.76886,3.1782 L19.30656,3.42929 L18.51775,4.01082 L17.50083,5.04052 L16.47212,6.454909 L15.29701,8.790338 L14.37775,11.71673 L14.11127,13.1472 L14.09502,13.48155 C14.1025,13.50434 14.11737,13.47707 14.17685,13.36306 L14.48295,12.84257 L14.98113,12.24649 L15.53136,11.75203 L16.30209,11.23134 L17.34208,10.7896 L18.12354,10.58579 L18.46388,10.58152 L18.56844,10.65194 L18.57591,10.73889 L18.49269,10.82798 L18.30994,10.95431 L18.24417,11.10114 L18.23853,11.41044 L18.27,11.74866 L18.32228,12.00205 L18.43218,12.11088 L18.62902,12.13542 L18.84934,12.06873 L19.26331,11.68197 L19.75196,11.13891 L20.02829,10.7895 L20.19793,10.68067 L20.30596,10.70945 L20.46167,10.84391 L20.45671,10.98367 L20.29036,11.49654 L20.10075,12.35535 L20.07225,12.94152 L20.14041,13.17326 L20.30399,13.17574 L20.67329,12.92664 L21.31523,12.06784 L22.14677,10.71581 L23.14313,8.778851 L23.86066,7.12816 L24.46095,5.65394 L25.1344,4.239139 L25.4185,3.696845 L25.51227,3.597462 L25.63326,3.621227 L25.93919,3.776352 L26.01956,3.853949 L25.87159,4.170805 L25.26875,5.4821 L24.70999,7.31451 L24.4745,9.260121 L24.42551,10.39723 L24.47743,10.76387 L24.60354,10.90945 L24.89814,10.81622 L25.2829,10.4128 L25.91717,9.640952 L26.78693,8.39736 L27.57312,7.153906 L28.28286,5.975676 L29.06357,4.624283 L29.40822,4.063756 L29.55771,4.034692 L29.87134,4.223947 L29.90247,4.418572 L29.55103,5.150808 L29.05874,6.420388 L28.71939,8.283364 L28.62016,9.910556 L28.73788,10.68801 L28.93372,11.01389 L29.22594,11.09957 L29.74612,10.74156 L30.76048,9.679779 L31.87887,8.232449 L32.62395,7.3359 L32.94983,7.117117 L33.10741,7.215034 L32.9942,7.865262 L32.74176,9.133588 L32.60865,10.07145 L32.69586,10.50901 L32.86874,10.64212 L33.19615,10.49983 L33.88922,9.895501 L34.65266,8.928575 L35.60308,7.370464 L36.34436,6.084026 L36.61071,5.596351 L36.79672,5.553607 L37.33275,5.708726 L37.47411,5.967435 L37.24541,6.939386 L36.78977,9.191939 L36.33384,12.75833 L36.27192,13.64957 L36.61891,13.56901 L37.53472,13.38313 L38.65377,13.26663 L39.54232,13.25424 L40.11857,13.30133 L40.45193,13.41287 L40.57338,13.58636 L40.54116,13.69542 L40.31066,13.73384 L39.77158,13.73507 L38.88303,13.74003 L37.77836,13.95675 L36.75219,14.32457 L36.23918,14.60584 L36.12433,15.3782 L36.0124,18.35601 L35.79634,21.71421 L35.51917,23.312 L34.98914,24.59879 L34.47791,25.5215 L33.85507,26.22729 L33.66187,26.43166 L33.6018,26.37894 L33.49162,26.1361 L33.43448,25.9357 L33.5005,25.65917 L33.98802,24.72715 L34.41803,23.48978 L34.64181,22.51567 L34.89146,20.05691 L35.12603,16.22355 L35.16474,15.32341 L34.99461,15.45135 L34.25556,16.24652 L33.3368,17.57336 L32.64317,18.73642 L32.32603,19.41203 L32.07859,20.1105 L31.94884,20.32059 L31.78749,20.23168 L31.54842,19.87143 L31.39892,19.60602 L31.38311,19.32612 L31.53196,18.77685 L31.82371,18.04911 L32.34268,17.19689 L33.10731,16.209 L33.82122,15.39301 L34.48508,14.80422 L35.03435,14.36165 L35.23983,14.20227 L35.31374,13.72755 L35.50552,11.65526 L35.79379,9.508453 L35.88072,8.914416 C35.88621,8.866353 35.88471,8.851307 35.86129,8.864562 L35.68866,9.059143 L35.17678,9.733454 L34.29848,10.67787 L33.4334,11.3144 L32.63821,11.36351 L32.10933,11.0783 L31.87323,10.73831 L31.77879,10.20566 L31.85923,9.443236 L32.05685,8.878524 L32.08984,8.749041 L31.94191,8.919471 L31.31739,9.77387 L30.4392,10.99783 L29.64363,11.68018 L29.01941,11.84695 L28.58491,11.77045 L28.26668,11.52413 L28.01823,11.13712 L27.76185,10.39841 L27.72504,9.446853 L27.90647,8.016167 L28.10992,7.11045 C28.14791,6.95505 28.13737,6.953732 28.12552,6.968222 L27.9883,7.225464 L27.38828,8.329756 L26.49203,9.900164 L25.81272,10.96671 L25.28305,11.46093 L24.72948,11.6393 L24.20179,11.55096 L23.80664,11.22743 L23.60418,10.76391 L23.56339,9.994782 L23.68104,9.059973 L23.69301,8.778087 L23.56392,8.956565 L23.23524,9.602267 L22.8541,10.44239 L22.16057,11.79454 L21.50422,12.94506 L20.98404,13.58458 L20.45774,13.938 L19.89165,14.02368 L19.4801,13.8309 L19.30109,13.37804 L19.3108,12.82043 L19.43756,12.2015 L19.46869,12.03131 C19.46645,12.02257 19.4605,12.02555 19.43855,12.04359 L19.30542,12.15518 L19.0214,12.35895 L18.67762,12.44605 L18.21461,12.40317 L17.99386,12.17347 L17.87531,11.78761 L17.87224,11.35303 L17.82194,11.25119 L17.57664,11.35588 L16.88408,11.77562 L15.928,12.54981 L14.92474,13.69243 L14.26082,14.85137 L13.79378,16.74719 L13.80456,19.5028 L14.03624,21.43333 L14.43387,20.91345 L16.14703,18.90374 L18.01886,17.18302 L19.86046,15.82873 L21.89549,14.71107 L23.52426,14.14938 L24.79645,13.97319 L25.44066,13.99184 L25.82822,14.07511 L26.20005,14.21453 L26.2866,14.29611 L26.27754,14.32149 L26.09195,14.33741 L25.39612,14.40001 L24.59795,14.55176 L23.48966,14.98522 L22.11973,15.61987 L22.01123,15.67639 L21.23439,16.11895 L20.40459,16.65614 L20.32966,16.70722 L18.68274,17.93149 L18.65784,17.95215 L18.00136,18.54135 L17.64508,18.89511 L17.4746,19.06849 L16.98793,19.56694 L16.50666,20.07424 L16.25438,20.35128 L15.88624,20.7754 L15.34017,21.44217 L15.15866,21.67432 L15.15867,21.68558 L15.23605,21.64959 L15.64882,21.44351 L16.3108,21.16566 L17.10155,20.99239 L17.94103,20.87948 L18.83002,20.91235 L19.7413,21.07679 L20.34594,21.38971 L20.75154,21.82238 L20.96957,22.14717 L20.99022,22.39173 L20.91771,22.50809 L20.81975,22.51777 L20.74802,22.46839 L20.58851,22.28445 L20.05574,21.86928 L19.43239,21.58549 L18.19189,21.47768 L16.81632,21.80112 L15.55475,22.36251 L14.7622,22.93905 L14.31863,23.36679 L14.4061,24.08446 L14.38888,24.64678 L14.31296,25.32179 L14.22987,25.67516 L14.0567,25.75083 L13.90975,25.73352 L13.7961,25.65704 L13.67943,25.48117 L13.52765,25.03657 z" stroke="Black" stroke-width="0" fill="#DE8139" fill-opacity="1.0" />
  <path d="M20.44895,22.49253 L20.44138,22.82201 L20.34143,23.03919 L20.05451,23.31492 L19.5656,23.92316 L18.75681,25.19829 L18.13745,26.57037 L17.59646,28.13273 L17.1764,29.56024 L17.01443,30.70997 L16.98346,31.18535 L16.9867,31.62836 L17.15078,32.34666 L17.56952,32.85484 L18.26968,33.06766 L18.32487,33.07193 L19.11436,32.91175 L19.82137,32.3746 L20.27763,31.9798 L20.71957,31.55405 L21.13261,31.11336 L21.39036,30.94261 L21.66762,30.87919 L21.84791,30.87778 L21.93865,30.93968 L21.93876,31.06459 L21.79314,31.2115 L21.5127,31.32428 L21.24739,31.42885 L21.05381,31.59305 L20.89998,31.84324 L20.87492,32.12713 L20.99504,32.37861 L21.27289,32.53849 L21.68036,32.50133 L22.11635,32.19022 L22.31857,31.84885 L22.37388,31.58009 L22.30345,31.42885 L22.14141,31.34589 L22.07833,31.2007 L22.12888,31.05595 L22.28573,31.0002 L22.54975,31.0607 L22.829,31.2153 L23.06876,31.41902 L23.20649,31.61067 L23.33294,31.67258 L23.65368,31.60803 L24.06201,31.44141 L24.63483,31.17879 L24.99054,30.96474 L25.20114,30.88718 L25.40333,30.9076 L25.66018,31.06764 L25.77609,31.3482 L25.68257,31.66103 L25.51463,31.9159 L25.29927,32.28077 L25.18863,32.62982 L25.20904,32.85308 L25.30981,32.95714 L25.53307,32.92816 L25.71284,32.8305 L25.94206,32.65287 L26.43468,32.14641 L26.51109,32.06583 L26.80547,31.77562 L27.07352,31.56948 L27.37252,31.4483 L27.64979,31.50824 L27.92639,31.82568 L28.07194,32.4059 L28.20366,32.81752 L28.44405,32.96833 L28.77203,32.91367 L29.20801,32.55474 L29.72303,31.95344 L30.02664,31.57344 L30.3836,31.3449 L30.76427,31.31988 L31.02441,31.40747 L31.04549,31.55434 L30.85364,31.64277 L30.51446,31.76808 L30.39304,31.96526 L30.43623,32.18422 L30.59962,32.28669 L30.93155,32.234 L31.54404,32.04565 L32.04852,31.66893 L32.49834,31.19211 L32.95409,30.85623 L33.3769,30.61979 L33.74506,30.48017 L34.06776,30.47556 L34.3391,30.64153 L34.53075,30.95107 L34.44877,31.27344 L34.26176,31.56475 L34.035,31.7407 L33.64504,31.96902 L33.07744,32.25602 L32.75203,32.3211 L32.47036,32.23788 L32.41948,32.35478 L32.39609,32.47817 L32.44672,32.68139 L32.68367,32.79269 L33.16108,32.76084 L33.89463,32.42112 L34.87138,31.80489 L35.70087,31.23215 L36.19337,30.86966 L36.44516,30.71701 L36.66266,30.7161 L36.81737,30.80839 L36.85175,30.86995 L36.78759,30.91883 L36.53007,31.1807 L36.23846,31.62685 L36.1456,31.93441 L36.14363,32.06613 C36.15021,32.08325 36.16338,32.07403 36.31552,31.93243 L36.97675,31.3285 L37.47135,30.9676 L37.87638,30.82995 L38.35518,30.7957 L38.65879,30.98735 L38.93211,31.3397 L39.00191,31.66373 L38.9703,31.9759 L38.83792,32.17875 L38.59491,32.37238 L38.43092,32.4277 L38.35452,32.40333 L38.30907,32.29137 L38.22741,32.03913 L38.24849,31.89555 L38.35649,31.79281 L38.33476,31.68283 L38.22873,31.56033 L38.03115,31.57087 L37.71041,31.79281 L37.10254,32.39608 L36.41497,33.19035 L36.04549,33.45773 L35.73464,33.53742 L35.45145,33.50976 L35.26506,33.31811 L35.19262,33.0257 L35.20908,32.69048 L35.34212,32.34669 L35.58119,32.00027 L35.78008,31.76252 L35.81828,31.64397 L35.78864,31.54452 L35.73398,31.52015 L35.55089,31.65846 L34.85147,32.22748 L33.98476,32.96049 L33.29917,33.39714 L32.81049,33.59933 L32.35079,33.56047 L31.89439,33.36619 L31.67343,32.96115 L31.66783,32.44021 L31.22894,32.57237 L30.93524,32.61991 L30.69288,32.62027 L30.42518,32.58561 L30.32596,32.53833 L30.26645,32.43196 L30.20965,32.29304 L30.19278,32.25447 L30.17394,32.28099 L30.06477,32.46966 L29.72482,32.93357 L29.28463,33.3684 L29.15923,33.46438 L28.5751,33.75473 L28.28443,33.83137 L28.06831,33.84649 L27.65298,33.74751 L27.43902,33.61134 L27.28966,33.33946 L27.23781,32.98341 L27.31256,32.60748 L27.34238,32.45408 L27.32769,32.42556 L27.28318,32.44025 L27.13065,32.5634 L26.74521,32.91124 L26.26904,33.29322 L26.08504,33.42582 L25.81144,33.60002 L25.36508,33.81347 L25.30058,33.83538 L25.01853,33.88477 L24.67847,33.85409 L24.50865,33.69724 L24.42958,33.38958 L24.41273,32.90952 L24.49112,32.36726 L24.61508,31.96905 L24.71439,31.73898 L24.73504,31.66513 L24.62234,31.69383 L24.26603,31.84013 L23.81978,32.01863 L23.51108,32.07394 L23.25383,32.01093 L23.10787,31.95178 L23.03192,31.93253 L22.99587,31.95774 L22.95052,32.06184 L22.85756,32.31039 L22.65071,32.67422 L22.23892,33.06959 L21.82583,33.29213 L21.38465,33.37898 L20.98193,33.33318 L20.67298,33.09509 L20.50533,32.80125 L20.42625,32.52428 L20.40492,32.35172 C20.39828,32.32391 20.38586,32.33226 20.34279,32.37952 L20.09583,32.64857 L19.5482,33.15521 L18.79302,33.65751 L18.76137,33.67366 L18.09946,33.89656 L17.83943,33.92729 L17.49535,33.92339 L17.0636,33.80956 L16.64894,33.48433 L16.33509,32.76069 L16.20987,32.01266 L16.21074,31.13764 L16.22426,30.99196 L16.42043,29.6645 L16.5365,29.11868 L17.03004,27.67877 L17.63635,26.32826 L18.35788,24.90598 L19.24633,23.61876 L20.00556,22.76138 L20.34464,22.50196 z M32.73209,31.75468 L32.73559,31.81628 L32.78634,31.82573 L32.95574,31.77918 L33.3152,31.60383 L33.7618,31.30982 L33.9928,31.06902 L34.04215,30.96157 L34.02325,30.91642 L33.88955,30.92377 L33.66345,31.02562 L33.33795,31.20727 L32.88154,31.55238 z" stroke="Black" stroke-width="0" fill="#DE8139" fill-opacity="1.0" />
</svg>